<svg xmlns="http://www.w3.org/2000/svg" xmlns:xlink="http://www.w3.org/1999/xlink" viewBox="0 0 1371.03 664.65"><g fill="#fff"><path d="M175.82 424.05a.31.31 0 0 1 0-.08h-.05zm-2.88-4.65zM329.3 186.86l-.07.1a1.2 1.2 0 0 1 0 .19l.12-.08-.05-.22zM74.35 297l.76.92c0-.4 0-.77-.07-1.15zM218.5 638.9h20a8.67 8.67 0 0 1 1.88-4.08h-18.1q-1.87 2.06-3.8 4.08zm23.27 0h20l3.17-4.08H244.3a5.34 5.34 0 0 0-2.53 4.08zm26.56-4.1l-3.42 4.08h22.32l2.67-2 2.63-2.1z"/><path d="M311.46 619.77a73.09 73.09 0 0 1 13.28-7.77c11.58-5.2 23.54-9.6 34.95-15.15 5.17-2.52 9.58-6.75 14-10.57 9.53-8.2 18.5-17.06 28.38-24.82 8-6.3 17.2-11.1 25.45-17.15 5.73-4.2 10.75-9.36 16.08-14.1a68.64 68.64 0 0 0 6.09-5.57 14.24 14.24 0 0 0 3.14-5.43c.84-3.15-1.78-5.68-5.1-6-8.07-.65-15.7 1.4-23.42 3.23a17.3 17.3 0 0 1-4 .05c0-.35-.08-.7-.1-1.05 4.58-1.54 9.06-3.6 13.77-4.48s9.87-.6 14.88-.83c.74-4-.15-6.5-3.7-7.62l-16.1-5-17.48-5.9c-7.42-2.5-15.18-3.6-22.7-2-6.18 1.32-12 4.4-17.9 7-7.1 3.14-14.2 6.35-21.05 10a145.44 145.44 0 0 0-18.66 11.24c-7.84 5.82-14.9 12.7-22.64 18.64-11.64 9-21.3 19.78-30.5 31.07L251.9 599.8c-9.47 11.44-18.84 23-28.77 34l-.87.94h18.12a10.63 10.63 0 0 1 4.69-3.13c3.7-1.33 6.9-2.93 8.42-6.8 2.4-6.07 8-6 13.2-7.15-.16.44-.18.64-.25.66-5.54 1.73-9.18 5.6-12.62 10.1-1.84 2.4-5.1 3.86-8 5.32a11.66 11.66 0 0 0-1.61 1H265c1-1.23 2-2.45 3.05-3.62 3.7-4.17 8.14-7.7 12.17-11.6 5.4-5.24 10.94-10.38 16.07-15.9 6.7-7.18 13-14.75 19.53-22l26-28.36c7.76-8.46 17.9-13.25 28-18.15s19.8-9.84 29.93-14.2c5.8-2.5 12.1-3.86 18.16-5.73l.77 1.44c-1.55 1.2-2.9 3-4.66 3.5-14.63 4.33-28.3 10.75-42 17.5-7.44 3.67-14.15 8.4-21.3 12.46-2.37 1.35-4 3.95-6 5.95-8 8-16.34 15.76-24 24.1-5.74 6.23-10.57 13.3-16 19.83-2.06 2.46-4.77 4.35-7 6.65-3.44 3.5-6.73 7.13-10.1 10.68a13.35 13.35 0 0 1-2.71 2.61c-6.6 3.83-11.63 9.24-16.4 14.88h24.2c6.14-5 12.3-10.22 18.76-15zm10.33-82.7l.5 1.25c-1.82 3.08-5.22 2.42-7.9 3.4l-.65-1.72zm-68.38 73.5l-.52-1.66 24.5-7.3.63 1.57zm18.2 6.86l-.48-1.3 6.46-2.76.75 1.8zm-2.6-23.26l-.44-1.16 17.74-6.37.47 1.28zm15.17-18l-.6-1.27c4.83-4.35 11.46-3.82 17-6.26l.52 1.38zm46.58-27l-24.4 7a3.19 3.19 0 0 1-1.09-.1l-.5-1.35 27.7-8.38.58.7c-.77.66-1.4 1.8-2.3 2.08zm-52.93-407.6l.27-.4.22-.28-.32.13zm-149.7 496.9a4.35 4.35 0 0 1-.32.43h16l1.64-4.08H130.4l-2.26 3.65zm19.92-3.66l-1.62 3.9-.07.2H157l.35-.8 1.45-3.28z"/><path d="M175.6 595.78c4.27-11.9 6.3-24.62 9.66-36.88 1.8-6.5 2.9-13 1.9-19.7a1.67 1.67 0 0 0-.21-.67c-2.62 6.2-5.08 12.8-8.15 19.07s-6.68 12.33-10.25 18.37c-2.77 4.68-5.9 9.13-8.76 13.77-3.22 5.25-6.07 10.76-9.5 15.86-4 5.95-8.65 11.47-12.68 17.4-2.6 3.8-4.84 7.84-7.22 11.8h15.08l5.2-12.74c4.08-9.82 9.15-19.23 13.78-28.82.2-.4.56-.73 1.57-.74l-4.45 10-13.5 32.3h10.73c5.74-12.97 12.04-25.72 16.82-39.03zm101.2-310.23h.05l.1-.1zm64.7-184.95h-.06v.03a.13.13 0 0 0 .06-.03zm65.1-5.37v-.13l-.1-.18v.25zm-33.84 2.33zm.5 183.14l.16-.45-.27.48z"/></g><path d="M175.76 424.2l.07-.14v-.1h-.05c-.03.08-.02.16-.02.23zm-2.82-4.8z"/><path d="M112 662.46c1.45-2.92 3.63-5.48 5.48-8.2a13.09 13.09 0 0 0 .86-1.14c1.87-3.4 3.57-6.9 5.63-10.16 1-1.55 2.7-2.6 3.83-4.07h-6.75l-.92 1.27a166.45 166.45 0 0 0-11.46 17.73m297.9-562.8l-.1-.18v.25zm-209.8 565.8l21.74-22h-4.6l-13.78 14.55c-3.18 3.4-6.15 7-9.4 10.34m-31.56-22.6l1-2.3H157"/><path d="M121.06 638.9h6.75a4.35 4.35 0 0 0 .32-.43l2.26-3.65H124l-2.94 4.08zm48.44-21.5c4.84-11.62 10-23.15 14.1-35 2.73-7.78 4.13-16 5.8-24.18 1.4-6.87 3.66-13.82 1.45-20.88-2.36-7.5-1.65-15-.6-22.47.85-6.1 2.06-12.17 2.85-18.3.25-2-.35-4.07-.56-6.1H191l-2.16 11.86a2.52 2.52 0 0 1-1-1.93l.77-21.7c0-1.13.26-2.26.25-3.4l-.2-45.6c0-2.5 1.42-5 2.4-8.2v66.66l1.6.06c.33-6.1 1-12.18.93-18.27l-.87-35.9c0-4.93-.45-10.17 3-14.48l-.13.15-.4-6.3-2.55 5.75-.92-.35 2-7.2-1-.18q-2.2 4.65-4.4 9.3a5.86 5.86 0 0 1-.87-4l2.48-19.06c.1-1-.66-2.1-1-3.16-2.9 8.8.44 18.6-6.42 27.2.8-9.53 4.1-18.06.3-26.66a13.16 13.16 0 0 0-.57 6.45c1.74 8-1.13 15-4.65 21.87-.2.4-1.2.38-1.85.54v.1l-.07.14c.13 2.3.3 4.58.35 6.86q.3 14.52.55 29v5.5l-1.16.16c-.57-2.9-1.64-5.8-1.62-8.7.06-10.08.48-20.16.85-30.23a8.16 8.16 0 0 1 1-2.62v-.22h.05c-.46-1.6-1.57-3.36 1.32-4 .43-.1.8-1.24.88-1.94l1.9-15.36c.13-1.37-.52-2.82-.82-4.23l-1.45.2c0 2 .12 4.1 0 6.12-.28 4.1-.5 8.2-1.2 12.25-.22 1.27-1.8 2.32-2.75 3.46l-.72-1.07-4.62.63c.4-6.63 2.4-13-.14-19.2a27.06 27.06 0 0 0-.58 6.25c-.1 3.53-.13 7.08-.6 10.57-.12.95-1.68 1.72-2.57 2.57-.38-1.15-1.1-2.3-1.05-3.44.12-2.12 1-4.2 1-6.32 0-3.1-.4-6.23-.64-9.35l-1.47.07a32.54 32.54 0 0 0-.55 3.91c-.1 3.15.18 6.33-.12 9.46-.15 1.54-1.24 3-1.9 4.48l-.83-.44q-.65-8.13-1.3-16.26l-1.06.08q-.8 12.3-1.6 24.63h-1.7c-.75-8.37.83-17-1.07-25.22l-1.7.05v46l-1.76.1-1.56-16.3a20.41 20.41 0 0 0-1.29 7.06c-.1 2.28 0 4.56 0 7.7-3.1-5.33-2.8-19.3.13-23.24l.93 5.75c3.9-6.22.43-12 .24-17.9L145 416l-.94-6.4-.75-.06-2.06 8.3-.76-.06-1.68-4.8-2.7 6.7-.63-.27.48-6.7-1.13-.22-2.45 5-1.8-2.87-3 8.32-.64-.12-.47-4.35-.74-.07-2.2 4.6-1.2-3.6-3.44 7.58-1.28-6.5h-.75l-.9 2.92-.77-.8-2.8 2.05-1.38-2.86-2.07 3.4-2.1-2.8-.2 1.17H82.88L79 421.24c-1.75.77-3.62 1.94-3.88 1.65a26.52 26.52 0 0 1-3.63-5.39c-.85-1.6-1.2-3.47-2.15-5-.2-.34-1.92.24-3.7.52-.3-7.36-2-14.95 5.15-21.18a8.65 8.65 0 0 1 2-.28c2.06.06 5.53-.37 6 .54 1.83 4 5.52 4.9 8.78 6.56a6 6 0 0 0 2.31.18c0-.82.36-1.82 0-2.45-1.08-2-2.4-3.82-3.65-5.7s-2.8-3.3-4.54-1.17l-6.6-10.42-1.17.54v5.62l-4.06-10-1 .27-.63 4c-2.7-3.88-5.9-7.32-7.77-11.36-4.3-9.27-.92-14.9 8-14.3a47.27 47.27 0 0 1 20.69 5.87c1.2.68 2.5 1.22 3.76 1.8 2 .9 3.25-.23 3.06-1.92a35.87 35.87 0 0 0-2.23-9.78c-.52-1.22-3.1-2-4.82-2.2-4.67-.4-9.66 1.9-13.92-1.84a13.19 13.19 0 0 0-2.73-1.79c-3-1.53-6-3.7-9.2-4.27-4.12-.74-8.47-.18-13.05-.18v-15.6c.14-6.9 1.1-7.76 8.1-7.64 7.46.12 11.37-3.75 12.64-11.13.7-4.15-1.2-9.22 3.3-12.05-1.3-1.35-3.2-2.42-3.55-3.86-.92-3.85-3.38-6.3-7.4-5.57-2 .37-5.9-2-5.8 1.84s4 1.47 6.16 2.12c1.76.52 4.42 1.28 4.82 2.53 1.82 5.67.26 11.2-2.2 16.55v-6.24h-.7l-2 4.1-1.8-5.7c-1.77 4.85-1.2 10.13-4.9 14.05a23.43 23.43 0 0 1 .42-5.19c.2-1.48.25-3 .37-4.48h-1l-2.9 7.27-1-.3c-.65-4.4 4.26-9.12-.56-14l-2.5 13.82-1.62-.2c1.26-4.4 2.12-8.78-.38-13.52l-2.32 3.34c-5.42-3-10.52-5.5-17.15-4.17-7.73 1.56-8.8 7-9.2 13.54l-1-.37q-.84-2.85-1.7-5.7l-.65.14-.53 4.65-1.13.18-2-6.47-2.87 1.2c-.13-2.06-.57-3.7-.27-5.22.55-2.7-.18-3-2.46-1.55 1.38-3.57 2-7.46 4.1-10.25a201.7 201.7 0 0 0 20.77-33.27c6-12.48 11.87-25 21-35.66a16.09 16.09 0 0 1 4.27-3.42c4.46-2.5 9-5 10.47-10.27.42-1.46-.18-3.45-.87-4.93-1.24-2.64-4.2-5.12-4.14-7.6a135.07 135.07 0 0 1 2.56-23.92c2.38-11.16 5.84-22.08 8.72-33.13a103.1 103.1 0 0 0 2.11-10.75c.13-.9-.65-1.94-1-2.92-.7.3-1.9.4-2.07.9-1.12 3.05-2.73 6.14-2.84 9.27-.3 8.47-3.46 16.2-5.38 24.26-1.13 4.75-3.16 9.3-4.14 14.07a191.28 191.28 0 0 0-2.74 18.95c-.46 4.6 0 9.17 4.65 11.93 2.7 1.6 2.06 3.65.17 5.2-2.13 1.74-4.7 2.93-7 4.53-3.37 2.38-7.32 4.36-9.78 7.5-3.77 4.8-6.7 10.28-9.6 15.7-4 7.54-7.14 15.63-11.65 22.85-6.3 10.12-11.56 20.94-20 29.75-4.46 4.65-5.66 13.76-.66 20 1.9 2.37 3.5 5 5.45 7.27s4 4 7.46 3.2c8.72-2.06 17.5-3.55 26.33-.55a27.8 27.8 0 0 1 4.4 2.41l-2.15 2.74 1-.05c.23 1.8.8 3.64.62 5.4a34.38 34.38 0 0 1-1.78 8.1 10.22 10.22 0 0 0 1.65 10.33 64.24 64.24 0 0 0 7.3 7.55c1.72 1.6 2.3 2.7.92 5.1-2.1 3.63-2.4 7.67.35 11.36q3.66 4.94 7.44 9.8c3.95 5.1 1.43 10.3.23 15.43-1.65 7.1-4.1 14.08-.82 21.37 5.76 12.8 16.62 17.9 29.6 17.6s24.48 4.05 35.67 9.18 20 14.3 27.82 23.8a275.9 275.9 0 0 1 17.72 23.93c3.56 5.4 6.86 11.32 8.68 17.48 3.34 11.36 3.85 23.1.4 34.67-2 6.84-3.6 13.9-8.14 19.8-3.77 4.88-7.6 9.83-10.5 15.23-6.44 12-12.66 24-20.95 34.93q-9.1 11.9-17.94 24h6.36c2.38-4 4.63-8 7.22-11.8 4-5.93 8.68-11.45 12.68-17.4 3.44-5.1 6.3-10.6 9.5-15.86 2.85-4.64 6-9.1 8.76-13.77 3.57-6 7.17-12.08 10.25-18.37s5.53-12.86 8.15-19.07a1.67 1.67 0 0 1 .21.67c1 6.72-.12 13.18-1.9 19.7-3.36 12.26-5.4 25-9.66 36.88-4.78 13.3-11.08 26.06-16.82 39h3.3l7.5-17.34zM27 308.87l-2.8-3-1 2.25-.77-.17c.28-1.12.23-2.56.92-3.26s2.1-.5 3.7-.8l.8 4.5zm30.86 33.06l4.34 3 1.1-2.15h.86l.53 4.47c-4.27.9-6-1.54-7.5-4.36a17.55 17.55 0 0 0 .66-.96zm72.4 96.3l-1.1-.1c-.55-4-1.23-8.1 2.2-11.85q-.55 5.97-1.1 11.94zm4.1.94l-1.53-.1c.25-3.83-1.52-7.86 1-11.5l1.27.1q-.38 5.74-.75 11.48zm3.37 1.7c-2.53-3-2.07-11.18 1-14.2l-1 14.2zm3.7 1.12h-.6v-18.67l1.67.05zm12.5 6c-3.34-5.87-3.34-14.25 0-19.18zm3.9-25.62v26.5c-2.63-2.9-2.13-21.8-.01-26.5zm-.1 38.12q-.42-3.66-.86-7.3l1.24-.2 1.26 7.26zm4.75-8.44c-3-2.62-3.34-23.84 0-29.5zm4.5 21h-1.25V462.6c0-1.22.44-2.5.2-3.66-1.62-8.2-2.44-16.3-.34-24.63.78-3.1.13-6.6.13-9.9H167zm3.02-44.42h1.07v30.3h-1.45c-1.1-10.1-1.78-20.2.38-30.3zm-.33 52.5v-16.56l.44-.2q.8 4.1 1.57 8.2h.43l.26-4.26 1.52-.06 1.14 11.56c-2.4 1.37-2.15-5.03-5.33 1.32zM180.9 494l-.9.1-.45-3.58c-1.1-.8-2.54-1.35-2.58-2-.2-4-.1-8.08-.1-12.12l1.13-.06 1.3 9.06.6-3.42h1zm-.63-18.93c-.57-1.65-1.58-3.3-1.62-4.95l-.5-34a83.3 83.3 0 0 1 1.07-10.89 10.5 10.5 0 0 1 1.29-2.82l1.38 52.37zm3.53 24.64q-.52-6.3-1.06-12.6c3.32 3.8 1.7 8.27 2.3 12.44zm2.3-66.7c-.1 9.05.13 18.1.23 27.14l.22 20.33a16.59 16.59 0 0 1-.74 3.49h-1.3c-.34-3-1-6-.94-9 .22-8.38-.47-16.68-.92-25-.5-9.07-1.5-18.82 3.64-27.4.1-.15.45-.14 1-.3-.43 3.74-1.16 7.23-1.2 10.74z"/><path d="M158.78 634.8l-1.45 3.28-.35.8h3.2l1.8-4.08zm55.12 4.1h4.6q1.92-2 3.8-4.08h-4.56q-1.9 2.04-3.84 4.08zM327.1 616c9-4.2 18.26-7.93 27.33-12 8.84-4 17.83-7.64 24.38-15.4 4.25-5 9.13-9.52 13.75-14.22a17.3 17.3 0 0 1 2.33-1.84l11.13-7.94c4.4-3.25 8.6-6.78 13.13-9.86s9.83-5.2 13.95-8.72c8.5-7.28 16.5-15.13 24.5-23a5.58 5.58 0 0 0 .85-4.93c-1.9-4.9-4.2-9.67-6.53-14.4-3.95-8-7.36-16.4-12.18-23.86-9.9-15.35-20.6-30.2-31-45.24-4.7-6.82-9.95-13.35-14-20.56a219.93 219.93 0 0 1-13.31-27.84c-4.6-11.86-7.72-24.22-7.23-37.17q.25-6.75.4-13.5c.06-3-.5-6.07.12-8.9 1-4.73 2.88-9.28 4.25-14 1.1-3.8 3.06-6.5 7.24-7.36 1.16-.24 2.25-1.55 3.08-2.6 9.15-11.58 13.67-25.14 16-39.4a20.58 20.58 0 0 1 6-11.76 40.18 40.18 0 0 0 10.85-16.82c2.7-8.22 5.1-16.3 4.66-25a12.58 12.58 0 0 1 .54-2.56l3.35-20c.63-3.93 1.14-7.88 1.64-11.82a9.75 9.75 0 0 0-.13-2.58c-.42-2.94-1.05-5.86-1.3-8.8s.25-6.08-.33-9c-.74-3.75-2.52-7.3-3.32-11s-.26-7.56-1.33-11c-3-9.8-6.86-19.36-9.88-29.17-2.73-8.9-4.95-17.92-9.95-25.92-2.3-3.68-4.7-7.3-7.12-10.9s-5.36-7-7.44-10.88c-2.55-4.72-4.67-9.42-8.36-13.7a74.74 74.74 0 0 0-18.65-15.5 39.08 39.08 0 0 1-3.45-2.91l-8.77-6.75c-1.5-1.1-3.36-1.84-4.6-3.17-5.25-5.57-12-8.07-19.17-9.77-.78-.2-1.9 1-2.86 1.6.58 1 1 2.54 1.75 2.75 7.9 2.14 15 5.24 18.5 13.46a2.49 2.49 0 0 0 1.42 1.09c3.7 1.27 5.77 4.1 6.8 7.6 3.3 11.43 5.35 23 3.14 35-1.25 6.78-2 13.67-3.15 20.47a54.07 54.07 0 0 1-2.51 9.08c-.3.83-1.73 1.24-2.64 1.84l-1.26-.44 1 6c5.36-3.1 7.2-7.06 7.13-12.56a56.08 56.08 0 0 1 1.75-15.73 71.53 71.53 0 0 0 .89-36.22c-1.22-5.25-3.6-10.23-5.46-15.33 5.8 5.35 12.38 10.56 16.06 17.65s5.4 15.45 8 23.24l.95-.13a88.71 88.71 0 0 0-1.03-9.73 74.17 74.17 0 0 0-3.31-9.85c-1.16-3-2.58-5.93-3.9-8.9l1.55-.87c3.4 4.83 7 9.54 10.18 14.52 4 6.27 1.12 13.43 1.9 20.47 3-4.6 3.46-8.6 2.45-15.52 1.82 2.72 3.07 5.75 4.7 8.56a67.51 67.51 0 0 0 4.26 5.66 9.48 9.48 0 0 1 1.69 3c.55 2.16 0 5.4 1.32 6.44 4.13 3.3 2.3 7.63 2.9 11.5.43 2.63.7 5.28 1 7.93l1-.07.77-7.95 2.94 6.16q-.24-3.93-.5-7.86l1.58-.28 11.22 34.78-1.54.66q-2.16-5-4.3-10l-1.4.5 8.63 28.27.85-.2q-1-7.56-2-15.12l1.12-.2c1 3.7 2.44 7.35 3 11.12 1.48 9.7 2.36 19.47 3.94 29.14 1.25 7.68-.25 15.06-1.5 22.5a8.63 8.63 0 0 1-1.34 2.46c-1-3-2.06-6-1.3-8.45 2.44-7.57 1.87-15.2 1.3-22.8-.38-5.17-1.46-10.3-2.23-15.44l-1 .15c.36 3 .5 6 1.12 8.9 1.86 8.95.5 17.7-1.38 26.42-.4 1.83-1.4 3.62-1.4 5.42a84.19 84.19 0 0 0 1 9l1.37 12.44h.65q1.95-4.56 3.88-9.12l1.46.54a80.06 80.06 0 0 1-2.5 7.68c-.86 2-2.42 3.7-3.33 5.7a44.81 44.81 0 0 0-2.09 6.34c-.84 2.9-2.45 5.9-2.18 8.7.58 6.15-2.5 10.63-5.78 14.92a15.07 15.07 0 0 1-7.3 5.23c-7.54 2-7 9-8.43 14-2.15 7.65-2.27 15.85-3.75 23.73-.5 2.62-2.5 5-3.82 7.4l-1.5-.6c4.25-9 5.36-18.4 4.15-28.2-.82 1.84-2.18 4.16-1.57 5.68 2.27 5.62-.42 10.38-2.08 15.2-2 5.86-7.54 7.74-12.83 9.6-.3.1-.73-.13-1.1-.1l-4.62.37 4.5-13.18c-1.83 1.15-3.16 1.5-3.44 2.24-1.6 4.3-2.95 8.7-4.62 13.76-.58-1-1.94-2.18-1.9-3.33.3-7.52 3.6-13.72 9-18.9a21.06 21.06 0 0 0 2.37-3.33l-1.08-.9c-3 3.26-6.75 6.13-8.92 9.9s-2.76 8.33-4 12.56l-.77.3-2-10.14c-1.56 4.86-2.6 9.5-4.54 13.76s.7 8.86-2.55 13.35c-2.1 2.92-.8 8.3-1 12.6l.88.13 2.1-11c1.77 2.67-.4 18.83-1.93 20.07l-2.16-1.2-.48 3c5.54 1.57 5.65-2 5.7-5.57a4.78 4.78 0 0 1 0-.76l1.72-9 1.17.17-.63 13.45h1.77c0-5.3.48-10.66-.16-15.9-.5-4-2.72-7.77-3.6-11.77-1-4.52 1-7.7 5.1-9.18.9 3.58-3.2 7.13-.06 11.36l2.16-8.62c3.33 1.22 3.38 2.53 2.66 5s0 5.38.06 8.1h1.1c-.47-9.7-.12-10.46 4.83-11.16l-.73 8.35.9.08 2-6.4 1.64.6-4.5 10.87c5.27-2.6 5.47-2.9 6.1-8.22a3 3 0 0 1 .68-1.71c4.1-4.35 7.7-9.65 15.78-7.76-3.33 2.58-6.62 4.52-9.1 7.2s-4.43 6.34-6.6 9.56a1.67 1.67 0 0 1-.25.28c-2.6 2.4-8.18 3.3-10.38 1.74l-3.14 10.54-3.2-2.4.77 7 3.34-2.73-.77 11.86.9.08 3.18-14.5 1 .15.34 5 1.72-4.14 1 .05A18.7 18.7 0 0 1 371 328c-.2 1.6-.64 3.2-1 4.8-2.36 11 1.92 21.66 2.24 32.56.17 5.87 3.1 11.6 4.3 17.5 3.26 15.93 11.6 29.57 20.33 42.7 11.27 17 24.14 32.87 36 49.48 4.07 5.7 7.17 12.12 10.6 18.28a4.37 4.37 0 0 1 .14 3.09c-.1.4-1.56.75-2.26.57-10.2-2.68-20.64-4.76-30.52-8.36-13.23-4.82-25.36-2.47-37.47 3.12-2.5 1.15-5.07 2.2-7.6 3.27-13.2 5.54-26.46 10.98-37.76 20.2-1.66 1.35-3.4 2.6-5 4-11 9.62-23 18.33-32.7 29.12-16 17.76-30.46 36.9-45.67 55.4-6.8 8.26-13.68 16.47-20.83 24.43l-6.1 6.63h4.56l.87-.94c9.93-11 19.3-22.6 28.77-34l26.22-32.22c9.2-11.3 18.86-22.1 30.5-31.07 7.75-5.95 14.8-12.82 22.64-18.64A145.44 145.44 0 0 1 350 506.65c6.86-3.63 13.95-6.84 21.05-10 5.86-2.6 11.7-5.66 17.9-7 7.53-1.6 15.3-.5 22.7 2l17.48 5.9 16.1 5c3.54 1.12 4.43 3.67 3.7 7.62-5 .23-10.06-.06-14.88.83s-9.2 2.94-13.77 4.48c0 .35.07.7.1 1.05a17.3 17.3 0 0 0 4-.05c7.7-1.84 15.35-3.88 23.42-3.23 3.3.27 5.93 2.8 5.1 6a14.24 14.24 0 0 1-3.14 5.43 68.64 68.64 0 0 1-6.09 5.57c-5.33 4.73-10.35 9.9-16.08 14.1-8.25 6-17.44 10.84-25.45 17.15-9.87 7.76-18.85 16.63-28.38 24.82-4.45 3.82-8.86 8.05-14 10.57-11.4 5.54-23.37 9.94-34.95 15.15a73.09 73.09 0 0 0-13.28 7.74c-6.48 4.8-12.62 10-18.93 15h6.94c8.46-7.26 17.34-13.98 27.57-18.76zM420 229.27c.42-1.1-.3-2.62-.2-3.92.22-2.7.64-5.37 1-8.06l1.74.16c0 1.6.13 3.2 0 4.76-.64 6.9-1.14 13.9-7.9 19.3 2.06-4.58 3.9-8.34 5.36-12.23zm-15.34 20.33c2.23-2.14 4.9-3.8 8.12-6.22-2 6.55-7.2 9.74-10.45 14.9-2.25-4.18.13-6.57 2.33-8.67zm-8 20c-.63-3.17 1-6.05 5.2-7.93a75.76 75.76 0 0 0-2 7.41c-.83 5.07-1.25 10.2-2.22 15.24-.38 2-1.8 3.8-2.74 5.67 1.9-6.8 3.1-13.36 1.74-20.43zm-21.66 30c.8-4.55 3.44-6.43 8-5.3zm-82.47 335.2l-2.63 2.1-2.67 2h7.12a37.85 37.85 0 0 0 3.34-2.56l1.78-1.52z"/><path d="M277 285.42c-4 5.3-9.33 6.2-15.46 4.8-2.24-.52-2.68-1.7-2.57-3.8.27-4.87 3.37-8 6.6-10.92 3-2.74 6.18-5.14 6.22-9.8 0-1.06 1.22-2.1 1.88-3.14l1 .32v14.6l1.46.1.73-12.67 1.1-.15c.34 2.47.6 4.95 1.06 7.4a10.49 10.49 0 0 0 1.14 2.46c.76-.62 2.2-1.26 2.18-1.87a37 37 0 0 0-.9-6.84c-.55-2.68-2.22-3-4.83-2.7-2.2.24-2.86-3.84-1.1-6.88l2.65 2.1-.94-5.6-4.66-.7-.43 3.06-2.8 1.26c-4-3.8-7.4-7.56-11.32-10.67-5.23-4.14-6.42-9.67-6.66-15.76 0-1.24-.13-2.48-.2-3.7h-1.2l1 12-.94.22-1.86-7h-.53v9.83l-1 .07-1-7.5-1-.35c-.58 1.9-1.73 3.86-1.62 5.73.44 7.65 1.35 15.28 1.92 22.93a37.32 37.32 0 0 1-.36 5.79c-3.14 2.15-6 4.37-9.06 6.13-3.78 2.14-7.62 4.42-11.73 5.68-4.6 1.4-13.54 0-16.92-5.74-2.38-4-6.5-7.16-8.4-11.34-5.1-11.1-6.52-22.56-1.1-34.24 3.67-7.92 2.88-15.87.05-24.13-3-8.62-9.6-14.75-13.5-22.62-.6-1.2-1-2.5-1.48-3.76l1.08-.7a25.44 25.44 0 0 1 2.74 2.54c2.54 3.12 4.8 6.48 7.5 9.46 5.13 5.67 8.83 11.75 8.27 19.85-.34 4.9 0 9.84-.05 14.76a5.62 5.62 0 0 1-.62 2.48c-6.36 11.84-5.9 23.86-.1 35.55 2 4.08 5.92 7.25 9.34 11.3l-6.55-15.6c-3.4-8.62-2.43-17.16 1.16-25.42a56 56 0 0 0 4.29-22.89c0-7.45-3.16-13.92-8.33-19.33a41.22 41.22 0 0 0-4-4c-8.43-6.64-11.2-15.76-11.78-26-.56-9.72.13-19.23 4.6-28a31.29 31.29 0 0 1 7-9.27c8.14-7.12 15-14.83 19.13-25.2 3.13-7.76 9.62-13.05 18.35-15 5.28-1.15 10.47-2.8 15.65-4.37 6.92-2.1 10.05-7.9 13.5-13.6 2.33-3.86 3.75-8.4 8.75-10.55 3.26-1.4 5.7-4.75 8.48-7.23l.72.67c-2.22 2.53-4.18 5.36-6.7 7.53a27.34 27.34 0 0 0-9.34 14.54 5.49 5.49 0 0 1-1.42 2 73.64 73.64 0 0 1-5.35 5.8 12 12 0 0 1-4.19 2.21c-5.84 1.9-11.7 3.76-17.6 5.44-10.4 3-17.28 9.23-20.9 19.7a38.57 38.57 0 0 1-11.57 16.53c-4.3 3.7-8.8 7.47-12 12-4.73 6.7-4.26 14.8-3.7 22.67.24 3.4.2 6.9 1.13 10.1a40.45 40.45 0 0 0 5 11.5c2.8 4.1 6.72 7.4 9.95 11.22 7.12 8.4 9 18.2 6.7 28.7-1.93 8.85-4.6 17.55-6.87 26.33a8.35 8.35 0 0 0-.22 3.74c.84 3.6 1.92 7.15 3 11.1l2.8-7h1.15c-4.5 9.95-.46 17.27 6.7 23.64-2-5.13-4.46-9.9-3.9-15.9.66-6.93 5.52-9.14 9.95-12.23l1 .83c-.82 1-1.45 2.3-2.5 2.86-8.58 4.53-6.4 14.23-3.52 20.45 1.9 4.05 5.4 3.17 8.68 2.7 3.6-.53 5.75-2.66 5.45-6.4L231 243.7l-1.2-.25c-.4 1.36-1.16 2.73-1.13 4.08.15 6 .55 12.07.8 18.1.08 1.8 0 3.63 0 6.5-1-1.3-1.6-1.7-1.63-2.16-.5-6.76-.57-13.57-1.42-20.28s3.58-9.35 8-11.8c5.7-3.16 7.08-8.75 9.33-14l1.88-4.4 1.2.23-.92 8.26c3.1-4.56 3.87-9.15 4-14 .24-7.2-3.52-13.18-5.67-19.67-1.8-5.43-2.74-11.14-4.07-16.73l1.45-.37c.7 2.8 1.26 5.66 2.18 8.4 1.52 4.52 3.27 9 5 13.44 1.57 4.14 2.87 8.2 2.1 12.84-.4 2.34.44 4.9.72 7.35h1.26v-10c-.1-3.5.08-7.08-.62-10.48s-2.6-6.58-3.5-10c-.83-3.13-4.28-5.53-3.2-9.18l1.38-.46 7 20c.3.8 1.34 1.3 1.9 2.06.94 1.3 1.77 2.7 2.8 4.28 3.6-4.23-5-5.63-1.63-9.9 1 1.18 1.93 2.3 2.93 3.27a8.69 8.69 0 0 0 2.86 2.22c.6.2 1.8-.6 2.32-1.26.2-.26-.47-1.86-1-2-6.05-1.92-3.72-7.68-5.48-11.53 1.8 2.72 3.3 5.73 5.5 8.1 1.86 2 4.5 3.33 6.83 4.87a1.45 1.45 0 0 0 1.27-.35 3 3 0 0 0-.11-1.95 9.1 9.1 0 0 1-1.85-3.78l4.6 1.46c-4.3-5.53-6.64-11.64-6.14-18.52.46-6.36-.5-13 2.35-19l1.64.3-1.47 7c-1.53 6.5-2.1 13.08.67 19.3 1.62 3.62 2.28 8.4 8.3 9.64-6.94-10.82-8.37-22-5-33.7a57.49 57.49 0 0 1 4.2-10.48c-3.45 15.4-6.9 30.63 4.32 44.78a10.09 10.09 0 0 0 .91-.88c.2-.28.35-.6.66-1.17a11 11 0 0 1 1 1.15 19.21 19.21 0 0 1 1 2c0-1.83-.35-3 .06-3.7 3.4-6 1.9-11.8-.38-17.65-2.37-6.12-2.07-12.4-.5-18.62.74-2.9 2.3-5.12 5.56-4.44-.57 6.22-1.5 12.4-1.6 18.6-.08 5.9.73 11.8 1.14 17.7l1.08-.06 3-9.77.92.15a10 10 0 0 1-.31 2.08 16.38 16.38 0 0 0 .87 14.19c.5.95.2 2.35.17 3.54s-.2 2.28-.42 4.37l3.24-2.34-.34 4.36 3.8 2.14c-.92-7.36 4.58-11 8.35-15.5 7.5-8.85 10.73-19 11.6-30.42.26-3.55 2.3-7 3.52-10.44l1.24.38c-1 3.48-2 6.92-2.8 10.44a44.8 44.8 0 0 0-1 8.16 22.36 22.36 0 0 1-5.52 14.39c-.36 2.2-.12 3.92-.8 4.47-9.65 7.55-13.3 14.9-13.85 26.22-.84-1-1.38-1.78-2-2.43-3.37-3.34-6.65-6.8-10.25-9.87a6.5 6.5 0 0 0-4.7-1c-8.72 1.35-18.06.63-25.6 6.38-3.26 2.5-6.82 4.9-6.27 10.3.4 3.9-1 8-1.2 12-.4 8.12 3.72 14.33 10.25 18.1 3.9 2.25 9.16 2.1 13.8 3.06a6.35 6.35 0 0 1 3.63 2l-3.34 1.74 2.58 6.58.4-3 .92-.23 4 16.52c3-2.3 3.5-6.33 1.32-12.18-1.14-3-2.1-6.15-3.14-9.23l1.52-.8c.67.68 1.7 1.25 1.95 2 2.26 7.77 4.18 15.6 1.85 23.74-.2.7-.37 1.68-.88 2-4 2.28-8 4.43-12.1 6.6l5.23-7.5c-5.14-.93-7 2.92-9.13 4.75-1.64-.68-3-1.76-3.76-1.45a32.59 32.59 0 0 0-5.92 3.55 2 2 0 0 0 .51 1.5 1.9 1.9 0 0 0 1.63-.22c1.12-.74 2.13-1.63 3.8-3v5.4zm-35.74-47.8c-6 4.9-.6 11.28-2.45 16.66l-1 .07-1.4-13.36-4 1 2.7 28.72c2.2-.8 4.45-1.48 6.53-2.5a3.15 3.15 0 0 0 1.39-2.35 122.87 122.87 0 0 0 0-12.29c-.53-5.33-1.27-10.6-1.84-15.96zm50.84-48.73c-4.54 3-4.25 5.12.8 10 4-3.97-2.2-6.28-.86-10zm37.13-1.9c.2 5.9-4.23 9.3-7.73 12.82-2.3 2.3-2.34 4-1 7-4.46.2-2.82-4-5-5.7-1 .84-2.72 1.56-3.3 2.8-1.45 3.08-2.4 6.4-3.68 10 5 0 4.44-3.76 5-6.6l1.3.4-2.07 9.3 1.25.58 4.74-7 1.32 1.24-5.18 6.5 5.48-.88c-1.63 2-2.5 3.66-3.92 4.57-5.12 3.32-5.13 8.46-5.2 13.58a4.64 4.64 0 0 0 1.33 2.65c3.3 3.82 3.08 7.47 1.33 12.46-1.14 3.27-.2 7.25.3 11 1.06-3.93-.6-8.6 4.2-11.5 0 1.1.4 2.35-.07 2.9-3.37 4.1-1.14 8.42-1 12.74.23 6.55-.3 13.1-.5 19.67-.05 1.74 0 3.48 0 5.74l2.63-1.7-1.42 41.35c-2.37-2.76-1.36-6.6-1.34-10.32v-27.8l-1.25-.1-1.77 17.17h-.8V294.9l-1.5-.16q-.87 6.33-1.75 12.66l-1.1-.06-.66-8.38h-1.08l-.18 4.07c-5.1 1.7-5.57 2.52-4.85 8.4a9.85 9.85 0 0 1 .16 1.79l-.9 14.86a54.8 54.8 0 0 0 .27 5.57l-1.3.4c-.48-1.42-1.44-2.86-1.36-4.25.34-5.75 1.14-11.5 1.44-17.25.1-1.7-.9-3.5-2-5.13-.67 4.47-1.6 8.92-1.93 13.42s-.08 9.25-.08 13.88h-1.37v-23.6l-1.1-.23-1 3.82c-.33 1.28-.55 2.7-1 5.18l-1.43-5.47h-1.1q-1 12.18-2 24.35h-.9V318.3l-1.37-.1-1.93 15.38-.68.1v-13.15h-1.6q-1 11.4-2.06 22.8l-.75-.05v-19.85h-1.4q-.87 11.52-1.75 23.05h-1.1v-17.54l-1.66-.07-1.23 20.75-1-.05v-19.2l-1-.16-2.14 5.7-.5-3.9-1.14-.06-2.24 28.36c-3.1-3.07-3.2-6.16-1.63-9.72.4-.9-.82-2.4-.8-3.6a30.34 30.34 0 0 1 .82-4.85l1.85-10.53c.07-.48-.43-1.06-1-2.35l-3.24 4.44-1.27-3.37c-3.08 2-3.08 2-1.1 16.52.58.72 1.74 1.52 1.66 2.16-.6 4.6-1.42 9.18-2.23 13.75-.07.4-.5.73-1.1 1.55l-.52-4.13-.94-.1q-.5 6.58-1 13.17h-1.25v-10.2l-1.32-.1q-.57 7-1.16 13.95h-1v-11.5l-1.58-.1q-.7 8.15-1.4 16.3l-1 .08-1.1-5-1.06-.07-.74 9.3-.93.05-.66-4.77h-.56l-1.47 10.52h-1.1q-.4-4.56-.83-9.12l-.36-.05q-.85 6.93-1.7 13.87l-.9-.05v-11.6l-1.27-.08q-.72 8-1.43 16l-1.2-.08 1-19.36c-3.52 8.83-2.8 18-3.42 26.87l-1.38-.12v-20l-.77-.1q-1.24 12.8-2.47 25.6h-1.07v-13.22l-1.1-.15q-.65 5.65-1.28 11.3l-.75.14-1.15-5.58-1.67 14.75h-.85v-9.26l-1.44-.12q-.94 12.33-1.88 24.65h-1.53v-15h-1.48l-1.36 8.5-.78-.05v-12l-1-.08c-3.55 10.95-1 22.57-3.07 33.73-2-10.88.4-21.78-.93-32.67-3.1 16.17-2.35 32.68-2.75 49.1l-1.06-.07V419.6l-.13.15c2-2.78 3.48-5.58 1.65-9.14-.46-.9-.2-2.18-.2-3.28q.08-6.76.2-13.54a5.77 5.77 0 0 1 .86-3.22c3.74 6.22-1.36 13.16 1.6 20.25a23.94 23.94 0 0 0 3.25-13.3c-.23-4.37-.5-8.74-.32-13.14 4.68 6.9.45 14.43 2.37 22 .68-1.58 1.85-3.12 2-4.74.4-6.15.48-12.32.7-18.48 0-1.4.15-2.8.23-4.2h1.42v22.17l1.67.05c2.32-8.62 2.4-17.52 1.64-26.52l1.7.07v20.73l1.45.06c3.94-7.33 2.1-15.53 2.4-23.4h1.36l.84 15.62c4.17-5.77 2.6-12.45 4.53-18.6v12.66c4.75-7.37 2.75-15.5 3-23.32h1.2l.9 18.85 1 .1c2.6-6 1.2-12.85 3.8-19.27a10 10 0 0 1 .71 2.85c-.26 4.7-.66 9.4-1 14.1l1.28.16q1.14-5.88 2.3-11.76l.56.05.6 4.83c3-2.86 3.4-6 3.5-9.4s.47-6.6.73-9.9h1.1v14.32l1.4.1a52.51 52.51 0 0 0 2.46-19.92l1.3.1v12.5l1.62.24c.7-2.76 1.84-5.5 2-8.3.28-4.76-.06-9.55-.12-14.32 0-2.23-.85-3.5-3.12-4.52a22.9 22.9 0 0 1-7.17-5.3c-4.5-4.9-3-10.73 3-13.43l17.48-8a11 11 0 0 1 1.92-.49l.4.93c-4.83 2.52-9.6 5.17-14.52 7.5-4.3 2.05-6.63 4.28-6.92 7.15a28.48 28.48 0 0 0 5.24-1.14c4.24-1.76 8.84-3.15 12.44-5.85 6.6-4.92 12.5-10.73 18.8-16.07a39 39 0 0 1 7.29-5.3c10.67-5.42 14.67-14.2 12.8-25.62-1-6.3-3-12.48-4.6-18.68-1.4-5.35-2.86-10.7-4.5-16a80.44 80.44 0 0 0-3.2-7.48 15.45 15.45 0 0 0-.7-1.67c-.66-1.17-1.38-2.3-2.07-3.44-.68.8-1.2 1.92-2.07 2.35a19 19 0 0 1-4.55 1.34c-1.7.34-3.45.5-5.38.77l-1-2.42c-5.1 3.66-3.16 9.22-4.27 13.66-1.35 5.4 2.68 9 6.58 12.9-1.26.06-1.9.28-2.38.08-7.43-3-10.18-9.83-7.47-17.3 1-2.77.74-6 1.56-8.85.44-1.54 1.68-3.55 3-4 4.6-1.58 9.38-3.2 14.17-3.55 3.22-.24 6.07 2.34 7 5.87 1.68 6.33 3 12.76 4.84 19 2.35 8 5.88 15.68 7.38 23.78 1.2 6.4.2 13.24-.1 19.87 0 1-1.32 2.1-2.27 2.82l-17 12.58c-6.07 4.8-11.85 10.13-18.07 14.8-5.15 3.86-10.22 8-16.52 10-.84.28-2.1 1.24-2.07 1.8a4.29 4.29 0 0 0 1.65 2.72c6.13 4.45 15.26 3.78 20.92-1.27 6.53-5.82 12.95-11.8 19.8-17.2s14.3-10 21.2-15.37c1.53-1.2 2.53-4 2.52-6.08 0-7.12-.58-14.25-1.05-21.37-.34-5.14-.6-10.3-1.4-15.4-1.62-10.4-3.58-20.76-5.38-31.14-.1-.6-.37-1.33-.14-1.8 2.93-5.9 5.7-11.88 9.06-17.52 1.23-2.07 3.9-3.27 5.9-4.86-1.38 2.45-5 3.7-4 7.76 1.8-.93 3.63-1.53 5-2.66a5.1 5.1 0 0 0 1.51-3.43c0-.5-1.68-1.06-2.6-1.6l8.95-5.67zm-120 222.3c-3.37 3.4-3.48 6.12-.67 8.64l.68-8.66zm92.9-397.13l-2.6-1.46 9.07-6.32a18.23 18.23 0 0 0-2.87-.39L276.8 5.33c-8 .46-16 1-24 1.87-3.43.36-7.47.7-10 2.64-6.17 4.73-13.93 4.83-20.55 8.17-3.22 1.6-7.57.85-11.37 1.43-9.4 1.45-18.57 3.66-27.3 7.75a39.86 39.86 0 0 1-13 3.36c-13 1.2-24.05 6.94-34.7 13.7-4.62 2.92-8.66 6.74-13 10.1A16.58 16.58 0 0 1 120 56c-9 4.4-17.15 9.9-23.53 17.8-5.24 6.48-8.5 13.92-11.12 21.74-1.1 3.3-2.7 6.45-4.08 9.66-.6 1.38-1.3 2.7-1.8 4.12-.42 1.18-.36 2.62-1 3.62a43 43 0 0 1-3.8 4.55c-.2-1.82-1-3.83-.46-5.43 2.4-7.55 5.3-14.93 7.73-22.46 3.63-11.27 11.22-19.65 20-26.9 6-4.94 13.3-8.34 19-13.5 6.5-5.83 13.8-10 21.4-13.9A119.93 119.93 0 0 1 170 25.57c7.2-1.7 14.17-4.3 21.32-6.17 6.2-1.63 12.53-2.75 18.8-4.18l13.2-3.2c3.3-.72 6.73-.9 10-1.82 3.57-1 7-2.7 10.47-4 4.24-1.54 8.43-3.38 12.8-4.32 3.83-.82 7.9-.6 11.85-.8l20.72-.94a228.82 228.82 0 0 1 23 .2c4.07.33 8 2.43 13.13 4.1C322.93 6 321.7 7 320.36 7.7l-22.68 12.55c-5.82 3.45-11.67 5.46-18.6 4.62a135.3 135.3 0 0 0-18.35-.66c-2.54 0-5.05 1.17-7.58 1.78-10.76 2.58-20.23 6.9-27.06 16.37-3.77 5.2-9 9.34-14 14.37-.5.86-1.1 2.7-2.33 3.77-5.52 4.73-11.38 9.06-16.83 13.87A53.91 53.91 0 0 0 180.19 92c-1.6 3.4-1.95 7.54-2.15 11.4s.7 7.46.8 11.2a19.87 19.87 0 0 1-1 5.55c-3.4 12.45-3 24.92-.42 37.43 1 4.85 2.05 9.7 2.8 14.6-4.9-7.14-6.77-15.17-7.92-23.54-1.43-10.42 1.5-20.48 2-30.73.17-3.26.1-6.54 0-9.82-.23-11.9 3.08-22.4 12.24-30.5l19.96-17.2 2.53-2.2c-7.64-1.56-13.54.42-19.6 3.62-12.9 6.78-19.63 18.18-24.7 31.12a13 13 0 0 1-3.48 4.67c-3.1 2.75-5.64 5.6-6 10.06-.1 1.6-1.32 3.15-2.14 5-3.83-2.63-4.08-6-3.58-10l2.7 6.2 3.27-10.3c.23-.68.6-1.7 1.1-1.85 5.44-1.48 5.68-6.5 7.4-10.54 3.8-8.93 8.94-17 16.5-23.14 6.7-5.4 15.15-7.2 23.4-8.8 8.77-1.72 15.6-5.77 20.25-13.63 5.36-9.06 13.74-14.4 23.84-16.28a141.51 141.51 0 0 1 23.82-2c11.14-.26 21.94-.68 30.37-10.14zm12.24-4.43l-.53-1.3-9.18 4.07.84 1.8zM168.23 220.12c-5.28 2.65-9.36 2.18-11.06-1.2l2.83-1.45c-.15-.34-.22-.87-.45-1-5-1.87-9.28-4.4-10.55-10.17-.12-.56-1.05-1.42-1.52-1.37-4.24.5-5-2.78-6.58-5.5-1.77-3.1-4-5.94-6-8.9-3.58 3.22-8.52 1-10.82-4.53a25.6 25.6 0 0 0-4.9-.3c-1.37.17-2.63 1.06-4 1.46-2 .6-4 1.5-5.94 1.4A93.17 93.17 0 0 1 98.87 187l-.47 3.28-4.56 2.26.28.8-4.7-.5-.32.88 4.9 2.57-.38.92-4.17-.9-.65.9a29.53 29.53 0 0 0 4.86 2.52c.6.18 1.62-1 3.3-2.18 7.8-1.7 12.5 5.12 18.27 9.76s11 9.95 18.56 11.85a14.08 14.08 0 0 1 5 2.72c1.07.84 2.3 2.23 2.34 3.4 0 .9-1.65 2.6-2.67 2.67-5.7.48-7.95 6-12.5 8.1-1.5.68-2.76 2-4.28 2.56-.6.23-2.35-.64-2.36-1 0-1.1.26-2.68 1-3.24 1.32-1 3.1-1.32 6-2.44-1.77-.56-2.8-1.3-3.38-1-6.75 3.2-13.73 5.56-21.28 5.45a4.51 4.51 0 0 1-3.37-2.26 28.59 28.59 0 0 1-1.2-6.71c-.47-3.73-1.08-7.47-1.2-11.22-.08-2.42-.1-4.32-3.2-4.27a3.9 3.9 0 0 1-1.81-.52c-2.7-1.5-4.7-.82-6.4 1.72a48.4 48.4 0 0 1-4 4.54l-2-4.23-.92-.12-.77 6.7c-.2 2.24.64 4.7-2.32 6.23-.7.36-.23 3.34 0 5.07.2 1.27 1.58 2.62 1.32 3.65-.33 1.33-1.8 2.37-2.76 3.53-.82-.9-2.08-1.7-2.4-2.76-2-6.86-.7-16.83 3-23.7l1.23 2.1 1.06-.2a41.35 41.35 0 0 0-.88-6.23c-2-6.75-4.24-13.45-6.38-20.17-1-3 .22-4.5 3.24-4.8v7.07l4.62-11.23 1.36.27a9.76 9.76 0 0 1 0 2.48c-.2.7-.9 1.23-1.2 1.9-.95 2.14-2.8 4.6-.23 6.48 2.4 1.76 4.44-.1 6.3-1.78s4.07-3 5.73-4.9c3.58-4 7.86-3.77 12.16-2.1 6.58 2.54 12.66 2.53 18.58-1.76a4.82 4.82 0 0 1 4.17-.31c3.78 2 7.24 4.52 11 6.54 6.27 3.36 9.35 9.72 14.05 14.54 2 2.05 3.44 4.6 5.25 6.84.5.6 1.53.77 2.13 1.34l12.4 11.95zm-34.35 4.48c-1.9-3.1-5.9 2.15-8.13-2.23l5-.45-16.4-10.82c-4.34-2.87-8.5-6.1-13-8.57-4-2.18-5.46-1.26-7.48 3.63l7.66 3.57c2.84 1.32 5.92 2.3 8.5 4 4.48 3 8.66 6.44 13 9.68 2.92 2.3 8.3 2.84 10.86 1.2zm-30.7-5.78h1.42c.24 3.3.4 6.62.77 9.9.12 1 .8 2.76 1.35 2.8a21.4 21.4 0 0 0 14.7-3.9c-2.64-2.5-4.66-5.06-7.27-6.7-3.72-2.32-6.88-6.67-12.42-4.78l1.5 8.68.48-.1zM83.7 205.3l2.78-.7c-3.8-1.25-3.3-7.8-8.1-7.6l-.93 1.06zm311.86-93.62l5.8 23.9a73.78 73.78 0 0 0 6 15.27c2.5 4.74 2.5 10.9 3.1 16.5 1.14 10.7-3.25 20.55-5.17 30.8-.2 1.07-.35 2.14-.53 3.22.3.2.6.43.9.65 1.5-1.63 3.4-3.05 4.38-4.94s1.15-4.4 2.45-6.7l.83 5.77c1-3.14.9-6.5 4.63-9.65.33 5.6 1.88 10.63.6 14.76-2 6.42-1.47 12.93-2.7 19.3-1 5-.22 10.4-3.3 14.93-.42.6-.8 1.26-1.24 1.85-.1.13-.46.06-1.22.13l4.08-20.3c-2.14 3-5.25 4.75-5.75 9.2s-3.75 8.82-5.92 13.15c-.85 1.7-3.28 3-.36 4.9l-7 3.78c-1-2.83-.23-4.6 2.25-7 4.3-4.14 7.9-9.2 7.7-15.8a10.48 10.48 0 0 0-.5-2.17c-.77.65-1.86 1.15-2.27 2-1.3 2.6-2.06 5.5-3.52 8s-3.5 4.48-5.2 6.78c-1.22 1.67-2.27 3.48-3.53 5.44l2.86 1-1.78 5.88c-2.6-4.36-1.65-11.78 2.33-15.47s6.12-7.44 5.5-12.77c-.08-.6.2-1.42-.1-1.83-3.4-4.7-1.7-9.47-.17-14.12l9.1-26.25c.78-2.42.5-5.2.58-7.83.26-7.9-1.43-15.35-4.2-22.82-4.44-12-8.24-24.25-8.95-37.18a14.75 14.75 0 0 1 .32-2.35zm7.2 102.54h.73l1.5 3.88c3-4-.38-10.5 5.87-12.4v-6.82c-3.5 4.76-3.5 4.75-8.7 7a3.29 3.29 0 0 0-1.12.91c-2.5 3.07-1.94 12.34 1.1 15.32l.6-7.9zm12.17-13.1c-1.57 3.4-2.22 6.3-3.95 8.23-3.43 3.87-5.16 8.58-3.7 14.17l1.85-11.3 2.64 3.85c.96-5.37 5.2-8.88 3.15-14.96zm-130.2 418.8a13.35 13.35 0 0 0 2.71-2.61l10.1-10.68c2.26-2.3 5-4.2 7-6.65 5.43-6.53 10.26-13.6 16-19.83 7.68-8.34 16-16.1 24-24.1 2-2 3.67-4.6 6-5.95 7.14-4.06 13.85-8.8 21.3-12.46 13.66-6.74 27.34-13.16 42-17.5 1.75-.52 3.1-2.3 4.66-3.5l-.77-1.44c-6.07 1.87-12.36 3.24-18.16 5.73-10.14 4.37-20 9.37-29.93 14.2s-20.22 9.7-28 18.15l-26 28.36-19.53 22c-5.13 5.5-10.66 10.65-16.07 15.9-4 3.9-8.46 7.43-12.17 11.6-1.05 1.17-2.06 2.4-3.05 3.62h3.37c4.9-5.6 9.93-11.02 16.54-14.85zM265 634.8l-3.17 4.08h3.12l3.42-4.08zm-3.2 4.1l-5.53 7.4a25.43 25.43 0 0 0-1.71 3.36 7.48 7.48 0 0 0 1.55-.8l2.3-2.5 6.5-7.45zm-100.24-36.42c1.4-3.35 3-6.65 4.45-10-1 0-1.37.33-1.57.74-4.63 9.6-9.7 19-13.78 28.82l-5.2 12.74h2.58l13.5-32.3z"/><path d="M145.47 634.8l-1.64 4.08h2.53l.07-.2 1.62-3.9z"/><path d="M136.15 664.65l10.2-25.76h-2.53M298.46 37.8c-1.3 1.12-2.48 3-3.94 3.23a36.31 36.31 0 0 1-10.5.51 40.13 40.13 0 0 0-24.33 4.55c-4.25 2.24-9.34 2.84-14 4.44a14 14 0 0 0-5.26 3.09C234.48 59.7 229 66.26 222.7 72c-3.73 3.45-8.58 5.64-12.75 8.65-10 7.23-16.54 17.07-20.34 28.66-2.86 8.7-5.14 17.57-7.72 26.34-.45 1.53-1.17 3-1.76 4.46l-1.15-.08c0-1.26-.3-2.62 0-3.76 3-9.57 6.56-19 9.14-28.67 3-11.4 10.7-19.66 17.87-28.3a11.88 11.88 0 0 1 4.37-2.83c6.27-2.77 11.8-6.26 15.82-12.15a54.41 54.41 0 0 1 9.88-10.84 35.4 35.4 0 0 1 11.25-6.58c4.6-1.52 9.42-1.84 13.62-5 4.7-3.53 10.68-3.17 16.34-3.48 6.8-.38 13.6-1 20.4-1.53zm67.26 140.56c1.44-3.64 2.74-7.36 4.37-10.92 2.5-5.5 3.1-11.37 2.93-17.16-.3-10.37-1.23-20.72-2.17-31-.18-2-1.62-3.8-2.48-5.7l-1.28.14c-.2 5.34.23 10.8-.8 16-1 5-.17 11-5.54 15.25a7.49 7.49 0 0 1 0-1.76c4.54-11.57 3.9-23.72 3.3-35.7-.26-5.28-3.05-10.43-4.58-15.67a5.72 5.72 0 0 1 0-3.2c1.7-5.13 3.78-10.14 5.27-15.32a60.5 60.5 0 0 0 1.82-27.6c-.33-1.87-.55-3.77-.83-5.66l1-.3a15.42 15.42 0 0 1 1.45 2.71c2.55 8.4 2.26 17 1 25.46a77.61 77.61 0 0 1-5.42 18c-2.27 5.42-.8 10.23 1 15 2 5.18 3 11 8.16 14.55a3.78 3.78 0 0 1 1 2.65l1.3 23.58a70.36 70.36 0 0 1-.65 7.48c-.15 2.15-2.72 4.76 1.6 6.06 1.63.5.8 4.18-.8 5.52a5.45 5.45 0 0 0-1.27 2.87c-1.3 5.65-3.22 11.08-8.4 14.72zm-8.4 93.22l1.9 2.55 11.34-9.25.66.46-11.53 13.55-.26-.4c-1.64 1.34-3.66 2.4-4.85 4.07-4.15 5.78-5.5 12.2-5 19.44.33 4.4-1.48 8.92-2 13.42s-.67 9.2-1.08 13.8a23.86 23.86 0 0 1-.82 3.49l-1.53-.2 1.72-26.76-1.6-.22q-1.25 6.7-2.47 13.42l-1.26-.1 1.17-13.68c.08-1 .5-2.07.16-2.84a3.46 3.46 0 0 0-2.2-1.6c-.33-.08-1.34 1.12-1.42 1.8-.33 2.87-.43 5.77-.6 8.66l-.75 12.33-1.4-.1 1.74-35.8.52.15L343 302l1.78-.27c.06-1.27.45-2.64.1-3.8-2.14-7.37-2.32-14.34 1.8-21.35 1.68-2.86 1.6-6.75 2.8-10.15l.85 4.62.7.06 1.43-5.75 1.17.28c-1.15 4.38-2 8.87-3.58 13.1-1 2.65-3.15 4.83-4.57 7.33-1.9 3.34-1.14 6.65.3 10.38l11.55-24.87z"/><path d="M256.52 194.87c-.85-3.38-1.82-5.8-2-8.3-.7-8.1-2.4-16.08-1-24.43.88-5.43-.38-11.22-.85-16.84a46.44 46.44 0 0 1 4.92-25.18c3.45-6.8 8.55-12.75 12.28-19.43 2.1-3.76 4.13-7.7 3.57-12.67-.27-2.36 2.16-5.13 3.7-7.5.3-.47 2.17.07 3.32.14-.45 1-.68 2.5-1.4 2.8-2.37 1-3 2.54-3.24 5-.82 9.54-4.68 17.66-10.82 25.2a42.14 42.14 0 0 0-9.91 27.49c.07 4.4.54 8.76.78 13.14.22 3.86.46 7.72.52 11.58l.12 20.36.01 8.63zm21.56-53.75c2.24-2.8 4.56-5.57 6.7-8.46 1.8-2.4 3.92-4.76 5-7.5 2.7-6.93 6.53-13.32 6.56-21.4a49.72 49.72 0 0 0-2-15.77c-1.4-4.44-1.37-8.94 1.75-12.93 2.9-3.74 5.62-7.65 8.64-11.3 4.38-5.3 8-10.94 9.12-17.9a3.38 3.38 0 0 1 1.83-2.28 6.44 6.44 0 0 1 .11 2.49c-2.73 6.83-4.8 13.9-9.9 19.7-4.17 4.76-9.4 9.68-8.55 17 .53 4.72 1.9 9.34 2.67 14a17.31 17.31 0 0 1 0 5.7c-.68 4-1 8.13-2.63 11.72-3.82 8.57-8.3 16.85-12.7 25.64l-1.33-1.58L278 141zm-65.93 466.2c2.95-3.6 6.13-7 9.2-10.55a76.85 76.85 0 0 0-14.16 11.84c-6.68 7.5-12.9 15.4-19.12 23.3l-2.25 2.9h4.1c7.08-9.38 14.76-18.37 22.23-27.5z"/><path d="M185.83 634.8l-3.15 4.08h4.18l1.86-2.5 1.2-1.57zm1.03 4.1h-4.18c-2.54 3.36-5 6.77-7.37 10.26M74.35 297l21.4 25.54c1.54-2 2.5-4 4.1-5.23 2-1.47 4.15-1.36 5 1.62.93 3.46 1.84 6.94 2.53 10.46.18.93-.5 2-.94 3.56l-3-2.75a21.36 21.36 0 0 1 .81 4.93c-.07 1-1.16 1.87-1.8 2.8a10.66 10.66 0 0 1-2-2.26c-1.76-3.87-3.35-7.82-5.07-11.72-.17-.38-.77-.56-1.17-.86-2.85-2.13-6-4-8.48-6.47a129.09 129.09 0 0 1-9-10.75 5.55 5.55 0 0 1-1.13-2.65c-.3-2.14-.35-4.3-.5-6.46zm251.1-240l-3.72 10a13.57 13.57 0 0 0-.94 2.8l-2.6 20.5a41.59 41.59 0 0 0 .12 7.14 32.35 32.35 0 0 1-7.07 22.78c-5.7 7.4-11.86 14.74-12.75 24.76-.12 1.36-1.44 2.8-2.55 3.8-.38.34-2.1-.3-2.74-.95-.4-.42-.14-1.83.26-2.56 1.5-2.83 3.17-5.57 4.82-8.3 3.35-5.6 6.57-11.26 10.13-16.7 4.5-6.88 8.48-14.08 7-22.48-1.12-6.25 1.3-11.53 2.37-17.24a54.45 54.45 0 0 0 .59-10.69c-.07-5.54 2.43-9.66 6-13.3z"/><path d="M148.3 100.78c-.8-4.23-2.13-8.43-2.3-12.68a51.69 51.69 0 0 1 1.33-13.87 22.62 22.62 0 0 1 4.75-9.2c8.13-9.4 17.47-17.36 29.74-20.85 4.4-1.24 9-1.72 13.5-2.55l.67 1.44c-1.24.75-2.4 1.86-3.73 2.2-4.5 1.1-9.45 1.15-13.57 3a84.16 84.16 0 0 0-15.5 9.7c-8.88 6.73-12.16 17.1-15.5 27-1.13 3.36.8 7.76 1.36 11.67.18 1.3.48 2.6.72 3.9zm157.98 86.3l3.4-8.65a27.43 27.43 0 0 0 .74-3.54 24.9 24.9 0 0 0 .66-2.5 18.43 18.43 0 0 0 .19-4.06c-.2-1.67-1.4-3.58-.92-4.92 1.6-4.27.58-8.4.44-12.66-.13-3.95.66-7.95 1.3-11.9.17-1.06 1.34-2 2.43-2.8-1.14 6.54-2.88 12.95-1 19.76 3.18-7.47 5.27-15.55 12.64-20.06l1.1.74a27.1 27.1 0 0 1-2.6 3.54c-8 7.87-11 17.46-9.8 28.42.9 7.9-3.13 13.53-7.45 19.15zM240.4 634.8a8.67 8.67 0 0 0-1.88 4.08h3.24a5.34 5.34 0 0 1 2.53-4.08z"/><path d="M245.9 633.82c2.84-1.46 6.1-2.9 8-5.32 3.44-4.5 7.08-8.38 12.62-10.1.07 0 .1-.22.25-.66-5.23 1.17-10.82 1.08-13.2 7.15-1.52 3.87-4.72 5.47-8.42 6.8a10.63 10.63 0 0 0-4.69 3.13h3.9a11.66 11.66 0 0 1 1.56-.99zm-4.13 5.08h-3.24a12.86 12.86 0 0 0 0 3.93c.35 2.53-.86 3.72-2.87 4-4.73.77-5.68 4.2-6.5 8.1a13.23 13.23 0 0 1-2.42 4.79 22.75 22.75 0 0 1-3.53 3.19c5.76.34 9.4-2.93 9-7.82a5.69 5.69 0 0 1 3.07-6 18.51 18.51 0 0 1 5.11-2.42c3.16-.68 3-2.25 2.05-4.67a7.48 7.48 0 0 1-.67-3.09zm84.9-308.9v-45.76c4.22.05 6.5-3.16 5.47-8-.7-3.34-2.54-6.42-3.64-9.7a8.5 8.5 0 0 1 0-4.77c2.44 6.9 8.52 12.86 5.35 21.06-.65 1.7-.24 4-3.28 4.15-.73 0-1.88 2.43-2 3.78l-1.24 31.6c-.1 2.53 0 5.07 0 7.6zm14.8-229.38c-.57-4.88.22-10.52-2-14.5-4.77-8.62-4.24-17.1-2.27-25.93 1.2-5.43 2.8-10.76 4.22-16.14l1.75.47c-1.05 3.7-2.33 7.37-3.1 11.14-1.53 7.6-3.4 15 .56 22.77 2.3 4.5 3.34 9.75 4.2 14.8.46 2.7.3 6.14-3.42 7.4zm38.43 94.12c-.82 6.7-1.66 13.45-6.43 18.86-3.88 4.4-7.4 9.32-12 12.87-5.66 4.4-12.25 7.6-18.4 11.4a31.64 31.64 0 0 0-3.43 2.71 37.76 37.76 0 0 1-4.29 3.25c3.47-7.3 10.48-10.07 16.76-14 5.65-3.54 10.64-8.2 15.63-12.7a38.4 38.4 0 0 0 6.43-7.91 27.45 27.45 0 0 0 2.67-6.91c.78-2.57 1.3-5.23 1.9-7.86zM135 240.16c-.13 1.06.08 2.35-.45 3.15-4.32 6.47-7.66 14.12-17 14.9-2.25.18-4.5.94-6.7.78-1.06-.08-2-1.67-3-2.58a11 11 0 0 1 2.75-1.81c3.88-1.1 8-1.62 11.67-3.13 2.18-.9 3.88-3.13 5.6-5 2.08-2.23 3.93-4.66 5.88-7zM392.7 71.6c.13 1.52.72 3.17.33 4.53-2.5 8.64-4.1 17.47-3.53 26.4.4 6.44 2.32 12.8 3.6 19.2l1.5 7.32c-8.1-7.32-9.9-47.73-1.9-57.43zM244.83 18.7c-.65.6-1.2 1.5-2 1.7-3.84 1.06-7.77 1.84-11.62 2.92-7.4 2.08-14.68 4.53-20.22 10.3-1.92 2-3.62 4.22-5.63 6.12-.9.86-2.34 1.17-3.53 1.73l-1-1.42c5.74-5.2 11-11.06 17.34-15.37 7.72-5.25 17.52-4.15 26.06-7.28zm77.6 187.48a28 28 0 0 1 3.84-1.86c2.33-.65 3.3-2.25 4.66-4.2a20.24 20.24 0 0 1 8.62-6.89c8-3.16 13-8.56 14.95-16.85a4.88 4.88 0 0 1 2-2.73 8.71 8.71 0 0 1 .16 2.76c-2.4 8.6-6.9 15.54-15.37 19.32a18.25 18.25 0 0 0-9.13 8.55c-1.8 3.45-4 3.8-9.73 1.9zm38.73-20.88c-2.86 5.63-4.4 12.9-8.9 16.5-6.3 5.1-12.84 11-21.55 12.46a7.52 7.52 0 0 1-3.9-.22c7.85-1.6 14.32-5.86 19.6-11.12s9.22-12 13.74-18.15zm-13-155.45a35.88 35.88 0 0 1-11-8.39c-2.37-2.64-6.14-5.77-9.15-5.64-3.25.15-4.75-1.17-6.76-2.6-.17-.12-.18-.45-.27-.68 2.64-3.5 3.32-3.48 6.54-1.1s6.7 4 9.66 6.48c4.1 3.44 9.3 5.97 10.98 11.92zM345.5 216.1c-3 4.8-8 8.26-14.07 10.4-7.13 2.5-9.8 8.5-11.37 15.23a29.06 29.06 0 0 1-1.58 5.22c-.2-7.3-.52-14.74 6.33-19.65 2.08-1.5 4.64-2.3 6.92-3.55l13.77-7.64zm-4-42.32l16.2-22.6c.66 6.8-8.36 20.36-16.2 22.6zm31.26-76.23c-2.4.92-2.73-.82-2.54-2.34.7-5.56 1.3-11.16 2.57-16.6.8-3.5 2.7-6.72 4.36-9.84q-2.2 14.4-4.4 28.8zM322.2 311.3V276l.93-.37c.65 1.48 1.87 3 1.84 4.44-.12 7.6-.53 15.22-.9 22.82-.14 2.84-.46 5.68-.7 8.5zm46.54-119.55c-1 9.72-10.53 27.6-21.14 30.46a63.84 63.84 0 0 0 21.14-30.46z"/><path d="M372.76 97.56c2.3 4.92 4.9 9.74 6.87 14.8 1.85 4.77 3.07 9.8 4.56 14.7l-1.3.46a6 6 0 0 1-.84-1.26l-5-15.12c-.12-.35-.14-.9-.38-1-5.77-2.8-3.22-8.2-3.92-12.58zm15.72 56.98c2.9 3.1 5.43 17.25 4.5 23.65-2.92-4.62-4.9-14.8-4.5-23.65zM273 17.7l-9.33.23c-3.95.18-7.9.47-11.84.75-.74.06-1.54.6-2.18.43a11.49 11.49 0 0 1-2.56-1.45c.75-.5 1.47-1.36 2.25-1.4 5.38-.33 10.77-.5 16.16-.68 2.44-.08 4.88 0 7.32 0zm94 226.2l-6.86 3.72 5.75 3.1-.7 1.38-7.54-3.4v13.92c-5.66-9.07-1.4-17.26 9.34-18.73zm-32.25 9.26c1.05 4.6 1.38 9 4.8 12.92 2 2.3 2.33 6.23 3 9.5.2 1-.85 2.17-1 2.57l-6.68-14.74a11.23 11.23 0 0 1-.11-10.26zM301 170.77a49.28 49.28 0 0 1 2.15-4.93c2.13-3.78 2.43-7.64 2-12-.52-4.7-.05-9.52.23-14.27a4.62 4.62 0 0 1 2.43-3.29c-.17 1-.26 2-.5 3a45.16 45.16 0 0 0-.92 14.91c.38 4.62-.75 9.4-1.55 14.07-.2 1.2-1.64 2.2-2.52 3.28zm17.88-149.42c-.35.6-.6 1.57-1.06 1.7-4.76 1.22-7.8 4.92-11.5 7.64-.7.5-1.8.46-2.7.67 0-1-.44-2.64.06-3 2.85-2.2 4.28-6.62 9.35-5.54 1.55.33 3.52-1.33 5.3-2.07zM234.15 227a57.51 57.51 0 0 1-16.46 17.19l-.9-.83q8.1-8.6 16.2-17.24zm85.6-205.92l10.82-1.22c2.15 1.66.86 5 .7 8l-12-5.8zm97.6 136c-2-10.47-7.05-20.23-6.3-31.3q3.76 15.5 7.54 31zm-112.6 397.55l27.7-8.38.58.7c-.75.75-1.38 1.9-2.28 2.17l-24.4 7a3.19 3.19 0 0 1-1.09-.1zm72.68-401.77l3.05-24.57h.95l.34 8.3c-.18 3.84-.87 7.65-1 11.5-.16 2.63-.57 4.67-3.34 4.8zm16.2 29.14v21.5l-1.82.2c-.37-1.73-1.13-3.47-1-5.16.28-4.6.92-9.15 1.44-13.7.1-.94.32-1.87.5-2.8zm-41.5-122.17l-3.86-21.46 1.76-1.1c2.3 1.88 3.97 17.73 2.1 22.56zm29.1 35.63a42.45 42.45 0 0 1 1.29-23.52l1.4.13zM278 603.2l-24.6 7.38-.52-1.66 24.5-7.3zm102.44-336.97c1.33 6.34-1.66 13.43-7.28 14.5 1.16-2.1 2-3.5 2.7-4.94.85-1.78 1.64-3.6 2.32-5.45.53-1.45.85-3 1.26-4.45zm-14.34-10.47c-.4-7.7 8-6 10.2-10.76-.7 6.2-4.68 9.16-10.2 10.76zm-24.67-155.14c.3 1.06 1.15 2.3.86 3.15-2 6.1-4.24 12.12-6.4 18.17l-1.67-.6q3.65-10.35 7.27-20.7l-.05-.02zm-9.83 229.7v-29.16h1.77q-.78 14.52-1.55 29zM106.36 260.2L97 254.9c1.84-3.1 4.3-2.33 6.32-1.4 2.42 1.13 5.08 2.58 3.04 6.72zM244.8 35.48l-16.17 11.5c2.36-5.7 10.48-11.76 16.17-11.5zm111.63 100.25l-3.33 19.53-1.35-.2.77-6.22c.15-2.34-.24-4.75.2-7s1.57-4.13 2.4-6.18zm-72.87 439.15c4.83-4.35 11.46-3.82 17-6.26l.52 1.38-16.92 6.15zM392 209l-1.63 14.53-3.47-2.75 1.85-4.36c.32-1 .7-2.25.3-3-1.4-2.78.15-3.6 2.95-4.42zm-144.9 35.7c3.36 5.77 2.33 11.94 2.43 18l-1.3.1q-.55-9.05-1.12-18.1zm84.53-212.36c3 5.6 1.88 11.9-1.8 13.6l1.8-13.6zM278 141l-3.32 11.62c-.13.4-1.2.52-1.84.76-.32-.85-1.16-2-.87-2.5 1.9-3.34 4.07-6.53 6.14-9.78a.9.9 0 0 0-.11-.1zm25.6 181l.87-16.9c2.45 3.7 2.2 12.4.12 17.05zm82.3-188q1.5 9 3 18l-1.5.25q-1.4-9-2.8-18zm-7.08 54.16q-.76-10.5-1.55-21l1.26-.1L380.3 188zM173 419.4c-.34-.5-1-1-1-1.54l1.4-17 1.1-.1a26.81 26.81 0 0 1 .37 5c-.5 4.56-1.25 9.1-1.9 13.64zm156.34-232.32c-1.32-4.6 1.4-7.63 4.33-10.4.6-.58 2.14-.18 3.24-.23l-1.9 2.26c-1.26 1.62-2.55 3.23-3.74 4.9-.77 1.06-1.38 2.24-2 3.36zM383.6 278c1.17 5-.87 7.86-7.18 10.72zm-64.2-20.83l1.7 14.64c.06.64-.8 1.36-2 1.74v-16.4zm-76.9-58.1c4 5.5 3.58 11.95 3.42 18.33zm44.25 388.84L269 594.17l-.44-1.16 17.74-6.37zM351 106.44q1.8 7.25 3.62 14.5l-1.52.38q-1.86-7.28-3.73-14.57zM224.32 270c-1.6-5.48-3.84-10.9-2.45-16.65l1-.1q.7 8.4 1.45 16.74zm123.44-18.65l1.75 10.42c-3-1.16-6.12-1.3-3.35-5.3.86-1.26.4-3.43.55-5.2zm71.16-87.25l-.8 6.8a9.55 9.55 0 0 1-1.63 2.65c-.57-.38-1.58-.7-1.63-1.15a6.12 6.12 0 0 1 .4-3.41 40.84 40.84 0 0 1 3.65-4.88zM323 316v14.6c-2.4-2.6-2.48-8.6 0-14.6zm-10.33 14.1v-15l.5-.05q.5 7.47 1 14.93zm73.23-212.92q-1.54-5.55-3.1-11.08l1.17-.33a16 16 0 0 1 3 11.1zm-48.53-76.7V30.7c2.8 2.97 2.88 6.47 0 9.77zm-9.05 106.8l5.33-6c1.6 3.64.37 5.17-4.56 6.73zM363 235.14l8.2-2.55c-.2 1.66-3.43 5.35-5.16 4.9-1.18-.3-2.12-1.63-3.03-2.35zM313.72 540l8.07-2.94.5 1.25c-1.82 3.08-5.22 2.42-7.9 3.4l-.65-1.72zM322 247.54q3.07-3.82 6.16-7.63l1.27 1-6 7.73zm66 10.86l3.66-2.44.62.66 1-4c2.85 4.8 1.04 6.83-5.28 5.78zm-106.16-82.66c3 8.26 3 8.26 1.57 11.93l-2.57-11.77zm93.26 91.5c-3.22-3.3-2.8-5.45 1.35-8.07l-1.35 8.07zM193.32 406.9V395l1 .07-.83 11.93zm137.84-168.8L339 231l.77.8-7.63 7.54zm51.77 22.14l.7-9.7c2.8 3.5 1.1 6.68.22 9.92zM344.26 114l-.82 6.26-1.32-.16c.72-2.12-3.08-4.7.4-6.55zm62.24-18.83c3.2 1.52 4.58 4.9 3.16 9.34l-3.1-9.4zm-198.32 152.1l6.06-8.44 1 .7-5.9 8.5zM387.05 224a17 17 0 0 0-1.77 2.92 19.63 19.63 0 0 0-.62 3.51c-2.8-1.86-2.5-3.25 1.36-6.92zM188.26 35.28l-6.2 3.72-1-1.74 6.37-3.5zm202.8 198.42l-4.75 6.65c-.67-3.86.97-6.36 4.75-6.65zM285.84 16.2h-8.3l-.05-.66 8.28-1.33zm89.6 211.5l3.84-6.68.84.48c-.63 2.6-1.2 5.25-3.53 6.86zm-97.1 387.48l-6.73 2.25-.48-1.3 6.46-2.76z"/><path d="M184.53 484c-.34-3-1-6-.94-9 .22-8.38-.47-16.68-.92-25-.5-9.07-1.5-18.82 3.64-27.4.1-.15.45-.14 1-.3-.42 3.64-1.15 7.16-1.18 10.68-.1 9.05.13 18.1.23 27.14l.22 20.33a16.59 16.59 0 0 1-.74 3.49zm-4.25-8.95c-.57-1.65-1.58-3.3-1.62-4.95l-.5-34a83.3 83.3 0 0 1 1.07-10.89 10.5 10.5 0 0 1 1.29-2.82l1.38 52.37zm-14.56-1.93v-10.44c0-1.22.44-2.5.2-3.66-1.62-8.2-2.44-16.3-.34-24.63.78-3.1.13-6.6.13-9.9h1.3v48.6zM175.75 424l.36 7.08q.3 14.52.55 29v5.5l-1.16.16c-.57-2.9-1.64-5.8-1.62-8.7.06-10.08.48-20.16.85-30.23a9.26 9.26 0 0 1 1.1-2.76zm-4.65 4.65v30.3h-1.45c-1.12-10.1-1.8-20.2.38-30.3zm-8.63-6.05v29.5c-2.98-2.62-3.34-23.84 0-29.5zM394.86 290c1.93-6.76 3.18-13.32 1.77-20.4-.63-3.17 1-6.05 5.2-7.93a75.76 75.76 0 0 0-2 7.41c-.83 5.07-1.25 10.2-2.22 15.24-.38 1.94-1.8 3.74-2.74 5.67zM173.92 468.28l1.14 11.56c-2.42 1.35-2.18-5-5.36 1.3v-16.56l.44-.2q.8 4.1 1.57 8.2h.43l.26-4.26zm5.38 17.14l.6-3.42h1v12l-.9.1-.45-3.58c-1.1-.8-2.54-1.35-2.58-2-.2-4-.1-8.08-.1-12.12l1.13-.06zm223.03-227.15c-2.25-4.18.13-6.57 2.33-8.67s4.9-3.8 8.12-6.22c-1.98 6.55-7.2 9.74-10.45 14.9zm12.32-16.77c2.05-4.58 3.9-8.34 5.4-12.23.42-1.1-.3-2.62-.2-3.92.22-2.7.64-5.37 1-8.06l1.75.16c0 1.6.12 3.2 0 4.76-.68 6.9-1.18 13.9-7.94 19.3zM157.83 422.4v26.5c-2.62-2.9-2.12-21.8 0-26.5zm-3.9 25.6c-3.34-5.87-3.34-14.25 0-19.18zm-13.1-6v-18.66l1.67.05-1.08 18.6zm-2.08-15.3l-1 14.2c-2.56-2.96-2.1-11.18 1-14.2zm-80.9-84.77l4.34 3 1.1-2.15h.86l.53 4.47c-4.27.9-6-1.54-7.5-4.36zm74.97 97.17c.25-3.83-1.52-7.86 1-11.5l1.27.1q-.37 5.74-.74 11.48zm50.98 60.6l-1.06-12.6c3.33 3.8 1.7 8.27 2.3 12.44zm-52.44-73.4q-.54 6-1.1 11.94l-1.1-.1c-.55-4.05-1.23-8.15 2.2-11.85zM375 299.57c.8-4.55 3.44-6.43 8-5.3zm-350.8 6.3l-1 2.25-.77-.17c.28-1.12.23-2.56.92-3.26s2.1-.5 3.7-.8l.8 4.5-.83.47zm133.52 154.65q-.42-3.66-.86-7.3l1.24-.2 1.26 7.26zm83.48-222.9c.57 5.32 1.3 10.63 1.67 16a122.87 122.87 0 0 1 0 12.29 3.15 3.15 0 0 1-1.39 2.35c-2.08 1-4.33 1.68-6.53 2.5l-2.7-28.72 4-1 1.4 13.36 1-.07c1.97-5.42-3.44-11.8 2.57-16.7zm-2.13 19.2l-1.05-.13v10.2h1.05zm37.93 28.6l-7.77 3.2v-5.4l-3.8 3a1.9 1.9 0 0 1-1.63.22 2 2 0 0 1-.51-1.5 32.59 32.59 0 0 1 5.92-3.55c.78-.3 2.12.77 3.76 1.45 2.15-1.83 4-5.68 9.13-4.75l-5.23 7.5zm15.05-96.52c-1.33 3.72 4.86 6 .8 10-5.06-4.9-5.35-7-.8-10zm28.35 3.85c.92.53 2.63 1.1 2.6 1.6a5.1 5.1 0 0 1-1.51 3.43c-1.37 1.13-3.2 1.73-5 2.66-1-4.06 2.63-5.3 4-7.76zM209.24 409.28l-.67 8.64c-2.8-2.52-2.7-5.25.67-8.64zM314.38 7.74l-8.87 4.57-.84-1.8 9.18-4.07zM133.88 224.6c-2.55 1.65-7.94 1.1-10.95-1.17-4.3-3.24-8.48-6.7-13-9.68-2.58-1.72-5.66-2.7-8.5-4l-7.66-3.57c2-4.9 3.46-5.8 7.48-3.63 4.56 2.47 8.7 5.7 13 8.57l16.4 10.82-5 .45c2.34 4.36 6.34-.88 8.22 2.2zm-30.7-5.78l.54 5.87-.48.1-1.5-8.68c5.54-1.9 8.7 2.46 12.42 4.78 2.6 1.63 4.63 4.2 7.27 6.7a21.4 21.4 0 0 1-14.7 3.9c-.54 0-1.23-1.78-1.35-2.8-.38-3.28-.53-6.6-.77-9.9zM83.7 205.3l-6.24-7.23.93-1.06c4.8-.2 4.3 6.35 8.1 7.6zm319.07 8.92l-.6 7.9c-3.05-3-3.6-12.25-1.1-15.32a3.29 3.29 0 0 1 1.12-.91c5.18-2.27 5.2-2.26 8.7-7v6.82c-6.25 1.9-2.83 8.43-5.87 12.4l-1.5-3.88zm12.17-13.12c2 6.08-2.2 9.6-3.15 15l-2.64-3.85-1.85 11.3c-1.47-5.6.26-10.3 3.7-14.17 1.73-1.98 2.38-4.87 3.95-8.27z" fill="#fff"/><path d="M239.08 256.84v10.08H238v-10.2zm236.62-69.27c0-21.2-1.8-21.6-11.2-23.2l-3.4-.6c-1.4-1.4-1.2-4.8.4-5.6 8 .4 17 .6 25.8.6a592.41 592.41 0 0 0 26.8-.6c1.6.8 1.8 4.2.4 5.6l-4.4.6c-9.4 1.2-11.2 2-11.2 23.2v45.8c0 27.6 8.4 50.8 36.2 50.8 26.2 0 37-19.8 37-50.2V209c0-15-.2-33.6-3.8-39.4-1.8-3-5-4.4-10-5.2l-4-.6c-1.8-1.4-1.6-5 .4-5.6 6.8.4 14.4.6 22.2.6 8.4 0 13.8-.2 21.2-.6a3.87 3.87 0 0 1 .4 5.6l-4.4 1c-3.8.8-7.4 1.6-8.8 4.8-2.8 6-2.8 23.6-2.8 39.4v23.8c0 18.2-2.8 35-13.2 46.2s-25.4 15-39.2 15c-18.8 0-32-4-41.2-12.8-9-8.6-13.2-22.6-13.2-42.8zm263 4.8c-1.4 1.6-5 1.8-6.4.4-3.4-12.6-12.4-29.2-38.8-29.2-25.4 0-51 18-51 59 0 42.6 26.6 63.4 52.4 63.4 25.2 0 36.2-16.8 41.8-29.8a4 4 0 0 1 6 .8c-1.4 13.4-6.8 26.6-9.6 30.4a71.54 71.54 0 0 0-7 1.8 119.18 119.18 0 0 1-31.2 4.8c-19.8 0-36.8-4-51.2-13.4-16.2-10.6-28.4-28.8-28.4-55 0-23.4 10.4-41.6 25.2-53 14.8-11.2 35-17 55.2-17a154.3 154.3 0 0 1 34.6 4.4c2.4.6 3.8.8 5.6 1.2.4 4.6.8 16.4 2.8 31.2zm59 65.4c0 10 .4 17.2 3.4 20.6 2.4 2.8 5.6 4.4 21.6 4.4 22.2 0 25.4-1 34.6-21.6 2-1 5.2-.4 6.2 1.2-1.6 8.4-6 23.6-8.4 29-8.4-.4-25.6-.6-48-.6h-20.8c-10.2 0-20.2.2-28.6.6-1.6-.8-2.2-4.8-.4-5.8l6-1c9.4-1.6 11.2-1.8 11.2-22.6v-74.4c0-20.8-1.8-21.4-11.2-22.8l-5.6-.8c-1.4-1-1.4-5 .4-5.8 10 .4 19 .6 28.2.6a590.16 590.16 0 0 0 26.6-.6c1.8.8 2 4.8.4 5.8l-4.4.8c-9.4 1.6-11.2 2-11.2 22.8zm-297.6 160c0 10 .4 17.2 3.4 20.6 2.4 2.8 5.6 4.4 21.6 4.4 22.2 0 25.4-1 34.6-21.6 2-1 5.2-.4 6.2 1.2-1.6 8.4-6 23.6-8.4 29-8.4-.4-25.6-.6-48-.6h-20.8c-10.2 0-20.2.2-28.6.6-1.6-.8-2.2-4.8-.4-5.8l6-1c9.4-1.6 11.2-1.8 11.2-22.6v-74.4c0-20.8-1.8-21.4-11.2-22.8l-5.6-.8c-1.4-1-1.4-5 .4-5.8 10 .4 19 .6 28.2.6a590.16 590.16 0 0 0 26.6-.6c1.8.8 2 4.8.4 5.8l-4.4.8c-9.4 1.6-11.2 2-11.2 22.8zm98.6 9.23c0 14.8.8 16.8 7.6 18l3.6.6c1.4 1.4 1.2 5-.4 5.8-7.4-.4-14.2-.6-21.6-.6-6.6 0-13.4.2-21 .6-1.6-.8-1.8-4.4-.4-5.8l3.6-.6c6.8-1.2 7.6-3.2 7.6-18v-29.4c0-9 0-11.4-5-14.4l-2.4-1.4a5.3 5.3 0 0 1 .19-4.6c10.4-3 20.4-7.4 26-10.8a3.68 3.68 0 0 1 2.8 1.6c-.4 6.6-.6 16.2-.6 24.4zm-22.8-88.2c0-6.8 5-12 12.2-12s12.2 5.2 12.2 12-5 12-12.2 12-12.2-5.23-12.2-12.03zm90.8 90.2c-3.2 7.2-7 16.6-9.4 23.4a4.7 4.7 0 0 1-3.4 1.2 5.58 5.58 0 0 1-3.6-1.2c-2-5.6-5.2-13.4-7.6-18.6l-19.2-43.4c-4-8.6-6.2-11.2-12.2-12.4l-3.8-.8c-1.4-1.4-1.2-4.8.4-5.8q10.5.6 21 .6c9 0 15-.2 22-.6 2 .8 2.2 4.4.4 5.8l-3.6.6c-2.8.4-5 1-5 2.2a19 19 0 0 0 1.6 6.4c2.8 7.4 13 32.2 16 38.2 4.8-10 9.6-22.2 14.8-34.8 2-5 2.8-7.6 2.8-9s-1.8-2.2-4.2-2.6l-4.8-1c-1.6-1.6-1.4-5 .8-5.8 6 .4 11 .6 16.8.6 5.2 0 10.2-.2 14.6-.6 1.8.8 2 4.4.4 5.8l-4 .8c-6 1.2-8.8 2.6-15 16.2z"/><use xlink:href="#B"/><use xlink:href="#C"/><path d="M918.3 386.77a27.64 27.64 0 0 1 1 8.6c0 16.8-11.2 33-36.6 33a51.7 51.7 0 0 1-7.6-.8c-3.2 1.6-6.2 4.2-6.2 7.8 0 4 2.8 7.8 11 7.8 5.8 0 13.4-.4 22-.4 14.4 0 32.6 2.4 32.6 24.2 0 10.4-7.2 20.2-12.6 24.4-8.8 7.2-21.6 13.2-38.8 13.2-28.2 0-37.4-13.2-37.4-23.6a12.33 12.33 0 0 1 2.8-8.6c1.8-2 9.4-6.4 12.4-9 1.6-1.2 3-3.8 1.2-4.4-7-2.4-13.2-8.8-13.2-16.6 0-2 .8-3.6 3.2-5 3-1.6 12.8-7.8 12.8-10.6 0-.6 0-1.8-.8-2.2-6.8-2.8-14.8-10.8-14.8-23.8 0-18 15-31.6 36.6-31.6 8 0 15 1.6 20.2 4.2 4.2 2 6.4 3 8.8 3h19.6a4.71 4.71 0 0 1 1.6 3.6c0 4-1.6 6.4-3.2 6.8zm-33.6 73.8c-7 0-11.2.6-13.6 2.4-3.4 2.6-6 6.2-6 11.2 0 12.2 10.8 20.2 26.2 20.2 17 0 26.6-7 26.6-18.6 0-10.2-9.4-15.2-21.8-15.2zm1.6-39.8c7.6 0 13.2-6.6 13.2-20.6 0-13.6-5.8-23.4-14.8-23.4-7 0-13.2 6.6-13.2 20.4 0 15.4 7.2 23.6 14.8 23.6zm133.2-3c0 10 .4 17.2 3.4 20.6 2.4 2.8 5.6 4.4 21.6 4.4 22.2 0 25.4-1 34.6-21.6 2-1 5.2-.4 6.2 1.2-1.6 8.4-6 23.6-8.4 29-8.4-.4-25.6-.6-48-.6h-20.8c-10.2 0-20.2.2-28.6.6-1.6-.8-2.2-4.8-.4-5.8l6-1c9.4-1.6 11.2-1.8 11.2-22.6v-74.4c0-20.8-1.8-21.4-11.2-22.8l-5.6-.8c-1.4-1-1.4-5 .4-5.8 10 .4 19 .6 28.2.6a590.16 590.16 0 0 0 26.6-.6c1.8.8 2 4.8.4 5.8l-4.4.8c-9.4 1.6-11.2 2-11.2 22.8zm128.6 7.6c-.6 11.6 2.4 17.6 9.6 17.6 3.4 0 6.2-2.2 6.8-2.2 1 0 2.4 2.2 1.8 4-4 5.6-13.8 8.8-20 8.8-5 0-10.6-1.4-14.4-5.6-1.4-1.4-2.2-2.4-3.2-2.4s-2.4 1-5.4 2.8a32.29 32.29 0 0 1-17 5.2c-13.6 0-20.4-9.4-20.4-19.4 0-7.2 2.8-13.8 16.6-18.6 7-2.4 14.6-5.2 22-8 4-1.4 4.6-3.2 4.6-5.2l.2-5.2c.4-10.2-2.4-19-12.2-19-5.6 0-9.8 3-10.6 8.8-.4 3.8-1.6 5.8-3.8 7.2a27.52 27.52 0 0 1-12.8 3.6c-2.6 0-3.8-1.4-3.8-3.2 0-2.4 1.2-6.6 7.8-12.8 6.2-5.8 20.6-12.6 30.8-12.6 15.8 0 25.6 7.4 24.8 25zm-19.6-6.8c0-2.2-.6-3.4-1.6-3.4-1.6 0-5.2 1-8.8 2.4-5.6 2-10.8 4.8-10.8 13.4 0 5.2 3.6 11.6 11.2 11.6 7.2 0 9.4-4.8 9.6-9.6zm71.6-37.8c-3.6 0-3.8.4-3.8 6.8v30.8c0 12.6 1.8 23.8 14.6 23.8 4 0 6.4-1.4 9.6-3.6 1.8.2 3 1.8 2.6 4-4 5.6-13.2 11-25.4 11-19 0-22.4-11-22.4-25V388c0-7-.4-7.2-3.6-7.2h-7c-2-1-2.4-4.2-.6-5.4a64.37 64.37 0 0 0 15.8-8.4 37.37 37.37 0 0 0 11-12.4 4.26 4.26 0 0 1 5.6 1v12c0 3.2 0 3.8 3.8 3.8h19.8c1.2.6 1.6 2.2 1.6 4.2-.2 2.4-1 4.2-2.6 5.2z"/><use xlink:href="#B" x="527.2"/><use xlink:href="#C" x="527.19"/><defs ><path id="B" d="M729.1 427c0 14.8.8 16.8 7.6 18l3.6.6c1.4 1.4 1.2 5-.4 5.8-7.4-.4-14.2-.6-21.6-.6-6.6 0-13.4.2-21 .6-1.6-.8-1.8-4.4-.4-5.8l3.6-.6c6.8-1.2 7.6-3.2 7.6-18v-29.4c0-9 0-11.4-5-14.4l-2.4-1.4a5.34 5.34 0 0 1 .2-4.6c10.4-3 20.4-7.4 26-10.8a3.68 3.68 0 0 1 2.8 1.6c-.4 6.6-.6 16.2-.6 24.4zm-22.8-88.2c0-6.8 5-12 12.2-12s12.2 5.2 12.2 12-5 12-12.2 12-12.2-5.23-12.2-12.03z"/><path id="C" d="M777.7,427c0,14.8.8,17.2,7.6,18.2l3,.4c1.4,1.4,1.2,5-.4,5.8-7-.4-13.8-.6-21.2-.6-6.4,0-13.2.2-21.6.6-1.6-.8-1.8-4.4-.4-5.8l4.4-.6c6.8-1,7.6-3.2,7.6-18v-29.4c0-9,0-11.4-5-14.4l-2.4-1.4a5.34,5.34,0,0,1,.2-4.6,135.48,135.48,0,0,0,26-10.8,2.78,2.78,0,0,1,2.6,1.6,90,90,0,0,0-.4,9.2c0,1.4.6,1.8,1.8,2,9.4-5.2,15-10,27.4-10,16.2,0,23.8,11.2,23.8,26.8v31c0,14.8.8,17.2,7.6,18l4.6.6c1.4,1.4,1.2,5-.4,5.8-8.4-.4-15.2-.6-22.6-.6q-9.9,0-20.4.6c-1.6-.8-1.8-4.4-.4-5.8l3-.4c6.8-1,7.6-3.4,7.6-18.2v-27.6c0-10.2-4-18.2-16-18.2-6.2,0-11.2,3.2-13.2,6.2-2.6,3.6-2.8,5.4-2.8,12.8Z"/></defs></svg>