<svg id="Layer_1" data-name="Layer 1" xmlns="http://www.w3.org/2000/svg" viewBox="0 0 1371.03 664.65"><defs><style>.cls-1{fill:#fff;}</style></defs><title>logo</title><path class="cls-1" d="M175.82,424.05a.31.31,0,0,1,0-.08h-.05Z"/><path class="cls-1" d="M172.94,419.39h0Z"/><path class="cls-1" d="M329.29,186.86l-.07.11a1.2,1.2,0,0,1,0,.19l.12-.08C329.32,187,329.31,186.94,329.29,186.86Z"/><path class="cls-1" d="M74.35,297l.76.92c0-.39,0-.77-.07-1.15Z"/><path class="cls-1" d="M218.5,638.89h20a8.67,8.67,0,0,1,1.88-4.08H222.29Q220.42,636.87,218.5,638.89Z"/><path class="cls-1" d="M241.77,638.89h20c1-1.38,2.09-2.74,3.17-4.08H244.3A5.34,5.34,0,0,0,241.77,638.89Z"/><path class="cls-1" d="M268.33,634.81c-1.15,1.35-2.28,2.72-3.42,4.08h22.32c.9-.66,1.79-1.31,2.67-2s1.76-1.4,2.63-2.09Z"/><path class="cls-1" d="M311.46,619.77A73.09,73.09,0,0,1,324.74,612c11.58-5.21,23.54-9.61,34.95-15.15,5.17-2.52,9.58-6.75,14-10.57,9.53-8.19,18.51-17.06,28.38-24.82,8-6.31,17.2-11.11,25.45-17.15,5.73-4.2,10.75-9.36,16.08-14.09a68.64,68.64,0,0,0,6.09-5.57,14.24,14.24,0,0,0,3.14-5.43c.84-3.15-1.78-5.68-5.09-6-8.07-.65-15.71,1.39-23.42,3.23a17.3,17.3,0,0,1-4,.05c0-.35-.08-.7-.11-1.05,4.58-1.54,9.06-3.61,13.77-4.48s9.87-.6,14.88-.83c.74-4-.15-6.5-3.69-7.62-5.36-1.71-10.76-3.29-16.11-5-5.85-1.91-11.66-3.93-17.48-5.89-7.42-2.5-15.18-3.61-22.71-2-6.18,1.32-12,4.39-17.89,7-7.1,3.14-14.19,6.35-21.05,10a145.44,145.44,0,0,0-18.66,11.24c-7.84,5.82-14.89,12.69-22.64,18.64-11.64,9-21.29,19.78-30.5,31.07-8.75,10.73-17.39,21.55-26.22,32.22-9.47,11.44-18.84,23-28.77,34l-.87.94h18.12a10.63,10.63,0,0,1,4.69-3.13c3.7-1.33,6.9-2.93,8.42-6.8,2.39-6.07,8-6,13.21-7.15-.16.44-.18.64-.25.66-5.54,1.73-9.18,5.6-12.62,10.11-1.84,2.41-5.11,3.86-8,5.32a11.66,11.66,0,0,0-1.61,1H265c1-1.23,2-2.45,3.05-3.62,3.71-4.17,8.14-7.7,12.17-11.6,5.41-5.24,10.94-10.38,16.07-15.89,6.69-7.18,13-14.75,19.53-22,8.59-9.51,17.29-18.92,26-28.36,7.76-8.46,17.91-13.25,28-18.15s19.79-9.84,29.93-14.21c5.8-2.49,12.09-3.86,18.16-5.73l.77,1.44c-1.55,1.2-2.91,3-4.66,3.5-14.63,4.33-28.31,10.75-42,17.49-7.44,3.67-14.15,8.4-21.29,12.46-2.37,1.35-4,3.95-6,5.95-8,8-16.34,15.76-24,24.1-5.74,6.23-10.57,13.3-16,19.83-2.06,2.46-4.77,4.35-7,6.65-3.44,3.5-6.73,7.13-10.11,10.68a13.35,13.35,0,0,1-2.71,2.61c-6.61,3.83-11.63,9.24-16.41,14.88h24.2C298.84,629.79,305,624.56,311.46,619.77Zm10.33-82.69c.16.42.33.83.49,1.25-1.82,3.08-5.22,2.42-7.91,3.41l-.65-1.72Zm-68.38,73.49-.52-1.66,24.49-7.29.63,1.57Zm18.2,6.86-.48-1.29,6.46-2.76.75,1.8ZM269,594.17l-.44-1.16,17.74-6.37.47,1.28Zm15.17-18c-.2-.42-.39-.84-.59-1.27,4.83-4.35,11.46-3.82,17-6.26.18.46.35.92.52,1.38Zm46.58-27c-8.1,2.42-16.25,4.68-24.39,7a3.19,3.19,0,0,1-1.09-.1l-.51-1.35,27.69-8.38.58.69C332.26,547.69,331.63,548.84,330.73,549.11Z"/><path class="cls-1" d="M277.83,141.56l.27-.41c.07-.09.15-.18.22-.28L278,141Z"/><path class="cls-1" d="M128.13,638.46a4.35,4.35,0,0,1-.32.43h16c.55-1.36,1.1-2.72,1.64-4.08H130.39C129.65,636,128.91,637.25,128.13,638.46Z"/><path class="cls-1" d="M148.05,634.81l-1.62,3.89-.07.19H157c.12-.27.23-.54.35-.8.48-1.1,1-2.19,1.45-3.28Z"/><path class="cls-1" d="M175.6,595.78c4.27-11.91,6.3-24.62,9.66-36.88,1.79-6.51,2.9-13,1.91-19.69a1.67,1.67,0,0,0-.21-.67c-2.62,6.21-5.08,12.79-8.15,19.07s-6.68,12.33-10.25,18.37c-2.77,4.68-5.91,9.13-8.76,13.77-3.22,5.25-6.07,10.76-9.51,15.86-4,5.95-8.65,11.47-12.68,17.4-2.59,3.81-4.84,7.84-7.22,11.8h15.08c1.71-4.26,3.43-8.51,5.19-12.74,4.08-9.82,9.15-19.23,13.78-28.82.2-.41.56-.73,1.57-.74-1.48,3.32-3,6.62-4.45,10C157,613.24,152.5,624,148.05,634.81h10.73C164.52,621.84,170.82,609.09,175.6,595.78Z"/><path class="cls-1" d="M276.81,285.55l.05,0,.09-.11Z"/><path class="cls-1" d="M341.49,100.59l-.06,0s0,.08,0,.12l0-.09A.13.13,0,0,0,341.49,100.59Z"/><path class="cls-1" d="M406.6,95.23l0-.13-.09-.18,0,.25Z"/><polygon class="cls-1" points="372.76 97.56 372.76 97.56 372.76 97.56 372.76 97.56"/><path class="cls-1" d="M373.27,280.7c.05-.15.1-.3.16-.45-.09.16-.18.31-.27.48Z"/><path d="M175.76,424.2l.07-.14,0-.09h-.05C175.75,424.05,175.76,424.13,175.76,424.2Z"/><polygon points="172.94 419.4 172.94 419.41 172.95 419.4 172.94 419.4"/><path d="M112,662.46c1.45-2.92,3.63-5.48,5.48-8.2a13.09,13.09,0,0,0,.86-1.14c1.87-3.39,3.57-6.89,5.63-10.16,1-1.55,2.71-2.61,3.83-4.07h-6.75c-.31.42-.62.84-.92,1.27a166.45,166.45,0,0,0-11.46,17.73"/><path d="M406.56,95.1l-.09-.18,0,.25Z"/><path d="M196.76,660.91c7.19-7.39,14.65-14.54,21.74-22h-4.61c-4.59,4.85-9.22,9.67-13.78,14.55-3.18,3.4-6.15,7-9.4,10.34"/><path d="M159.16,641.2c.35-.77.68-1.54,1-2.31H157"/><path d="M121.06,638.89h6.75a4.35,4.35,0,0,0,.32-.43c.78-1.21,1.52-2.43,2.26-3.65H124C123,636.17,122,637.52,121.06,638.89Z"/><path d="M169.5,617.41c4.84-11.62,10-23.15,14.11-35,2.73-7.78,4.13-16,5.79-24.18,1.41-6.87,3.66-13.82,1.45-20.88-2.36-7.49-1.65-15-.6-22.47.85-6.11,2.06-12.17,2.85-18.29.25-2-.35-4.07-.56-6.11l-1.55,0-2.16,11.86a2.52,2.52,0,0,1-1-1.93c.23-7.23.5-14.46.77-21.69,0-1.13.26-2.26.25-3.39-.09-15.2-.3-30.4-.19-45.59,0-2.51,1.42-5,2.39-8.21v66.66l1.61.06c.33-6.09,1-12.18.93-18.27-.11-12-.8-23.92-.87-35.89,0-4.93-.45-10.17,3-14.48l-.13.15c-.12-1.77-.23-3.55-.4-6.29-1.12,2.53-1.83,4.14-2.55,5.75l-.92-.35,2-7.21-1-.18q-2.2,4.65-4.4,9.29a5.86,5.86,0,0,1-.87-4c.81-6.36,1.75-12.7,2.48-19.06.11-1-.66-2.11-1-3.16-2.9,8.79.44,18.59-6.42,27.2.81-9.53,4.1-18.06.29-26.66a13.16,13.16,0,0,0-.57,6.45c1.74,8-1.13,15-4.65,21.87-.2.39-1.19.38-1.85.54l0,.09-.07.14c.13,2.29.3,4.58.35,6.86q.31,14.52.55,29c0,1.83,0,3.67,0,5.5l-1.16.16c-.57-2.9-1.64-5.8-1.62-8.69.06-10.08.48-20.16.85-30.23a8.16,8.16,0,0,1,1-2.62c0-.07,0-.15,0-.22h.05c-.46-1.61-1.57-3.36,1.32-4,.43-.09.79-1.24.88-1.94.7-5.11,1.42-10.23,1.9-15.36.13-1.37-.52-2.82-.82-4.23l-1.45.19c0,2,.12,4.09,0,6.12-.28,4.09-.51,8.21-1.19,12.25-.22,1.27-1.8,2.32-2.75,3.46l-.72-1.07-4.62.63c.41-6.63,2.41-13-.14-19.2a27.06,27.06,0,0,0-.58,6.25c-.11,3.53-.13,7.08-.59,10.57-.12.95-1.68,1.72-2.57,2.57-.38-1.15-1.11-2.31-1.05-3.44.12-2.12,1-4.21,1-6.32,0-3.11-.4-6.23-.64-9.35l-1.47.07a32.54,32.54,0,0,0-.55,3.91c-.09,3.15.18,6.33-.12,9.46-.15,1.54-1.24,3-1.9,4.48l-.83-.44q-.65-8.13-1.3-16.26l-1.06.08q-.81,12.31-1.61,24.63h-1.7c-.75-8.37.83-17-1.07-25.22l-1.71.05v46l-1.76.11-1.56-16.3a20.41,20.41,0,0,0-1.29,7.06c-.09,2.28,0,4.56,0,7.71-3.1-5.33-2.81-19.29.13-23.24.31,1.91.58,3.62.93,5.75,3.89-6.22.43-12,.24-17.9L145,416c-.43-2.9-.68-4.64-.94-6.39l-.75-.06c-.69,2.77-1.37,5.54-2.06,8.31l-.76-.06c-.49-1.42-1-2.84-1.68-4.81l-2.71,6.71-.63-.27.48-6.71-1.13-.22c-.79,1.62-1.58,3.24-2.45,5l-1.79-2.87c-1.13,3.1-2.09,5.71-3,8.32l-.64-.12c-.16-1.45-.31-2.9-.47-4.35l-.74-.07c-.69,1.44-1.38,2.88-2.2,4.61-.42-1.26-.7-2.1-1.21-3.6L118.88,427c-.56-2.86-.92-4.68-1.28-6.51l-.75,0-.9,2.92-.77-.8-2.81,2.05c-.3-.61-.75-1.55-1.38-2.86l-2.07,3.4c-.79-1.07-1.44-1.93-2.09-2.79l-.21,1.17H82.88L79,421.24c-1.75.77-3.62,1.94-3.88,1.65a26.52,26.52,0,0,1-3.63-5.39c-.85-1.59-1.21-3.47-2.15-5-.21-.34-1.92.24-3.69.52-.31-7.36-2-14.95,5.15-21.18a8.65,8.65,0,0,1,2-.28c2.06.06,5.53-.37,6,.54,1.83,4,5.52,4.89,8.78,6.56a6,6,0,0,0,2.31.18c0-.82.36-1.82,0-2.45-1.08-2-2.41-3.82-3.65-5.71s-2.79-3.31-4.54-1.17c-2.28-3.6-4.44-7-6.61-10.42l-1.17.54v5.62c-1.63-4-2.85-7-4.06-10l-1,.27c-.2,1.29-.41,2.58-.63,4-2.71-3.88-5.9-7.32-7.77-11.36-4.3-9.27-.92-14.89,8-14.29a47.27,47.27,0,0,1,20.69,5.87c1.2.68,2.49,1.22,3.76,1.79,2,.91,3.25-.23,3.06-1.92a35.87,35.87,0,0,0-2.23-9.78c-.52-1.22-3.1-2-4.82-2.2-4.67-.4-9.66,1.91-13.92-1.84A13.19,13.19,0,0,0,72.27,344c-3-1.53-6-3.69-9.21-4.27-4.12-.74-8.47-.18-13.05-.18,0-5.48-.08-10.53,0-15.59.14-6.91,1.11-7.76,8.11-7.64,7.46.12,11.37-3.75,12.64-11.13.71-4.15-1.19-9.22,3.3-12.05-1.29-1.35-3.2-2.42-3.55-3.86-.92-3.85-3.38-6.31-7.4-5.57-2,.37-5.91-2-5.8,1.84s4,1.47,6.16,2.12c1.76.52,4.42,1.28,4.82,2.53,1.82,5.67.26,11.2-2.2,16.55v-6.24H65.4l-2,4.11c-.74-2.35-1.26-4-1.79-5.69-1.77,4.85-1.19,10.13-4.91,14.05a23.43,23.43,0,0,1,.42-5.19c.19-1.48.25-3,.37-4.48l-1,0-2.89,7.27-1-.3c-.65-4.41,4.26-9.12-.56-14-.9,5-1.7,9.41-2.5,13.82l-1.62-.19c1.26-4.41,2.12-8.78-.38-13.52l-2.32,3.34c-5.42-3-10.52-5.51-17.15-4.17-7.73,1.56-8.81,7-9.19,13.54l-1-.37q-.84-2.85-1.7-5.71l-.65.14L15,307.81l-1.13.18-2-6.47L9,302.73c-.13-2.06-.57-3.71-.27-5.22.55-2.71-.18-3-2.46-1.55,1.38-3.57,2-7.46,4.1-10.25a201.7,201.7,0,0,0,20.77-33.27c6-12.48,11.87-25,21-35.66a16.09,16.09,0,0,1,4.27-3.42c4.46-2.49,9-5,10.47-10.27.42-1.46-.18-3.45-.87-4.93-1.24-2.64-4.21-5.12-4.14-7.6a135.07,135.07,0,0,1,2.56-23.92c2.38-11.16,5.84-22.08,8.72-33.13a103.1,103.1,0,0,0,2.11-10.75c.13-.9-.65-1.94-1-2.92-.71.29-1.89.41-2.07.9-1.12,3.05-2.73,6.14-2.84,9.27-.3,8.47-3.46,16.21-5.38,24.26-1.13,4.75-3.16,9.3-4.14,14.07a191.28,191.28,0,0,0-2.74,18.95c-.46,4.61,0,9.17,4.65,11.93,2.71,1.6,2.06,3.65.17,5.19-2.13,1.74-4.7,2.93-7,4.53-3.37,2.38-7.32,4.36-9.78,7.49-3.77,4.79-6.71,10.28-9.6,15.69-4,7.54-7.14,15.63-11.65,22.85-6.31,10.12-11.56,20.94-20,29.75-4.46,4.65-5.66,13.76-.66,20,1.89,2.37,3.5,5,5.45,7.27s4,4,7.46,3.21c8.72-2.06,17.51-3.55,26.33-.55a27.8,27.8,0,0,1,4.4,2.41l-2.15,2.74,1-.05c.23,1.8.81,3.64.62,5.39a34.38,34.38,0,0,1-1.78,8.1,10.22,10.22,0,0,0,1.65,10.33,64.24,64.24,0,0,0,7.3,7.55c1.72,1.59,2.3,2.7.92,5.09-2.11,3.63-2.4,7.67.35,11.36q3.66,4.94,7.44,9.79c3.95,5.09,1.43,10.3.23,15.43-1.65,7.09-4.1,14.08-.82,21.37,5.76,12.81,16.62,17.9,29.61,17.6s24.48,4.05,35.67,9.18,20,14.3,27.82,23.8a275.9,275.9,0,0,1,17.72,23.93c3.56,5.41,6.86,11.32,8.68,17.48,3.34,11.36,3.85,23.11.41,34.67-2,6.84-3.59,13.89-8.14,19.8-3.77,4.88-7.6,9.83-10.5,15.23-6.44,12-12.66,24-20.95,34.93q-9.09,11.91-17.94,24h6.36c2.38-4,4.63-8,7.22-11.8,4-5.93,8.68-11.45,12.68-17.4,3.44-5.1,6.29-10.61,9.51-15.86,2.85-4.64,6-9.09,8.76-13.77,3.57-6,7.17-12.08,10.25-18.37s5.53-12.86,8.15-19.07a1.67,1.67,0,0,1,.21.67c1,6.72-.12,13.18-1.91,19.69-3.36,12.26-5.39,25-9.66,36.88-4.78,13.31-11.08,26.06-16.82,39H162C164.55,629,167.07,623.24,169.5,617.41ZM27,308.87l-2.8-3c-.43.93-.74,1.59-1,2.25l-.77-.17c.28-1.12.23-2.56.92-3.26s2.09-.5,3.71-.81c.25,1.38.53,2.94.81,4.51Zm30.86,33.06,4.34,3,1.09-2.15.86,0,.53,4.47c-4.27.89-6-1.54-7.49-4.36C57.4,342.61,57.63,342.27,57.85,341.93Zm72.41,96.31-1.1-.09c-.55-4-1.23-8.11,2.2-11.85Q130.82,432.27,130.26,438.24Zm4.09.94-1.53-.09c.25-3.83-1.52-7.86,1-11.49l1.27.1Q134.72,433.44,134.35,439.18Zm3.37,1.71c-2.53-3-2.07-11.18,1-14.2C138.38,431.78,138.06,436.16,137.72,440.89Zm3.7,1.12h-.59V423.34l1.67.05Zm12.5,6c-3.34-5.87-3.34-14.25,0-19.18Zm3.91-25.62V448.9C155.21,446,155.71,427.1,157.83,422.41Zm-.11,38.12q-.42-3.66-.86-7.3l1.24-.21,1.26,7.26Zm4.75-8.44c-3-2.62-3.34-23.84,0-29.5Zm4.5,21-1.25,0c0-3.48,0-7,0-10.44,0-1.22.44-2.5.21-3.66-1.62-8.2-2.44-16.31-.34-24.63.78-3.11.13-6.6.13-9.91H167ZM170,428.65h1.07v30.29h-1.45C168.53,448.84,167.84,438.75,170,428.65Zm-.33,52.49V464.58l.44-.2q.8,4.1,1.57,8.2l.43,0,.26-4.26,1.52-.06c.39,3.94.78,7.88,1.14,11.56C172.64,481.19,172.88,474.79,169.7,481.14ZM180.91,494l-.9.1c-.17-1.38-.35-2.76-.45-3.58-1.1-.8-2.54-1.35-2.58-2-.2-4-.1-8.08-.1-12.12l1.13-.06,1.3,9.06c.18-1,.4-2.23.61-3.42h1Zm-.63-18.93c-.57-1.65-1.58-3.29-1.62-4.95-.3-11.32-.49-22.66-.49-34a83.3,83.3,0,0,1,1.07-10.89,10.5,10.5,0,0,1,1.29-2.82c.46,17.6.92,35,1.38,52.37Zm3.53,24.64q-.52-6.3-1.06-12.59c3.32,3.81,1.71,8.27,2.31,12.44ZM186.12,433c-.09,9.05.13,18.09.23,27.14.08,6.78.21,13.56.22,20.33a16.59,16.59,0,0,1-.74,3.49l-1.3,0c-.34-3-1-6-.94-9,.22-8.38-.47-16.68-.92-25-.49-9.07-1.49-18.82,3.64-27.4.09-.15.45-.14,1-.3C186.88,426,186.15,429.49,186.12,433Z"/><path d="M158.78,634.81c-.49,1.09-1,2.18-1.45,3.28-.12.26-.23.53-.35.8h3.21c.61-1.36,1.2-2.72,1.8-4.08Z"/><path d="M213.89,638.89h4.61q1.92-2,3.79-4.08h-4.56Q215.83,636.85,213.89,638.89Z"/><path d="M327.11,616c9-4.19,18.26-7.93,27.33-12,8.84-4,17.83-7.64,24.38-15.41,4.25-5,9.13-9.52,13.75-14.22a17.3,17.3,0,0,1,2.33-1.84c3.71-2.65,7.46-5.23,11.13-7.94,4.4-3.25,8.61-6.78,13.13-9.86s9.83-5.2,13.95-8.72c8.5-7.28,16.51-15.13,24.51-23a5.58,5.58,0,0,0,.85-4.93c-1.89-4.91-4.21-9.67-6.53-14.41-3.95-8-7.36-16.4-12.18-23.86-9.91-15.35-20.61-30.19-31-45.24-4.7-6.82-9.95-13.35-14-20.56a219.93,219.93,0,0,1-13.31-27.84c-4.59-11.86-7.72-24.22-7.23-37.17q.25-6.75.4-13.49c.06-3-.51-6.07.12-8.91,1-4.73,2.88-9.28,4.25-14,1.11-3.8,3.06-6.49,7.24-7.36,1.16-.24,2.25-1.55,3.08-2.6,9.15-11.58,13.67-25.14,16-39.41a20.58,20.58,0,0,1,6-11.76,40.18,40.18,0,0,0,10.85-16.82c2.7-8.22,5.11-16.3,4.66-25a12.58,12.58,0,0,1,.54-2.56c1.13-6.67,2.28-13.33,3.35-20,.63-3.93,1.14-7.88,1.64-11.82a9.75,9.75,0,0,0-.13-2.58c-.42-2.94-1.05-5.86-1.31-8.81s.25-6.08-.33-9c-.74-3.75-2.52-7.3-3.32-11s-.26-7.56-1.33-11c-3-9.81-6.86-19.36-9.88-29.17-2.73-8.89-4.95-17.92-9.95-25.92-2.3-3.68-4.69-7.31-7.12-10.91s-5.36-7-7.44-10.88c-2.55-4.72-4.67-9.42-8.36-13.69a74.74,74.74,0,0,0-18.65-15.5,39.08,39.08,0,0,1-3.45-2.91c-2.9-2.28-5.81-4.54-8.77-6.75-1.5-1.11-3.36-1.84-4.61-3.17-5.25-5.57-12-8.07-19.17-9.77-.78-.19-1.9,1-2.86,1.59.58,1,1,2.54,1.75,2.75,7.91,2.14,15,5.24,18.5,13.46a2.49,2.49,0,0,0,1.42,1.09c3.71,1.27,5.77,4.11,6.79,7.61,3.31,11.43,5.35,23,3.14,35-1.25,6.78-2,13.67-3.15,20.47a54.07,54.07,0,0,1-2.51,9.08c-.29.83-1.73,1.24-2.64,1.84l-1.26-.44c.34,2,.67,3.92,1,6,5.36-3.11,7.2-7.06,7.13-12.56a56.08,56.08,0,0,1,1.75-15.73,71.53,71.53,0,0,0,.89-36.22c-1.22-5.25-3.6-10.23-5.46-15.33,5.79,5.35,12.38,10.56,16.06,17.65s5.4,15.45,8,23.24l.95-.13A88.71,88.71,0,0,0,377,53.85,74.17,74.17,0,0,0,373.69,44c-1.16-3-2.58-5.93-3.89-8.9l1.55-.87c3.41,4.83,7,9.54,10.18,14.52,4,6.27,1.12,13.43,1.89,20.47,3-4.59,3.46-8.6,2.45-15.52,1.82,2.72,3.07,5.75,4.69,8.56a67.51,67.51,0,0,0,4.26,5.66,9.48,9.48,0,0,1,1.69,3c.55,2.16,0,5.39,1.32,6.44,4.13,3.31,2.29,7.63,2.91,11.51.43,2.63.7,5.28,1,7.93l1-.07c.25-2.6.5-5.19.77-7.95,1.05,2.2,2,4.18,2.94,6.16q-.24-3.93-.5-7.86l1.58-.28,11.22,34.78-1.54.66q-2.16-5-4.31-10l-1.39.49L420.14,141l.85-.2q-1-7.56-2-15.12l1.12-.2c1,3.7,2.44,7.35,3,11.12,1.48,9.69,2.36,19.47,3.94,29.14,1.25,7.68-.25,15.06-1.49,22.51a8.63,8.63,0,0,1-1.34,2.46c-1-3-2.06-6-1.29-8.45,2.44-7.57,1.87-15.19,1.31-22.8-.38-5.17-1.46-10.29-2.23-15.44l-1,.15c.36,3,.51,6,1.12,8.89,1.86,8.95.49,17.69-1.38,26.42-.39,1.83-1.4,3.62-1.39,5.42a84.19,84.19,0,0,0,1,9c.47,4.14.91,8.29,1.37,12.44l.65,0q1.95-4.56,3.88-9.12l1.46.54a80.06,80.06,0,0,1-2.5,7.68c-.86,2-2.42,3.71-3.33,5.7a44.81,44.81,0,0,0-2.09,6.34c-.84,2.89-2.45,5.9-2.18,8.7.58,6.15-2.49,10.63-5.78,14.92a15.07,15.07,0,0,1-7.3,5.23c-7.54,2-7,9-8.43,14-2.15,7.65-2.27,15.85-3.75,23.73-.5,2.62-2.51,5-3.82,7.41l-1.5-.61c4.25-9,5.36-18.4,4.15-28.21-.82,1.84-2.18,4.16-1.57,5.68,2.27,5.62-.42,10.38-2.08,15.21-2,5.86-7.54,7.74-12.83,9.6-.31.11-.73-.13-1.09-.1-1.38.09-2.76.22-4.62.37l4.5-13.18c-1.83,1.15-3.16,1.5-3.44,2.24-1.6,4.3-2.95,8.69-4.62,13.76-.58-1-1.94-2.18-1.89-3.33.31-7.52,3.59-13.72,9-18.9a21.06,21.06,0,0,0,2.37-3.33l-1.08-.89c-3,3.26-6.75,6.13-8.92,9.89s-2.76,8.33-4,12.56l-.77.31c-.62-3.24-1.25-6.47-2-10.14-1.56,4.86-2.61,9.51-4.54,13.76s.69,8.86-2.55,13.35c-2.11,2.92-.8,8.31-1,12.6l.88.13c.64-3.37,1.28-6.73,2.1-11,1.77,2.67-.4,18.83-1.93,20.07l-2.16-1.19-.48,3c5.54,1.57,5.65-2,5.69-5.57a4.78,4.78,0,0,1,0-.76c.57-3,1.14-6,1.72-9l1.17.17-.63,13.45,1.77,0c0-5.3.48-10.66-.16-15.89-.49-4-2.72-7.77-3.59-11.77-1-4.52,1-7.69,5.1-9.18.89,3.58-3.19,7.13-.06,11.36.82-3.26,1.47-5.86,2.16-8.62,3.33,1.22,3.38,2.53,2.66,5s0,5.38.06,8.1l1.1,0c-.47-9.69-.12-10.46,4.83-11.16-.24,2.74-.49,5.54-.73,8.35l.9.08,2-6.39,1.64.61c-1.5,3.6-3,7.21-4.51,10.87,5.27-2.61,5.47-2.91,6.09-8.22a3,3,0,0,1,.68-1.71c4.09-4.35,7.7-9.65,15.78-7.76-3.33,2.58-6.62,4.52-9.11,7.21s-4.43,6.34-6.6,9.56a1.67,1.67,0,0,1-.25.28c-2.61,2.39-8.18,3.3-10.38,1.74-1,3.35-2,6.76-3.14,10.54L359.47,322c.29,2.67.51,4.69.77,7l3.34-2.73c-.27,4.17-.52,8-.77,11.86l.91.08,3.18-14.49,1,.15.34,5c.85-2,1.29-3.09,1.72-4.14l1,.05A18.7,18.7,0,0,1,371,328c-.21,1.61-.64,3.2-1,4.79-2.36,11,1.92,21.66,2.24,32.56.17,5.87,3.1,11.61,4.31,17.51,3.26,15.93,11.6,29.57,20.33,42.71,11.27,17,24.14,32.87,36,49.48,4.07,5.71,7.17,12.12,10.6,18.28a4.37,4.37,0,0,1,.14,3.09c-.11.4-1.56.75-2.26.57-10.21-2.68-20.64-4.76-30.52-8.36-13.23-4.82-25.36-2.47-37.47,3.12-2.51,1.15-5.07,2.2-7.61,3.27C352.56,500.56,339.3,506,328,515.21c-1.66,1.35-3.39,2.61-5,4-11,9.62-23,18.33-32.71,29.12-16,17.76-30.46,36.91-45.67,55.4-6.8,8.26-13.68,16.47-20.83,24.43-2,2.23-4,4.43-6.09,6.63h4.56l.87-.94c9.93-11,19.3-22.61,28.77-34,8.83-10.67,17.47-21.49,26.22-32.22,9.21-11.29,18.86-22.11,30.5-31.07,7.75-5.95,14.8-12.82,22.64-18.64A145.44,145.44,0,0,1,350,506.65c6.86-3.63,13.95-6.84,21.05-10,5.86-2.59,11.71-5.66,17.89-7,7.53-1.61,15.29-.5,22.71,2,5.82,2,11.63,4,17.48,5.89,5.35,1.73,10.75,3.31,16.11,5,3.54,1.12,4.43,3.67,3.69,7.62-5,.23-10.06-.06-14.88.83s-9.19,2.94-13.77,4.48c0,.35.07.7.11,1.05a17.3,17.3,0,0,0,4-.05c7.71-1.84,15.35-3.88,23.42-3.23,3.31.27,5.93,2.8,5.09,6a14.24,14.24,0,0,1-3.14,5.43,68.64,68.64,0,0,1-6.09,5.57c-5.33,4.73-10.35,9.89-16.08,14.09-8.25,6-17.44,10.84-25.45,17.15-9.87,7.76-18.85,16.63-28.38,24.82-4.45,3.82-8.86,8.05-14,10.57-11.41,5.54-23.37,9.94-34.95,15.15a73.09,73.09,0,0,0-13.28,7.74c-6.48,4.79-12.62,10-18.93,15h6.94C308,627.5,316.88,620.78,327.11,616ZM420,229.27c.42-1.11-.31-2.62-.2-3.92.22-2.69.64-5.37,1-8.06l1.74.16c0,1.59.13,3.19,0,4.76-.64,6.91-1.14,13.9-7.9,19.29C416.7,236.92,418.54,233.16,420,229.27ZM404.66,249.6c2.23-2.14,4.91-3.81,8.12-6.22-2,6.55-7.19,9.74-10.45,14.89C400.08,254.09,402.46,251.7,404.66,249.6Zm-8,20c-.63-3.17,1-6.05,5.19-7.93a75.76,75.76,0,0,0-2,7.41c-.83,5.07-1.25,10.21-2.22,15.24-.38,2-1.79,3.79-2.74,5.67C396.79,283.19,398,276.63,396.63,269.56Zm-21.66,30c.8-4.55,3.44-6.43,8-5.29Z"/><path d="M292.53,634.81c-.87.69-1.74,1.4-2.63,2.09s-1.77,1.33-2.67,2h7.12a37.85,37.85,0,0,0,3.34-2.56l1.78-1.52Z"/><path d="M277,285.42c-4,5.3-9.33,6.21-15.46,4.79-2.24-.52-2.68-1.71-2.57-3.81.27-4.87,3.37-8,6.61-10.92,3-2.74,6.18-5.14,6.22-9.8,0-1.06,1.22-2.1,1.88-3.14l1,.32v14.61l1.46.1.73-12.67,1.1-.15c.34,2.47.61,4.95,1.06,7.39a10.49,10.49,0,0,0,1.14,2.46c.76-.62,2.19-1.26,2.18-1.87a37,37,0,0,0-.9-6.84c-.55-2.68-2.22-3-4.83-2.7-2.19.24-2.86-3.84-1.1-6.88l2.65,2.11c-.45-2.67-.75-4.52-.94-5.6l-4.66-.69c-.11.75-.27,1.88-.43,3.06l-2.79,1.26c-4-3.79-7.39-7.56-11.32-10.67-5.23-4.14-6.42-9.67-6.66-15.76,0-1.24-.13-2.48-.19-3.71l-1.21,0,1,12-.94.22-1.86-7-.53,0v9.83l-1,.07-1-7.51-1-.35c-.58,1.91-1.73,3.86-1.62,5.73.44,7.65,1.35,15.28,1.92,22.93a37.32,37.32,0,0,1-.36,5.79c-3.14,2.15-6,4.37-9.06,6.13-3.78,2.14-7.62,4.42-11.73,5.68-4.61,1.41-13.54,0-16.92-5.74-2.38-4-6.49-7.16-8.41-11.34-5.11-11.11-6.52-22.56-1.1-34.24,3.67-7.92,2.88-15.87.05-24.13-3-8.62-9.6-14.75-13.5-22.62-.6-1.2-1-2.51-1.48-3.76l1.08-.71a25.44,25.44,0,0,1,2.74,2.54c2.54,3.12,4.81,6.48,7.5,9.46,5.13,5.67,8.83,11.75,8.27,19.85-.34,4.9,0,9.84-.05,14.76a5.62,5.62,0,0,1-.62,2.48c-6.36,11.84-5.9,23.86-.1,35.55,2,4.08,5.92,7.25,9.34,11.29-2.39-5.67-4.57-10.59-6.55-15.59-3.4-8.62-2.43-17.16,1.16-25.42a56,56,0,0,0,4.29-22.89c0-7.45-3.16-13.92-8.33-19.33a41.22,41.22,0,0,0-4-4c-8.43-6.64-11.19-15.76-11.78-26-.56-9.72.13-19.23,4.59-28a31.29,31.29,0,0,1,7-9.27c8.14-7.12,15-14.83,19.13-25.19,3.13-7.76,9.62-13.05,18.35-15,5.28-1.15,10.47-2.8,15.65-4.37,6.92-2.09,10.05-7.9,13.49-13.59,2.33-3.86,3.75-8.4,8.75-10.55,3.26-1.4,5.69-4.75,8.48-7.23l.72.67c-2.22,2.53-4.18,5.36-6.71,7.53a27.34,27.34,0,0,0-9.34,14.54,5.49,5.49,0,0,1-1.42,2,73.64,73.64,0,0,1-5.35,5.8,12,12,0,0,1-4.19,2.21c-5.84,1.9-11.7,3.76-17.61,5.44-10.4,3-17.28,9.23-20.91,19.69a38.57,38.57,0,0,1-11.57,16.53c-4.3,3.7-8.81,7.47-12,12-4.73,6.7-4.26,14.81-3.7,22.67.24,3.39.19,6.9,1.13,10.11a40.45,40.45,0,0,0,5,11.5c2.8,4.09,6.72,7.4,9.95,11.22,7.12,8.39,9,18.21,6.71,28.71-1.93,8.85-4.6,17.55-6.87,26.33a8.35,8.35,0,0,0-.22,3.74c.84,3.6,1.92,7.15,3,11.11,1-2.6,1.92-4.82,2.8-7h1.15c-4.49,9.95-.46,17.27,6.71,23.64-2-5.13-4.46-9.89-3.89-15.91.66-6.93,5.52-9.14,9.95-12.23l1,.83c-.82,1-1.45,2.3-2.5,2.86-8.58,4.53-6.41,14.23-3.52,20.45,1.89,4.05,5.41,3.17,8.68,2.69,3.59-.53,5.75-2.66,5.45-6.39-.64-7.95-1.5-15.89-2.27-23.83l-1.21-.25c-.4,1.36-1.16,2.73-1.13,4.08.15,6,.55,12.07.81,18.11.08,1.81,0,3.63,0,6.51-1-1.3-1.6-1.71-1.63-2.16-.49-6.76-.57-13.57-1.42-20.28s3.58-9.35,8-11.8c5.69-3.16,7.08-8.75,9.33-14,.63-1.46,1.25-2.92,1.88-4.39l1.2.23c-.28,2.52-.56,5-.92,8.26,3.09-4.56,3.87-9.15,4-14,.24-7.19-3.52-13.18-5.67-19.67-1.79-5.43-2.74-11.14-4.07-16.73l1.45-.37c.71,2.8,1.26,5.66,2.18,8.39,1.52,4.52,3.27,9,5,13.44,1.57,4.14,2.87,8.21,2.09,12.84-.39,2.34.44,4.89.72,7.35h1.26c0-3.34.06-6.69,0-10-.09-3.5.08-7.08-.62-10.48s-2.59-6.58-3.5-10c-.83-3.13-4.28-5.53-3.2-9.18l1.38-.46c2.31,6.67,4.58,13.36,7,20,.29.8,1.34,1.3,1.89,2.06.94,1.3,1.77,2.7,2.79,4.28,3.61-4.23-5-5.63-1.63-9.91,1,1.18,1.93,2.29,2.93,3.27a8.69,8.69,0,0,0,2.86,2.22c.6.21,1.79-.6,2.32-1.26.21-.26-.47-1.86-1-2-6.05-1.92-3.72-7.68-5.48-11.53,1.8,2.72,3.31,5.73,5.5,8.1,1.86,2,4.49,3.33,6.83,4.87a1.45,1.45,0,0,0,1.27-.35,3,3,0,0,0-.11-1.95,9.1,9.1,0,0,1-1.85-3.78l4.61,1.46c-4.29-5.53-6.64-11.64-6.14-18.52.46-6.36-.49-13,2.35-19l1.64.29c-.49,2.34-.92,4.69-1.47,7-1.53,6.51-2.11,13.08.67,19.3,1.62,3.62,2.28,8.39,8.31,9.64-6.94-10.82-8.37-22-5-33.7a57.49,57.49,0,0,1,4.2-10.48c-3.45,15.39-6.91,30.63,4.32,44.78a10.09,10.09,0,0,0,.91-.88c.2-.28.35-.61.66-1.17a11,11,0,0,1,1,1.15,19.21,19.21,0,0,1,1,2c0-1.83-.35-3,.06-3.71,3.4-6,1.9-11.79-.38-17.65-2.37-6.12-2.07-12.39-.49-18.62.74-2.89,2.29-5.12,5.56-4.44-.57,6.22-1.51,12.4-1.59,18.59-.08,5.89.73,11.8,1.14,17.7l1.08-.06,3-9.77.92.15a10,10,0,0,1-.31,2.08,16.38,16.38,0,0,0,.87,14.19c.5.95.21,2.35.17,3.54s-.21,2.28-.42,4.37l3.24-2.34c-.13,1.71-.23,2.92-.34,4.36l3.79,2.14c-.92-7.36,4.58-11,8.35-15.49,7.5-8.85,10.73-19,11.6-30.42.26-3.55,2.3-7,3.52-10.44l1.24.38c-1,3.48-2,6.92-2.79,10.44a44.8,44.8,0,0,0-1,8.16,22.36,22.36,0,0,1-5.52,14.39c-.36,2.19-.12,3.92-.81,4.47-9.65,7.55-13.3,14.9-13.85,26.22-.84-1-1.38-1.78-2-2.43-3.37-3.34-6.65-6.79-10.25-9.87a6.5,6.5,0,0,0-4.7-1c-8.72,1.35-18.06.63-25.59,6.38-3.26,2.49-6.82,4.89-6.27,10.31.4,3.91-1,8-1.21,12-.4,8.12,3.72,14.33,10.25,18.11,3.89,2.25,9.16,2.09,13.8,3.06a6.35,6.35,0,0,1,3.63,2l-3.34,1.74c.75,1.91,1.52,3.86,2.58,6.58.2-1.52.3-2.27.4-3l.92-.23c1.35,5.57,2.7,11.15,4,16.52,3-2.29,3.5-6.33,1.32-12.18-1.14-3-2.1-6.15-3.14-9.23l1.52-.8c.67.68,1.71,1.25,1.95,2,2.26,7.77,4.18,15.6,1.85,23.74-.2.7-.37,1.68-.88,2-4,2.28-8,4.43-12.09,6.61,1.66-2.37,3.31-4.75,5.23-7.5-5.14-.93-7,2.92-9.13,4.75-1.64-.68-3-1.76-3.76-1.45a32.59,32.59,0,0,0-5.92,3.55,2,2,0,0,0,.51,1.5,1.9,1.9,0,0,0,1.63-.22c1.12-.74,2.13-1.63,3.81-3v5.4Zm-35.74-47.79c-6,4.9-.6,11.28-2.45,16.66l-1,.07c-.47-4.49-.93-9-1.39-13.36l-4,1c.88,9.38,1.77,18.76,2.71,28.72,2.2-.81,4.45-1.48,6.53-2.49a3.15,3.15,0,0,0,1.39-2.35,122.87,122.87,0,0,0,0-12.29C242.52,248.26,241.78,243,241.21,237.63Zm50.84-48.73c-4.54,3-4.25,5.12.81,10C296.91,194.93,290.72,192.62,292.05,188.9Z"/><path d="M329.23,187c.2,5.91-4.23,9.3-7.73,12.82-2.29,2.3-2.34,4-1,7-4.46.19-2.82-4-5-5.71-1,.84-2.72,1.56-3.31,2.8-1.45,3.08-2.4,6.39-3.68,10,5,0,4.44-3.76,5-6.59l1.31.39L312.75,217l1.25.58,4.74-7,1.32,1.24-5.18,6.49,5.48-.88c-1.63,2-2.51,3.66-3.92,4.57-5.12,3.32-5.13,8.46-5.19,13.58a4.64,4.64,0,0,0,1.33,2.65c3.29,3.82,3.08,7.47,1.33,12.46-1.14,3.27-.21,7.25.29,11,1.06-3.93-.6-8.61,4.2-11.5,0,1.1.39,2.35-.07,2.9-3.37,4.09-1.14,8.42-1,12.74.23,6.55-.3,13.11-.49,19.67-.05,1.74,0,3.48,0,5.74l2.63-1.71c-.49,14.21-1,27.93-1.42,41.35-2.37-2.76-1.36-6.61-1.34-10.32.07-9.27,0-18.53,0-27.8l-1.25-.11-1.77,17.17h-.79V294.86l-1.5-.16q-.87,6.33-1.75,12.66l-1.1-.06-.66-8.38-1.08,0-.18,4.07c-5.1,1.7-5.57,2.52-4.85,8.41a9.85,9.85,0,0,1,.16,1.79c-.29,4.95-.68,9.9-.9,14.86a54.8,54.8,0,0,0,.27,5.57l-1.31.4c-.48-1.42-1.44-2.86-1.36-4.25.34-5.75,1.14-11.49,1.44-17.25.09-1.71-.91-3.49-2-5.13-.67,4.47-1.61,8.92-1.93,13.42s-.08,9.25-.08,13.88h-1.37v-23.6l-1.11-.23c-.32,1.27-.67,2.54-1,3.82s-.55,2.71-1,5.18l-1.43-5.47-1.1,0q-1,12.18-2,24.35l-.9,0V318.3l-1.37-.1-1.93,15.38-.68.09V320.52l-1.61,0q-1,11.4-2.06,22.81l-.75-.05V323.43l-1.4,0q-.87,11.52-1.75,23.05h-1.11V328.94l-1.66-.07-1.23,20.75-1-.05V330.38l-1-.16c-.66,1.75-1.32,3.51-2.14,5.71-.21-1.63-.35-2.77-.49-3.91l-1.14-.06c-.74,9.38-1.48,18.76-2.24,28.36-3.11-3.07-3.19-6.16-1.63-9.72.39-.9-.82-2.39-.8-3.6a30.34,30.34,0,0,1,.82-4.85c.63-3.5,1.3-7,1.85-10.53.07-.48-.43-1.06-1-2.35l-3.24,4.44-1.27-3.37c-3.08,2-3.08,2-1.09,16.52.58.72,1.74,1.52,1.66,2.16-.59,4.6-1.42,9.18-2.23,13.75-.07.4-.51.73-1.11,1.55l-.52-4.13-.94-.09q-.5,6.58-1,13.17l-1.25,0V363.07l-1.32-.09q-.57,7-1.16,13.95l-1,0V365.43l-1.58-.09q-.7,8.15-1.4,16.29l-1,.08-1.11-5-1.06-.07c-.25,3.1-.49,6.2-.74,9.3l-.93.05-.66-4.77-.56,0-1.47,10.52h-1.11q-.41-4.56-.83-9.12l-.36-.05q-.85,6.93-1.7,13.87l-.89-.05V384.79l-1.27-.08q-.72,8-1.43,16l-1.21-.08c.31-6.31.63-12.62,1-19.36-3.52,8.83-2.81,18-3.42,26.87l-1.38-.12V388l-.77-.09q-1.24,12.79-2.47,25.59l-1.07,0V400.28l-1.1-.15q-.65,5.65-1.28,11.31l-.75.14c-.31-1.52-.62-3-1.15-5.58-.63,5.59-1.15,10.17-1.67,14.75h-.85v-9.26l-1.44-.12q-.94,12.33-1.88,24.65l-1.53,0V421l-1.48,0c-.45,2.83-.91,5.67-1.36,8.51l-.78-.05V417.47l-1-.08c-3.55,10.95-1,22.57-3.07,33.73-2-10.88.4-21.78-.93-32.67-3.1,16.17-2.35,32.68-2.75,49.09l-1.06-.07V419.61l-.13.15c2-2.78,3.48-5.58,1.65-9.14-.46-.89-.21-2.18-.2-3.28q.08-6.76.21-13.54a5.77,5.77,0,0,1,.86-3.22c3.74,6.22-1.36,13.16,1.59,20.25a23.94,23.94,0,0,0,3.25-13.3c-.23-4.37-.5-8.74-.32-13.14,4.68,6.9.45,14.43,2.37,22,.68-1.58,1.85-3.12,2-4.74.41-6.15.48-12.32.69-18.48,0-1.41.15-2.81.23-4.21l1.42,0v22.17l1.67.05c2.32-8.62,2.39-17.52,1.64-26.52l1.71.07v20.73l1.45.06c3.94-7.33,2.11-15.53,2.41-23.41h1.36l.84,15.62c4.17-5.77,2.59-12.45,4.53-18.61v12.66c4.75-7.37,2.75-15.49,3-23.32h1.2l.9,18.85,1,.1c2.6-6,1.19-12.85,3.8-19.27a10,10,0,0,1,.71,2.85c-.26,4.71-.66,9.41-1,14.11l1.28.16q1.14-5.88,2.29-11.76l.56.05c.17,1.4.35,2.81.59,4.83,3-2.86,3.41-6,3.51-9.39s.47-6.6.73-9.91l1.11,0V363.4l1.41.09a52.51,52.51,0,0,0,2.46-19.92l1.31.1v12.49l1.62.24c.7-2.76,1.84-5.5,2-8.29.28-4.76-.06-9.55-.12-14.32,0-2.23-.85-3.49-3.12-4.52a22.9,22.9,0,0,1-7.17-5.3c-4.5-4.9-3-10.73,3-13.43,5.85-2.62,11.65-5.37,17.48-8a11,11,0,0,1,1.92-.49l.41.93c-4.83,2.52-9.6,5.17-14.52,7.5-4.31,2.05-6.63,4.28-6.92,7.15a28.48,28.48,0,0,0,5.24-1.14c4.24-1.76,8.84-3.15,12.44-5.85,6.59-4.92,12.51-10.73,18.8-16.07a39,39,0,0,1,7.29-5.3c10.67-5.42,14.67-14.19,12.79-25.62-1-6.31-3-12.48-4.59-18.68-1.4-5.35-2.86-10.7-4.51-16a80.44,80.44,0,0,0-3.2-7.48,15.45,15.45,0,0,0-.7-1.67c-.66-1.17-1.38-2.3-2.07-3.44-.68.8-1.2,1.92-2.07,2.35a19,19,0,0,1-4.55,1.34c-1.7.34-3.45.5-5.38.77l-1-2.42c-5.1,3.66-3.16,9.22-4.27,13.66-1.35,5.4,2.68,9,6.58,12.89-1.26.06-1.91.28-2.38.08-7.43-3-10.18-9.83-7.47-17.3,1-2.77.74-6,1.56-8.85.44-1.54,1.68-3.55,3-4,4.61-1.58,9.38-3.2,14.17-3.55,3.22-.24,6.07,2.34,7,5.87,1.68,6.33,3,12.76,4.84,19,2.35,8,5.88,15.68,7.38,23.78,1.19,6.41.19,13.24-.09,19.87,0,1-1.32,2.1-2.27,2.82-5.62,4.24-11.43,8.24-17,12.58C278,300.1,272.22,305.43,266,310.11c-5.15,3.86-10.22,8-16.52,10-.84.28-2.11,1.24-2.07,1.81a4.29,4.29,0,0,0,1.65,2.72c6.13,4.45,15.26,3.78,20.92-1.27,6.53-5.82,12.95-11.79,19.81-17.2s14.3-10,21.19-15.37c1.53-1.19,2.53-4,2.52-6.08,0-7.12-.58-14.25-1.05-21.37-.34-5.14-.6-10.31-1.39-15.4-1.62-10.4-3.58-20.76-5.38-31.14-.11-.59-.37-1.33-.14-1.79,2.93-5.89,5.71-11.88,9.06-17.52,1.23-2.07,3.89-3.27,5.89-4.86-1.38,2.45-5,3.7-4,7.76,1.81-.93,3.63-1.53,5-2.66a5.1,5.1,0,0,0,1.51-3.43c0-.49-1.68-1.06-2.6-1.59l8.95-5.67Zm-120,222.3c-3.37,3.39-3.48,6.12-.67,8.64C208.81,414.83,209,412.05,209.24,409.28Z"/><path d="M302.14,12.17l-2.59-1.46,9.07-6.32A18.23,18.23,0,0,0,305.75,4c-9.65.41-19.3.77-28.94,1.33-8,.46-16,1-24,1.87-3.43.36-7.47.7-10,2.64-6.17,4.73-13.93,4.83-20.55,8.17-3.22,1.61-7.57.85-11.37,1.43-9.41,1.45-18.57,3.66-27.3,7.75a39.86,39.86,0,0,1-13,3.36c-13,1.2-24.05,6.94-34.71,13.69-4.62,2.92-8.66,6.74-13,10.11A16.58,16.58,0,0,1,120,56c-9,4.39-17.15,9.91-23.53,17.8-5.24,6.48-8.5,13.92-11.12,21.74-1.11,3.3-2.7,6.45-4.08,9.66-.59,1.38-1.3,2.71-1.81,4.12-.42,1.18-.36,2.62-1,3.62a43,43,0,0,1-3.8,4.55c-.19-1.82-1-3.83-.46-5.43,2.39-7.55,5.3-14.93,7.73-22.46,3.63-11.27,11.22-19.65,20-26.9,6-4.94,13.3-8.34,19-13.51,6.49-5.83,13.81-10,21.4-13.9A119.93,119.93,0,0,1,170,25.57c7.19-1.7,14.17-4.3,21.32-6.17,6.2-1.63,12.53-2.75,18.79-4.18,4.41-1,8.78-2.24,13.2-3.2,3.3-.72,6.73-.9,10-1.82,3.57-1,7-2.69,10.47-4,4.24-1.54,8.43-3.38,12.81-4.32,3.83-.82,7.89-.6,11.85-.79,6.9-.35,13.81-.8,20.72-.94a228.82,228.82,0,0,1,23,.2c4.07.33,8,2.43,13.13,4.1C322.93,6,321.7,7,320.36,7.69c-7.56,4.19-15.25,8.14-22.68,12.55-5.82,3.45-11.67,5.46-18.61,4.62a135.3,135.3,0,0,0-18.35-.66c-2.54,0-5.05,1.17-7.58,1.78-10.76,2.58-20.23,6.91-27.06,16.37-3.77,5.2-9,9.34-14,14.37-.51.86-1.09,2.7-2.33,3.77-5.52,4.73-11.38,9.06-16.83,13.87A53.91,53.91,0,0,0,180.19,92c-1.61,3.39-1.95,7.54-2.15,11.39s.71,7.46.8,11.2a19.87,19.87,0,0,1-1,5.55c-3.4,12.45-3,24.92-.42,37.43,1,4.85,2.05,9.7,2.81,14.61-4.89-7.14-6.77-15.17-7.92-23.54-1.43-10.42,1.49-20.48,2-30.73.17-3.26.1-6.54,0-9.82-.23-11.9,3.08-22.41,12.24-30.51,6.58-5.81,13.29-11.46,19.94-17.18l2.53-2.2c-7.64-1.56-13.54.42-19.6,3.62C176.53,68.6,169.79,80,164.71,92.94a13,13,0,0,1-3.48,4.67c-3.1,2.75-5.64,5.6-6,10.06-.11,1.61-1.32,3.15-2.14,5-3.83-2.63-4.08-6-3.58-10,1,2.22,1.78,4.09,2.7,6.2,1.17-3.72,2.19-7,3.27-10.31.23-.68.6-1.71,1.1-1.85,5.44-1.48,5.68-6.51,7.39-10.54,3.79-8.93,8.94-17,16.49-23.14,6.71-5.41,15.15-7.19,23.4-8.81,8.77-1.72,15.61-5.77,20.25-13.63,5.36-9.06,13.74-14.4,23.84-16.28a141.51,141.51,0,0,1,23.82-2C282.91,22.05,293.71,21.63,302.14,12.17Zm12.24-4.43-.53-1.31-9.18,4.07.84,1.81Z"/><path d="M168.23,220.12c-5.28,2.65-9.36,2.18-11.06-1.21l2.83-1.45c-.15-.34-.22-.87-.45-1-5-1.87-9.28-4.4-10.55-10.17-.12-.56-1.05-1.42-1.52-1.37-4.24.5-5-2.78-6.58-5.51-1.77-3.1-4-5.94-6-8.9-3.58,3.22-8.52,1-10.82-4.53a25.6,25.6,0,0,0-4.9-.3c-1.37.17-2.63,1.06-4,1.46-2,.59-4,1.49-5.94,1.4A93.17,93.17,0,0,1,98.87,187c-.25,1.75-.38,2.67-.47,3.28l-4.56,2.26.28.81-4.7-.5-.32.88L94,196.3l-.38.92-4.17-.9-.65.91a29.53,29.53,0,0,0,4.86,2.52c.59.18,1.62-1,3.31-2.18,7.81-1.69,12.51,5.12,18.27,9.76s11,9.95,18.56,11.85a14.08,14.08,0,0,1,5,2.72c1.07.84,2.3,2.23,2.34,3.41,0,.9-1.65,2.59-2.67,2.67-5.69.48-7.95,6-12.51,8.09-1.51.68-2.76,2-4.28,2.56-.61.23-2.35-.64-2.36-1,0-1.11.26-2.68,1-3.24,1.32-1,3.1-1.32,6-2.44-1.77-.56-2.81-1.29-3.38-1-6.75,3.19-13.73,5.56-21.28,5.45a4.51,4.51,0,0,1-3.37-2.26,28.59,28.59,0,0,1-1.2-6.71c-.47-3.73-1.08-7.47-1.2-11.22-.08-2.42-.09-4.32-3.2-4.27a3.9,3.9,0,0,1-1.81-.52c-2.71-1.49-4.7-.82-6.4,1.72a48.4,48.4,0,0,1-4,4.54l-2-4.23-.92-.12c-.26,2.24-.56,4.47-.77,6.71s.64,4.69-2.32,6.23c-.69.36-.23,3.34,0,5.07.2,1.27,1.58,2.62,1.32,3.65-.33,1.33-1.79,2.37-2.76,3.53-.82-.91-2.08-1.7-2.39-2.76-2-6.86-.69-16.83,3-23.7l1.23,2.09,1.06-.19a41.35,41.35,0,0,0-.88-6.23c-2-6.75-4.24-13.45-6.38-20.17-1-3,.22-4.49,3.24-4.79v7.07l4.62-11.23,1.36.27a9.76,9.76,0,0,1,0,2.48c-.19.69-.89,1.23-1.2,1.91-.95,2.14-2.79,4.59-.23,6.48,2.39,1.76,4.44-.1,6.29-1.78s4.07-3,5.73-4.89c3.58-4,7.86-3.77,12.16-2.1,6.58,2.54,12.66,2.53,18.58-1.76a4.82,4.82,0,0,1,4.17-.31c3.78,2,7.24,4.52,11,6.54,6.27,3.36,9.35,9.72,14.05,14.54,2,2.05,3.44,4.61,5.25,6.84.5.61,1.53.77,2.13,1.34C159.88,212.05,164,216,168.23,220.12Zm-34.35,4.48c-1.91-3.09-5.9,2.15-8.13-2.23l5-.45c-5.65-3.72-11-7.26-16.41-10.82-4.34-2.87-8.49-6.1-13-8.57-4-2.18-5.46-1.26-7.48,3.63l7.66,3.57c2.84,1.32,5.92,2.3,8.5,4,4.48,3,8.66,6.44,13,9.68C125.94,225.7,131.33,226.25,133.88,224.6Zm-30.71-5.78,1.42,0c.24,3.3.39,6.62.77,9.9.12,1,.81,2.76,1.35,2.8a21.4,21.4,0,0,0,14.7-3.9c-2.64-2.49-4.66-5.06-7.27-6.69-3.72-2.32-6.88-6.67-12.42-4.78.52,3,1,5.86,1.51,8.68l.48-.09ZM83.69,205.3l2.78-.69c-3.79-1.25-3.3-7.81-8.09-7.6l-.93,1.06Z"/><path d="M395.56,111.68c2,8.34,3.7,16.17,5.8,23.89a73.78,73.78,0,0,0,6,15.27c2.5,4.74,2.51,10.91,3.11,16.5,1.14,10.7-3.25,20.55-5.17,30.79-.2,1.07-.35,2.14-.53,3.22.31.21.61.43.91.65,1.5-1.63,3.4-3.05,4.38-4.94s1.15-4.41,2.45-6.71c.27,1.92.55,3.85.83,5.77,1-3.14.9-6.5,4.63-9.65.33,5.61,1.88,10.63.59,14.76-2,6.42-1.47,12.93-2.71,19.3-1,5-.22,10.39-3.31,14.93-.42.61-.79,1.26-1.24,1.85-.1.13-.46.06-1.22.13l4.08-20.29c-2.14,3-5.25,4.75-5.75,9.19s-3.75,8.82-5.92,13.15c-.85,1.7-3.28,3-.36,4.9l-7,3.78c-1-2.83-.23-4.61,2.25-7,4.31-4.14,7.9-9.21,7.71-15.8a10.48,10.48,0,0,0-.5-2.17c-.77.65-1.86,1.15-2.27,2-1.29,2.61-2.06,5.5-3.52,8s-3.51,4.48-5.19,6.78c-1.22,1.67-2.27,3.48-3.53,5.44l2.86,1c-.56,1.86-1.12,3.7-1.78,5.88-2.59-4.36-1.65-11.78,2.33-15.47s6.12-7.44,5.49-12.77c-.08-.61.19-1.42-.11-1.83-3.39-4.69-1.71-9.47-.17-14.12,2.93-8.78,6.26-17.44,9.1-26.25.78-2.42.5-5.21.58-7.83.26-7.91-1.43-15.35-4.19-22.82-4.44-12-8.24-24.25-8.95-37.18A14.75,14.75,0,0,1,395.56,111.68Zm7.21,102.54.73,0c.45,1.18.91,2.36,1.5,3.88,3-4-.38-10.5,5.87-12.39v-6.82c-3.5,4.76-3.51,4.75-8.69,7a3.29,3.29,0,0,0-1.12.91c-2.5,3.07-1.94,12.34,1.11,15.32C402.38,219.37,402.57,216.79,402.77,214.22Zm12.17-13.11c-1.57,3.4-2.22,6.29-3.95,8.23-3.43,3.87-5.16,8.58-3.69,14.17.66-4,1.19-7.25,1.85-11.29l2.64,3.85C412.75,210.7,417,207.19,414.94,201.11Z"/><path d="M284.74,619.93a13.35,13.35,0,0,0,2.71-2.61c3.38-3.55,6.67-7.18,10.11-10.68,2.26-2.3,5-4.19,7-6.65,5.43-6.53,10.26-13.6,16-19.83,7.68-8.34,16-16.09,24-24.1,2-2,3.67-4.6,6-5.95,7.14-4.06,13.85-8.79,21.29-12.46,13.66-6.74,27.34-13.16,42-17.49,1.75-.52,3.11-2.3,4.66-3.5l-.77-1.44c-6.07,1.87-12.36,3.24-18.16,5.73-10.14,4.37-20,9.37-29.93,14.21s-20.22,9.69-28,18.15c-8.66,9.44-17.36,18.85-26,28.36-6.57,7.28-12.84,14.85-19.53,22-5.13,5.51-10.66,10.65-16.07,15.89-4,3.9-8.46,7.43-12.17,11.6-1.05,1.17-2.06,2.39-3.05,3.62h3.37C273.11,629.17,278.13,623.76,284.74,619.93Z"/><path d="M265,634.81c-1.08,1.34-2.13,2.7-3.17,4.08h3.12c1.14-1.36,2.27-2.73,3.42-4.08Z"/><path d="M261.79,638.89c-1.86,2.46-3.67,5-5.53,7.4a25.43,25.43,0,0,0-1.71,3.36,7.48,7.48,0,0,0,1.55-.8c.79-.81,1.51-1.69,2.3-2.51,2.26-2.39,4.4-4.91,6.51-7.45Z"/><path d="M161.56,602.48c1.41-3.35,3-6.65,4.45-10-1,0-1.37.33-1.57.74-4.63,9.59-9.7,19-13.78,28.82-1.76,4.23-3.48,8.48-5.19,12.74h2.58C152.5,624,157,613.24,161.56,602.48Z"/><path d="M145.47,634.81c-.54,1.36-1.09,2.72-1.64,4.08h2.53l.07-.19,1.62-3.89Z"/><path d="M136.15,664.65c3.32-8.62,6.7-17.21,10.21-25.76h-2.53"/><path d="M298.46,37.81c-1.31,1.12-2.48,3-3.94,3.23a36.31,36.31,0,0,1-10.5.51,40.13,40.13,0,0,0-24.33,4.55c-4.25,2.24-9.34,2.84-14,4.44a14,14,0,0,0-5.26,3.09C234.48,59.7,229,66.26,222.71,72c-3.73,3.45-8.58,5.64-12.75,8.65-10,7.23-16.54,17.07-20.34,28.66-2.86,8.69-5.14,17.57-7.72,26.34-.45,1.53-1.17,3-1.76,4.46l-1.15-.08c0-1.26-.31-2.62,0-3.76,3-9.57,6.56-19,9.14-28.67,3-11.41,10.7-19.66,17.87-28.31a11.88,11.88,0,0,1,4.37-2.83c6.27-2.77,11.8-6.26,15.82-12.15a54.41,54.41,0,0,1,9.88-10.84,35.4,35.4,0,0,1,11.25-6.58c4.6-1.52,9.42-1.84,13.62-5,4.7-3.53,10.68-3.17,16.34-3.48,6.81-.38,13.6-1,20.41-1.53Z"/><path d="M365.72,178.36c1.44-3.64,2.74-7.36,4.37-10.92,2.5-5.49,3.1-11.37,2.93-17.16-.31-10.37-1.23-20.72-2.17-31-.18-2-1.62-3.8-2.48-5.7l-1.28.14c-.2,5.34.23,10.81-.79,16-1,5-.17,11-5.54,15.25a7.49,7.49,0,0,1,0-1.76c4.54-11.57,3.89-23.72,3.29-35.69-.26-5.28-3.05-10.43-4.58-15.67a5.72,5.72,0,0,1,0-3.2c1.69-5.13,3.78-10.14,5.27-15.32a60.5,60.5,0,0,0,1.82-27.6c-.33-1.87-.55-3.77-.83-5.66l1-.31a15.42,15.42,0,0,1,1.45,2.71c2.55,8.39,2.26,17,1,25.46a77.61,77.61,0,0,1-5.42,18c-2.27,5.42-.79,10.23,1,15,2,5.18,3,11,8.16,14.55a3.78,3.78,0,0,1,1,2.65c.51,7.86,1,15.72,1.29,23.58a70.36,70.36,0,0,1-.65,7.48c-.15,2.15-2.72,4.76,1.61,6.06,1.63.49.8,4.18-.79,5.52a5.45,5.45,0,0,0-1.27,2.87C372.8,169.29,370.89,174.72,365.72,178.36Z"/><path d="M357.32,271.58l1.91,2.55,11.34-9.25.66.46L359.7,278.89l-.26-.39c-1.64,1.34-3.66,2.41-4.85,4.07-4.15,5.78-5.51,12.21-5,19.44.33,4.39-1.48,8.92-2,13.42s-.67,9.2-1.08,13.8a23.86,23.86,0,0,1-.82,3.49l-1.53-.19,1.72-26.76-1.61-.22q-1.25,6.7-2.47,13.42l-1.26-.11,1.17-13.68c.08-1,.5-2.07.16-2.84a3.46,3.46,0,0,0-2.2-1.6c-.33-.08-1.34,1.12-1.42,1.81-.33,2.87-.43,5.77-.61,8.66-.26,4.11-.5,8.22-.75,12.33l-1.39-.09,1.74-35.81.52.15L343,302l1.78-.27c.06-1.27.45-2.64.11-3.8-2.14-7.37-2.32-14.34,1.81-21.35,1.68-2.86,1.61-6.75,2.79-10.15.28,1.54.57,3.08.85,4.62l.69.06c.48-1.91.95-3.83,1.43-5.75l1.17.28c-1.15,4.38-2,8.87-3.58,13.1-1,2.65-3.15,4.83-4.57,7.33-1.89,3.34-1.14,6.65.29,10.38C349.77,287.85,353.5,279.82,357.32,271.58Z"/><path d="M256.52,194.87c-.85-3.38-1.82-5.81-2-8.31-.71-8.11-2.39-16.08-1-24.43.88-5.43-.38-11.22-.85-16.84a46.44,46.44,0,0,1,4.92-25.18c3.45-6.8,8.55-12.75,12.28-19.43,2.1-3.76,4.13-7.71,3.57-12.67-.27-2.36,2.16-5.13,3.71-7.49.31-.47,2.17.07,3.32.14-.45,1-.68,2.5-1.41,2.8-2.37,1-3,2.54-3.24,5C275,98,271.14,106.12,265,113.67a42.14,42.14,0,0,0-9.91,27.49c.07,4.39.54,8.76.78,13.14.22,3.86.46,7.72.52,11.58.11,6.79.09,13.57.12,20.36C256.53,188.79,256.52,191.34,256.52,194.87Z"/><path d="M278.08,141.12c2.24-2.81,4.56-5.57,6.71-8.46,1.8-2.4,3.92-4.76,5-7.49,2.7-6.93,6.53-13.32,6.56-21.4a49.72,49.72,0,0,0-2-15.77c-1.41-4.44-1.37-8.94,1.75-12.93,2.91-3.74,5.62-7.65,8.64-11.3,4.38-5.31,8-10.94,9.12-17.89a3.38,3.38,0,0,1,1.83-2.28,6.44,6.44,0,0,1,.11,2.49C313.07,52.92,311,60,305.91,65.8c-4.17,4.76-9.39,9.68-8.55,17,.53,4.72,1.89,9.34,2.67,14a17.31,17.31,0,0,1,0,5.7c-.68,4-1,8.13-2.63,11.72-3.82,8.57-8.29,16.85-12.69,25.64l-1.33-1.58L278,141Z"/><path d="M212.15,607.32c2.95-3.61,6.13-7,9.21-10.55a76.85,76.85,0,0,0-14.16,11.84c-6.68,7.49-12.9,15.4-19.12,23.29-.76,1-1.5,1.94-2.25,2.91h4.09C197,625.43,204.68,616.44,212.15,607.32Z"/><path d="M185.83,634.81c-1.05,1.36-2.12,2.71-3.15,4.08h4.18c.62-.83,1.23-1.68,1.86-2.51.39-.53.8-1,1.2-1.57Z"/><path d="M186.86,638.89h-4.18c-2.54,3.36-5,6.77-7.37,10.26"/><path d="M74.35,297l21.39,25.54c1.54-2,2.51-4,4.09-5.23,2-1.47,4.15-1.36,5,1.62.93,3.46,1.84,6.94,2.53,10.46.18.93-.51,2-.94,3.56l-3-2.75a21.36,21.36,0,0,1,.81,4.93c-.07,1-1.16,1.87-1.79,2.81a10.66,10.66,0,0,1-2-2.26c-1.76-3.87-3.35-7.82-5.07-11.72-.17-.38-.77-.56-1.17-.86-2.85-2.13-6-4-8.48-6.47a129.09,129.09,0,0,1-9-10.75,5.55,5.55,0,0,1-1.13-2.65c-.29-2.14-.35-4.31-.5-6.46Z"/><path d="M325.44,57c-1.24,3.34-2.49,6.67-3.72,10a13.57,13.57,0,0,0-.94,2.8c-.92,6.83-1.86,13.66-2.6,20.51a41.59,41.59,0,0,0,.12,7.14,32.35,32.35,0,0,1-7.07,22.78c-5.69,7.39-11.86,14.74-12.75,24.76-.12,1.36-1.44,2.79-2.55,3.8-.38.34-2.11-.3-2.74-.95-.39-.42-.14-1.83.26-2.56,1.51-2.83,3.17-5.57,4.82-8.31,3.35-5.59,6.57-11.26,10.13-16.7,4.5-6.88,8.48-14.08,7-22.48-1.12-6.25,1.29-11.53,2.37-17.24a54.45,54.45,0,0,0,.59-10.69c-.07-5.54,2.43-9.66,6-13.31Z"/><path d="M148.3,100.78c-.81-4.23-2.13-8.43-2.3-12.68a51.69,51.69,0,0,1,1.33-13.87,22.62,22.62,0,0,1,4.75-9.2c8.13-9.4,17.47-17.36,29.74-20.85,4.39-1.24,9-1.72,13.5-2.55l.67,1.44c-1.24.75-2.39,1.86-3.73,2.19-4.51,1.1-9.45,1.15-13.57,3a84.16,84.16,0,0,0-15.5,9.7c-8.88,6.73-12.16,17.09-15.5,27-1.13,3.36.8,7.76,1.36,11.67.18,1.31.48,2.59.72,3.89Z"/><path d="M306.28,187.08c1.14-2.88,2.34-5.74,3.39-8.65a27.43,27.43,0,0,0,.74-3.54,24.9,24.9,0,0,0,.66-2.5,18.43,18.43,0,0,0,.19-4.06c-.19-1.67-1.41-3.58-.92-4.92,1.6-4.27.58-8.41.44-12.66-.13-3.95.66-7.95,1.31-11.89.17-1.06,1.34-2,2.43-2.81-1.14,6.54-2.88,12.95-1,19.76,3.18-7.47,5.27-15.55,12.64-20.06l1.09.74a27.1,27.1,0,0,1-2.6,3.54c-8,7.87-11,17.46-9.81,28.42.9,7.9-3.13,13.53-7.45,19.15Z"/><path d="M240.41,634.81a8.67,8.67,0,0,0-1.88,4.08h3.24a5.34,5.34,0,0,1,2.53-4.08Z"/><path d="M245.91,633.82c2.84-1.46,6.11-2.91,8-5.32,3.44-4.51,7.08-8.38,12.62-10.11.07,0,.09-.22.25-.66-5.23,1.17-10.82,1.08-13.21,7.15-1.52,3.87-4.72,5.47-8.42,6.8a10.63,10.63,0,0,0-4.69,3.13h3.89A11.66,11.66,0,0,1,245.91,633.82Z"/><path d="M241.77,638.89h-3.24a12.86,12.86,0,0,0,0,3.93c.35,2.53-.86,3.72-2.87,4-4.73.77-5.68,4.21-6.5,8.09a13.23,13.23,0,0,1-2.42,4.79,22.75,22.75,0,0,1-3.53,3.19c5.76.34,9.41-2.93,9-7.82a5.69,5.69,0,0,1,3.07-6,18.51,18.51,0,0,1,5.11-2.42c3.16-.68,3-2.25,2.05-4.67A7.48,7.48,0,0,1,241.77,638.89Z"/><path d="M326.68,330V284.24c4.22.05,6.5-3.16,5.47-8-.71-3.34-2.54-6.42-3.64-9.7a8.5,8.5,0,0,1,0-4.77c2.44,6.91,8.52,12.86,5.35,21.06-.65,1.69-.24,4-3.28,4.15-.73,0-1.88,2.43-2,3.78-.54,10.53-.88,21.07-1.24,31.61-.09,2.53,0,5.07,0,7.61Z"/><path d="M341.47,100.62c-.57-4.88.22-10.52-2-14.49-4.77-8.62-4.24-17.1-2.27-25.93,1.2-5.43,2.8-10.76,4.22-16.14l1.75.47c-1.05,3.71-2.33,7.37-3.09,11.14-1.53,7.59-3.39,15,.56,22.77,2.3,4.49,3.34,9.75,4.19,14.79.46,2.7.3,6.14-3.42,7.39Z"/><path d="M379.91,194.74c-.82,6.71-1.66,13.45-6.43,18.86-3.88,4.4-7.4,9.32-12,12.87-5.66,4.41-12.25,7.61-18.41,11.39a31.64,31.64,0,0,0-3.43,2.71,37.76,37.76,0,0,1-4.29,3.25c3.47-7.29,10.48-10.07,16.76-14,5.65-3.54,10.64-8.2,15.63-12.69a38.4,38.4,0,0,0,6.43-7.91,27.45,27.45,0,0,0,2.67-6.91c.78-2.57,1.29-5.23,1.91-7.86Z"/><path d="M135,240.16c-.13,1.06.08,2.35-.45,3.15-4.32,6.47-7.66,14.12-17,14.89-2.25.18-4.5.94-6.7.78-1.06-.08-2-1.67-3-2.58a11,11,0,0,1,2.75-1.81c3.88-1.1,8-1.62,11.67-3.13,2.18-.89,3.88-3.13,5.59-5,2.08-2.23,3.93-4.66,5.88-7Z"/><path d="M392.7,71.59c.13,1.52.72,3.17.33,4.53-2.5,8.64-4.1,17.47-3.53,26.39.41,6.44,2.32,12.8,3.59,19.19.45,2.32,1,4.63,1.51,7.32C386.5,121.7,384.7,81.29,392.7,71.59Z"/><path d="M244.83,18.69c-.65.59-1.2,1.5-2,1.71-3.84,1.06-7.77,1.84-11.62,2.92-7.41,2.08-14.68,4.53-20.22,10.31-1.92,2-3.62,4.22-5.63,6.12-.91.86-2.34,1.17-3.53,1.73l-1-1.42c5.74-5.19,11-11.06,17.34-15.37,7.72-5.25,17.52-4.15,26.06-7.28Z"/><path d="M322.42,206.18a28,28,0,0,1,3.84-1.86c2.33-.65,3.29-2.25,4.66-4.19a20.24,20.24,0,0,1,8.62-6.89c8-3.16,13-8.56,14.95-16.85a4.88,4.88,0,0,1,2-2.73,8.71,8.71,0,0,1,.16,2.76c-2.39,8.6-6.89,15.54-15.37,19.32a18.25,18.25,0,0,0-9.13,8.55C330.34,207.74,328.14,208.1,322.42,206.18Z"/><path d="M361.15,185.29c-2.86,5.63-4.41,12.89-8.9,16.51-6.3,5.1-12.84,11-21.55,12.46a7.52,7.52,0,0,1-3.9-.22c7.85-1.59,14.32-5.86,19.6-11.12s9.22-12,13.74-18.15Z"/><path d="M348.14,29.85a35.88,35.88,0,0,1-11-8.39c-2.37-2.64-6.14-5.77-9.15-5.64-3.25.15-4.75-1.17-6.76-2.6-.17-.12-.18-.45-.27-.68,2.64-3.49,3.32-3.48,6.54-1.09s6.69,4,9.66,6.48C341.26,21.37,346.45,23.9,348.14,29.85Z"/><path d="M345.5,216.11c-3,4.79-8,8.26-14.07,10.39-7.13,2.49-9.79,8.5-11.37,15.23a29.06,29.06,0,0,1-1.58,5.22c-.2-7.31-.52-14.74,6.33-19.65,2.08-1.49,4.64-2.31,6.92-3.55C336.53,221.14,341.29,218.45,345.5,216.11Z"/><path d="M341.51,173.78l16.2-22.59C358.37,158,349.35,171.55,341.51,173.78Z"/><path d="M372.76,97.55c-2.41.92-2.73-.82-2.54-2.34.71-5.56,1.31-11.16,2.57-16.61.81-3.49,2.71-6.72,4.36-9.84q-2.19,14.4-4.39,28.8Z"/><path d="M322.2,311.29V276l.93-.37c.65,1.48,1.87,3,1.84,4.44-.12,7.61-.53,15.22-.91,22.82-.14,2.84-.46,5.68-.71,8.51Z"/><path d="M368.74,191.75c-1,9.72-10.53,27.6-21.14,30.46A63.84,63.84,0,0,0,368.74,191.75Z"/><path d="M372.76,97.56c2.31,4.92,4.9,9.74,6.87,14.8,1.85,4.77,3.07,9.79,4.56,14.71l-1.3.46a6,6,0,0,1-.84-1.26c-1.68-5-3.33-10.08-5-15.12-.12-.35-.14-.9-.38-1-5.77-2.81-3.22-8.2-3.92-12.58Z"/><path d="M388.48,154.54c2.91,3.1,5.43,17.25,4.49,23.65C390.05,173.57,388.07,163.4,388.48,154.54Z"/><path d="M273,17.69c-3.11.07-6.22.08-9.33.23-3.95.18-7.9.47-11.84.75-.74.06-1.54.6-2.18.43a11.49,11.49,0,0,1-2.56-1.45c.75-.49,1.47-1.36,2.25-1.41,5.38-.33,10.77-.51,16.16-.68,2.44-.08,4.88,0,7.32,0Z"/><path d="M367,243.91l-6.86,3.72,5.75,3.11-.69,1.38-7.54-3.4v13.92C352,253.57,356.26,245.38,367,243.91Z"/><path d="M334.75,253.16c1.05,4.6,1.38,9,4.79,12.92,2,2.31,2.33,6.23,3,9.51.21,1-.85,2.17-1,2.57-2.17-4.82-4.32-9.83-6.68-14.74A11.23,11.23,0,0,1,334.75,253.16Z"/><path d="M301,170.77a49.28,49.28,0,0,1,2.15-4.93c2.13-3.78,2.43-7.64,2-12-.52-4.7-.05-9.52.23-14.27a4.62,4.62,0,0,1,2.43-3.29c-.17,1-.26,2-.51,3a45.16,45.16,0,0,0-.92,14.91c.38,4.62-.75,9.41-1.55,14.07-.2,1.2-1.64,2.19-2.52,3.28Z"/><path d="M318.88,21.35c-.35.59-.6,1.57-1.06,1.69-4.76,1.22-7.79,4.92-11.51,7.64-.69.51-1.79.46-2.71.67,0-1-.44-2.64.06-3,2.85-2.19,4.28-6.62,9.35-5.54,1.55.33,3.52-1.33,5.3-2.07Z"/><path d="M234.15,227a57.51,57.51,0,0,1-16.46,17.19l-.91-.83q8.1-8.61,16.19-17.24Z"/><path d="M319.76,21.08l10.82-1.22c2.15,1.66.86,5,.7,8l-12-5.8Z"/><path d="M417.35,157.08c-2-10.47-7.05-20.23-6.29-31.31q3.76,15.51,7.54,31Z"/><path d="M304.74,554.63l27.69-8.38.58.69c-.75.75-1.38,1.9-2.28,2.17-8.1,2.42-16.25,4.68-24.39,7a3.19,3.19,0,0,1-1.09-.1Z"/><path d="M377.42,152.86c1.05-8.43,2.05-16.5,3.05-24.57l.95,0c.13,2.77.47,5.54.34,8.29-.18,3.84-.87,7.65-1,11.49C380.6,150.7,380.19,152.74,377.42,152.86Z"/><path d="M393.62,182v21.51l-1.82.21c-.37-1.73-1.13-3.47-1-5.16.28-4.59.92-9.15,1.44-13.71.11-.94.32-1.87.49-2.8Z"/><path d="M352.13,59.83c-1.33-7.41-2.55-14.19-3.86-21.46l1.76-1.1C352.33,39.15,354,55,352.13,59.83Z"/><path d="M381.24,95.46a42.45,42.45,0,0,1,1.29-23.52l1.41.13Z"/><path d="M278,603.19l-24.6,7.38-.52-1.66,24.49-7.29Z"/><path d="M380.44,266.23c1.33,6.34-1.66,13.43-7.28,14.5,1.16-2.11,2-3.49,2.7-4.94.85-1.78,1.64-3.6,2.32-5.45.53-1.45.85-3,1.26-4.45Z"/><path d="M366.1,255.76c-.41-7.7,8-6,10.19-10.76C375.58,251.21,371.61,254.16,366.1,255.76Z"/><path d="M341.43,100.62c.31,1.06,1.15,2.29.86,3.15-2,6.1-4.24,12.12-6.41,18.17l-1.67-.6q3.65-10.35,7.27-20.7S341.43,100.62,341.43,100.62Z"/><path d="M331.6,330.32V301.16l1.77,0q-.78,14.52-1.55,29Z"/><path d="M106.36,260.21,97,254.89c1.84-3.09,4.29-2.33,6.32-1.4C105.74,254.62,108.4,256.07,106.36,260.21Z"/><path d="M244.81,35.48c-5.77,4.1-10.94,7.77-16.17,11.5C231,41.28,239.12,35.22,244.81,35.48Z"/><path d="M356.43,135.73l-3.33,19.53-1.35-.19c.27-2.07.64-4.14.77-6.22.15-2.34-.24-4.75.2-7s1.57-4.13,2.4-6.18Z"/><path d="M283.56,574.88c4.83-4.35,11.46-3.82,17-6.26l.52,1.38-16.92,6.15Z"/><path d="M392,209c-.56,5-1.08,9.58-1.63,14.53-1.51-1.19-2.31-1.82-3.47-2.75.52-1.2,1.3-2.74,1.85-4.36.32-1,.69-2.25.3-3C387.65,210.64,389.2,209.81,392,209Z"/><path d="M247.11,244.69c3.36,5.77,2.33,11.94,2.43,18l-1.31.11Q247.68,253.75,247.11,244.69Z"/><path d="M331.63,32.34c3,5.61,1.88,11.91-1.79,13.61C330.46,41.21,331.05,36.77,331.63,32.34Z"/><path d="M278,141c-1.09,3.88-2.12,7.78-3.32,11.62-.13.41-1.2.52-1.84.76-.32-.85-1.16-2-.87-2.5,1.91-3.34,4.07-6.53,6.14-9.78A.9.9,0,0,0,278,141Z"/><path d="M303.61,322l.87-16.89c2.45,3.71,2.2,12.39.12,17.05Z"/><path d="M385.89,134q1.5,9,3,18l-1.5.25q-1.39-9-2.8-18Z"/><path d="M378.82,188.16q-.76-10.49-1.55-21l1.26-.1L380.3,188Z"/><path d="M173,419.4c-.34-.51-1-1-1-1.54.4-5.68.91-11.36,1.4-17l1.09-.1a26.81,26.81,0,0,1,.37,5c-.5,4.56-1.25,9.1-1.89,13.64Z"/><path d="M329.34,187.08c-1.32-4.6,1.39-7.63,4.33-10.4.61-.58,2.14-.18,3.24-.23-.63.75-1.28,1.49-1.89,2.26-1.26,1.62-2.55,3.23-3.74,4.9-.77,1.06-1.38,2.24-2,3.36Z"/><path d="M383.61,278c1.17,5-.87,7.86-7.18,10.72Z"/><path d="M319.41,257.17c.59,4.88,1.23,9.75,1.69,14.64.06.64-.79,1.36-2,1.74V257.14Z"/><path d="M242.49,199.08c4,5.51,3.58,11.95,3.42,18.33Z"/><path d="M286.75,587.92,269,594.17l-.44-1.16,17.74-6.37Z"/><path d="M351,106.44q1.8,7.25,3.62,14.49l-1.52.38q-1.86-7.28-3.73-14.57Z"/><path d="M224.32,270c-1.6-5.48-3.84-10.9-2.45-16.65l1-.09Q223.58,261.65,224.32,270Z"/><path d="M347.76,251.35c.56,3.3,1.11,6.61,1.75,10.42-3-1.16-6.12-1.29-3.35-5.31.86-1.26.4-3.43.55-5.19Z"/><path d="M418.92,164.09c-.28,2.65-.37,4.76-.79,6.79a9.55,9.55,0,0,1-1.63,2.65c-.57-.38-1.58-.71-1.63-1.15a6.12,6.12,0,0,1,.4-3.41A40.84,40.84,0,0,1,418.92,164.09Z"/><path d="M323,316V330.6C320.61,328,320.52,322,323,316Z"/><path d="M312.67,330.1v-15l.5-.05q.49,7.47,1,14.93Z"/><path d="M385.9,117.18q-1.54-5.55-3.1-11.08l1.17-.33a16,16,0,0,1,3,11.1Z"/><path d="M337.37,40.47V30.7C340.17,33.67,340.25,37.17,337.37,40.47Z"/><path d="M328.32,147.27l5.33-6c1.6,3.64.37,5.17-4.56,6.73Z"/><path d="M363,235.14l8.19-2.55c-.2,1.66-3.43,5.35-5.16,4.9C364.85,237.18,363.91,235.86,363,235.14Z"/><path d="M313.72,540l8.07-2.94.49,1.25c-1.82,3.08-5.22,2.42-7.91,3.41C314.15,541.17,313.93,540.59,313.72,540Z"/><path d="M322,247.54q3.07-3.82,6.16-7.63l1.27,1-6,7.73Z"/><path d="M388,258.39l3.66-2.44.62.66,1-4C396.13,257.42,394.32,259.44,388,258.39Z"/><path d="M281.84,175.74c3,8.26,3,8.26,1.57,11.93l-2.57-11.77Z"/><path d="M375.11,267.25c-3.22-3.29-2.81-5.45,1.35-8.07C376,262,375.61,264.26,375.11,267.25Z"/><path d="M193.32,406.89V395l1,.07L193.49,407Z"/><path d="M331.16,238.09,339,231l.77.79-7.63,7.54Z"/><path d="M382.93,260.24l.69-9.71c2.79,3.51,1.11,6.68.22,9.92Z"/><path d="M344.26,114l-.82,6.26-1.32-.16c.72-2.12-3.08-4.71.41-6.55Z"/><path d="M406.49,95.17c3.19,1.52,4.58,4.89,3.16,9.34-1.2-3.64-2.14-6.52-3.09-9.41Z"/><path d="M208.18,247.28l6.06-8.44,1,.69-5.9,8.5Z"/><path d="M387.05,224a17,17,0,0,0-1.77,2.92,19.63,19.63,0,0,0-.62,3.51c-2.8-1.86-2.51-3.25,1.36-6.92Z"/><path d="M188.26,35.28,182.07,39l-1-1.74,6.37-3.49Z"/><path d="M391.06,233.71l-4.75,6.65C385.64,236.5,387.28,234,391.06,233.71Z"/><path d="M285.84,16.2h-8.29l-.05-.66,8.28-1.33Z"/><path d="M375.45,227.69l3.84-6.68.84.48c-.63,2.61-1.19,5.25-3.53,6.86Z"/><path d="M278.34,615.18l-6.73,2.25-.48-1.29,6.46-2.76Z"/><path class="cls-1" d="M184.53,484c-.34-3-1-6-.94-9,.22-8.38-.47-16.68-.92-25-.49-9.07-1.49-18.82,3.64-27.4.09-.15.45-.14,1-.3-.42,3.64-1.15,7.16-1.18,10.68-.09,9.05.13,18.09.23,27.14.08,6.78.21,13.56.22,20.33a16.59,16.59,0,0,1-.74,3.49Z"/><path class="cls-1" d="M180.28,475.05c-.57-1.65-1.58-3.29-1.62-4.95-.3-11.32-.49-22.66-.49-34a83.3,83.3,0,0,1,1.07-10.89,10.5,10.5,0,0,1,1.29-2.82c.46,17.6.92,35,1.38,52.37Z"/><path class="cls-1" d="M165.72,473.12c0-3.48,0-7,0-10.44,0-1.22.44-2.5.21-3.66-1.62-8.2-2.44-16.31-.34-24.63.78-3.11.13-6.6.13-9.91H167v48.6Z"/><path class="cls-1" d="M175.75,424c.12,2.36.31,4.72.36,7.08q.31,14.52.55,29c0,1.83,0,3.67,0,5.5l-1.16.16c-.57-2.9-1.64-5.8-1.62-8.69.06-10.08.48-20.16.85-30.23a9.26,9.26,0,0,1,1.1-2.76Z"/><path class="cls-1" d="M171.1,428.65v30.29h-1.45c-1.12-10.1-1.81-20.19.38-30.29Z"/><path class="cls-1" d="M162.47,422.59v29.5C159.49,449.47,159.13,428.25,162.47,422.59Z"/><path class="cls-1" d="M394.86,290c1.93-6.76,3.18-13.32,1.77-20.39-.63-3.17,1-6.05,5.19-7.93a75.76,75.76,0,0,0-2,7.41c-.83,5.07-1.25,10.21-2.22,15.24C397.22,286.27,395.81,288.07,394.86,290Z"/><path class="cls-1" d="M173.92,468.28c.39,3.94.78,7.88,1.14,11.56-2.42,1.35-2.18-5-5.36,1.3V464.58l.44-.2q.8,4.1,1.57,8.2l.43,0c.09-1.42.17-2.84.26-4.26Z"/><path class="cls-1" d="M179.31,485.42l.61-3.42h1v12l-.9.1-.45-3.58c-1.1-.8-2.54-1.35-2.58-2-.2-4-.1-8.08-.1-12.12l1.13-.06Z"/><path class="cls-1" d="M402.33,258.27c-2.25-4.18.13-6.57,2.33-8.67s4.91-3.81,8.12-6.22C410.8,249.93,405.59,253.12,402.33,258.27Z"/><path class="cls-1" d="M414.65,241.5c2.05-4.58,3.89-8.34,5.39-12.23.42-1.11-.31-2.62-.2-3.92.22-2.69.64-5.37,1-8.06l1.75.16c0,1.59.12,3.19,0,4.76C421.91,229.12,421.41,236.11,414.65,241.5Z"/><path class="cls-1" d="M157.83,422.41V448.9C155.21,446,155.71,427.1,157.83,422.41Z"/><path class="cls-1" d="M153.92,448c-3.34-5.87-3.34-14.25,0-19.18Z"/><path class="cls-1" d="M140.83,442V423.34l1.67.05L141.42,442Z"/><path class="cls-1" d="M138.75,426.69c-.37,5.09-.69,9.47-1,14.2C135.19,437.93,135.65,429.71,138.75,426.69Z"/><path class="cls-1" d="M57.85,341.93l4.34,3,1.09-2.15.86,0,.53,4.47c-4.27.89-6-1.54-7.49-4.36Z"/><path class="cls-1" d="M132.82,439.09c.25-3.83-1.52-7.86,1-11.49l1.27.1q-.37,5.74-.74,11.48Z"/><path class="cls-1" d="M183.81,499.69l-1.06-12.59c3.33,3.81,1.71,8.27,2.31,12.44Z"/><path class="cls-1" d="M131.36,426.3q-.54,6-1.1,11.94l-1.1-.09C128.61,434.1,127.93,430,131.36,426.3Z"/><path class="cls-1" d="M375,299.57c.8-4.55,3.44-6.43,8-5.29Z"/><path class="cls-1" d="M24.19,305.88l-1,2.25-.77-.17c.28-1.12.23-2.56.92-3.26s2.09-.5,3.71-.81l.81,4.51-.83.47Z"/><path class="cls-1" d="M157.72,460.53q-.42-3.66-.86-7.3l1.24-.21,1.26,7.26Z"/><path class="cls-1" d="M241.21,237.63c.57,5.32,1.31,10.63,1.67,16a122.87,122.87,0,0,1,0,12.29,3.15,3.15,0,0,1-1.39,2.35c-2.08,1-4.33,1.68-6.53,2.49-.94-10-1.83-19.34-2.71-28.72l4-1c.46,4.37.92,8.87,1.39,13.36l1-.07C240.61,248.91,235.2,242.53,241.21,237.63Zm-2.13,19.21-1.05-.13v10.2h1.05Z"/><path class="cls-1" d="M277,285.42l-7.77,3.2v-5.4c-1.68,1.33-2.69,2.22-3.81,3a1.9,1.9,0,0,1-1.63.22,2,2,0,0,1-.51-1.5,32.59,32.59,0,0,1,5.92-3.55c.78-.31,2.12.77,3.76,1.45,2.15-1.83,4-5.68,9.13-4.75-1.92,2.75-3.57,5.13-5.23,7.5Z"/><path class="cls-1" d="M292.05,188.9c-1.33,3.72,4.86,6,.81,10C287.8,194,287.51,191.91,292.05,188.9Z"/><path class="cls-1" d="M320.39,192.75c.92.53,2.63,1.1,2.6,1.59a5.1,5.1,0,0,1-1.51,3.43c-1.37,1.13-3.19,1.73-5,2.66-1-4.06,2.63-5.31,4-7.76Z"/><path class="cls-1" d="M209.24,409.28c-.21,2.77-.43,5.55-.67,8.64C205.76,415.4,205.87,412.67,209.24,409.28Z"/><path class="cls-1" d="M314.38,7.74l-8.87,4.57-.84-1.81,9.18-4.07Z"/><path class="cls-1" d="M133.88,224.6c-2.55,1.65-7.94,1.1-10.95-1.17-4.3-3.24-8.48-6.69-13-9.68-2.58-1.72-5.66-2.7-8.5-4l-7.66-3.57c2-4.89,3.46-5.81,7.48-3.63,4.56,2.47,8.71,5.7,13,8.57,5.37,3.56,10.76,7.1,16.41,10.82l-5,.45C128,226.75,132,221.51,133.88,224.6Z"/><path class="cls-1" d="M103.17,218.82l.54,5.87-.48.09c-.49-2.82-1-5.65-1.51-8.68,5.54-1.89,8.7,2.46,12.42,4.78,2.61,1.63,4.63,4.2,7.27,6.69a21.4,21.4,0,0,1-14.7,3.9c-.54,0-1.23-1.78-1.35-2.8-.38-3.28-.53-6.6-.77-9.9Z"/><path class="cls-1" d="M83.69,205.3l-6.24-7.23.93-1.06c4.79-.21,4.3,6.35,8.09,7.6Z"/><path class="cls-1" d="M402.77,214.22c-.2,2.57-.39,5.15-.6,7.9-3.05-3-3.61-12.25-1.11-15.32a3.29,3.29,0,0,1,1.12-.91c5.18-2.27,5.19-2.26,8.69-7v6.82c-6.25,1.89-2.83,8.43-5.87,12.39-.59-1.52-1.05-2.7-1.5-3.88Z"/><path class="cls-1" d="M414.94,201.11c2,6.08-2.19,9.59-3.15,15l-2.64-3.85c-.66,4-1.19,7.31-1.85,11.29-1.47-5.59.26-10.3,3.69-14.17C412.72,207.4,413.37,204.51,414.94,201.11Z"/><path d="M239.08,256.84v10.08H238v-10.2Z"/><path d="M475.7,187.57c0-21.2-1.8-21.6-11.2-23.2l-3.4-.6c-1.4-1.4-1.2-4.8.4-5.6,8,.4,17,.6,25.8.6,9,0,18-.2,26.8-.6,1.6.8,1.8,4.2.4,5.6l-4.4.6c-9.4,1.2-11.2,2-11.2,23.2v45.8c0,27.6,8.4,50.8,36.2,50.8,26.2,0,37-19.8,37-50.2V209c0-15-.2-33.6-3.8-39.4-1.8-3-5-4.4-10-5.2l-4-.6c-1.8-1.4-1.6-5,.4-5.6,6.8.4,14.4.6,22.2.6,8.4,0,13.8-.2,21.2-.6a3.87,3.87,0,0,1,.4,5.6l-4.4,1c-3.8.8-7.4,1.6-8.8,4.8-2.8,6-2.8,23.6-2.8,39.4v23.8c0,18.2-2.8,35-13.2,46.2s-25.4,15-39.2,15c-18.8,0-32-4-41.2-12.8-9-8.6-13.2-22.6-13.2-42.8Z"/><path d="M738.7,192.37c-1.4,1.6-5,1.8-6.4.4-3.4-12.6-12.4-29.2-38.8-29.2-25.4,0-51,18-51,59,0,42.6,26.6,63.4,52.4,63.4,25.2,0,36.2-16.8,41.8-29.8a4,4,0,0,1,6,.8c-1.4,13.4-6.8,26.6-9.6,30.4a71.54,71.54,0,0,0-7,1.8,119.18,119.18,0,0,1-31.2,4.8c-19.8,0-36.8-4-51.2-13.4-16.2-10.6-28.4-28.8-28.4-55,0-23.4,10.4-41.6,25.2-53,14.8-11.2,35-17,55.2-17a154.3,154.3,0,0,1,34.6,4.4c2.4.6,3.8.8,5.6,1.2C736.3,165.77,736.7,177.57,738.7,192.37Z"/><path d="M797.7,257.77c0,10,.4,17.2,3.4,20.6,2.4,2.8,5.6,4.4,21.6,4.4,22.2,0,25.4-1,34.6-21.6,2-1,5.2-.4,6.2,1.2-1.6,8.4-6,23.6-8.4,29-8.4-.4-25.6-.6-48-.6H786.3c-10.2,0-20.2.2-28.6.6-1.6-.8-2.2-4.8-.4-5.8l6-1c9.4-1.6,11.2-1.8,11.2-22.6v-74.4c0-20.8-1.8-21.4-11.2-22.8l-5.6-.8c-1.4-1-1.4-5,.4-5.8,10,.4,19,.6,28.2.6,8.8,0,17.8-.2,26.6-.6,1.8.8,2,4.8.4,5.8l-4.4.8c-9.4,1.6-11.2,2-11.2,22.8Z"/><path d="M500.1,417.77c0,10,.4,17.2,3.4,20.6,2.4,2.8,5.6,4.4,21.6,4.4,22.2,0,25.4-1,34.6-21.6,2-1,5.2-.4,6.2,1.2-1.6,8.4-6,23.6-8.4,29-8.4-.4-25.6-.6-48-.6H488.7c-10.2,0-20.2.2-28.6.6-1.59-.8-2.2-4.8-.4-5.8l6-1c9.4-1.6,11.2-1.8,11.2-22.6v-74.4c0-20.8-1.8-21.4-11.2-22.8l-5.6-.8c-1.4-1-1.4-5,.4-5.8,10,.4,19,.6,28.2.6,8.8,0,17.8-.2,26.6-.6,1.8.8,2,4.8.4,5.8l-4.4.8c-9.4,1.6-11.2,2-11.2,22.8Z"/><path d="M598.7,427c0,14.8.8,16.8,7.6,18l3.6.6c1.4,1.4,1.2,5-.4,5.8-7.4-.4-14.2-.6-21.6-.6-6.6,0-13.4.2-21,.6-1.59-.8-1.8-4.4-.39-5.8l3.59-.6c6.8-1.2,7.6-3.2,7.6-18v-29.4c0-9,0-11.4-5-14.4l-2.39-1.4a5.3,5.3,0,0,1,.19-4.6c10.4-3,20.4-7.4,26-10.8a3.68,3.68,0,0,1,2.8,1.6c-.4,6.6-.6,16.2-.6,24.4Zm-22.8-88.2c0-6.8,5-12,12.2-12s12.2,5.2,12.2,12-5,12-12.2,12S575.9,345.57,575.9,338.77Z"/><path d="M666.7,429c-3.2,7.2-7,16.6-9.4,23.4a4.7,4.7,0,0,1-3.4,1.2,5.58,5.58,0,0,1-3.6-1.2c-2-5.6-5.2-13.4-7.6-18.6-4.4-9.8-15.4-35-19.2-43.4-4-8.6-6.2-11.2-12.2-12.4l-3.8-.8c-1.4-1.4-1.2-4.8.4-5.8q10.5.6,21,.6c9,0,15-.2,22-.6,2,.8,2.2,4.4.4,5.8l-3.6.6c-2.8.4-5,1-5,2.2a19,19,0,0,0,1.6,6.4c2.8,7.4,13,32.2,16,38.2,4.8-10,9.6-22.2,14.8-34.8,2-5,2.8-7.6,2.8-9s-1.8-2.2-4.2-2.6l-4.8-1c-1.6-1.6-1.4-5,.8-5.8,6,.4,11,.6,16.8.6,5.2,0,10.2-.2,14.6-.6,1.8.8,2,4.4.4,5.8l-4,.8c-6,1.2-8.8,2.6-15,16.2Z"/><path d="M729.1,427c0,14.8.8,16.8,7.6,18l3.6.6c1.4,1.4,1.2,5-.4,5.8-7.4-.4-14.2-.6-21.6-.6-6.6,0-13.4.2-21,.6-1.6-.8-1.8-4.4-.4-5.8l3.6-.6c6.8-1.2,7.6-3.2,7.6-18v-29.4c0-9,0-11.4-5-14.4l-2.4-1.4a5.34,5.34,0,0,1,.2-4.6c10.4-3,20.4-7.4,26-10.8a3.68,3.68,0,0,1,2.8,1.6c-.4,6.6-.6,16.2-.6,24.4Zm-22.8-88.2c0-6.8,5-12,12.2-12s12.2,5.2,12.2,12-5,12-12.2,12S706.3,345.57,706.3,338.77Z"/><path d="M777.7,427c0,14.8.8,17.2,7.6,18.2l3,.4c1.4,1.4,1.2,5-.4,5.8-7-.4-13.8-.6-21.2-.6-6.4,0-13.2.2-21.6.6-1.6-.8-1.8-4.4-.4-5.8l4.4-.6c6.8-1,7.6-3.2,7.6-18v-29.4c0-9,0-11.4-5-14.4l-2.4-1.4a5.34,5.34,0,0,1,.2-4.6,135.48,135.48,0,0,0,26-10.8,2.78,2.78,0,0,1,2.6,1.6,90,90,0,0,0-.4,9.2c0,1.4.6,1.8,1.8,2,9.4-5.2,15-10,27.4-10,16.2,0,23.8,11.2,23.8,26.8v31c0,14.8.8,17.2,7.6,18l4.6.6c1.4,1.4,1.2,5-.4,5.8-8.4-.4-15.2-.6-22.6-.6q-9.9,0-20.4.6c-1.6-.8-1.8-4.4-.4-5.8l3-.4c6.8-1,7.6-3.4,7.6-18.2v-27.6c0-10.2-4-18.2-16-18.2-6.2,0-11.2,3.2-13.2,6.2-2.6,3.6-2.8,5.4-2.8,12.8Z"/><path d="M918.3,386.77a27.64,27.64,0,0,1,1,8.6c0,16.8-11.2,33-36.6,33a51.7,51.7,0,0,1-7.6-.8c-3.2,1.6-6.2,4.2-6.2,7.8,0,4,2.8,7.8,11,7.8,5.8,0,13.4-.4,22-.4,14.4,0,32.6,2.4,32.6,24.2,0,10.4-7.2,20.2-12.6,24.4-8.8,7.2-21.6,13.2-38.8,13.2-28.2,0-37.4-13.2-37.4-23.6a12.33,12.33,0,0,1,2.8-8.6c1.8-2,9.4-6.4,12.4-9,1.6-1.2,3-3.8,1.2-4.4-7-2.4-13.2-8.8-13.2-16.6,0-2,.8-3.6,3.2-5,3-1.6,12.8-7.8,12.8-10.6,0-.6,0-1.8-.8-2.2-6.8-2.8-14.8-10.8-14.8-23.8,0-18,15-31.6,36.6-31.6,8,0,15,1.6,20.2,4.2,4.2,2,6.4,3,8.8,3h19.6a4.71,4.71,0,0,1,1.6,3.6c0,4-1.6,6.4-3.21,6.8Zm-33.6,73.8c-7,0-11.2.6-13.6,2.4-3.4,2.6-6,6.2-6,11.2,0,12.2,10.8,20.2,26.2,20.2,17,0,26.6-7,26.6-18.6,0-10.2-9.4-15.2-21.8-15.2Zm1.6-39.8c7.6,0,13.2-6.6,13.2-20.6,0-13.6-5.8-23.4-14.8-23.4-7,0-13.2,6.6-13.2,20.4C871.5,412.57,878.7,420.77,886.3,420.77Z"/><path d="M1019.49,417.77c0,10,.4,17.2,3.4,20.6,2.4,2.8,5.6,4.4,21.6,4.4,22.2,0,25.4-1,34.6-21.6,2-1,5.2-.4,6.2,1.2-1.6,8.4-6,23.6-8.4,29-8.4-.4-25.6-.6-48-.6h-20.8c-10.2,0-20.2.2-28.6.6-1.6-.8-2.2-4.8-.4-5.8l6-1c9.4-1.6,11.2-1.8,11.2-22.6v-74.4c0-20.8-1.8-21.4-11.2-22.8l-5.6-.8c-1.4-1-1.4-5,.4-5.8,10,.4,19,.6,28.2.6,8.8,0,17.8-.2,26.6-.6,1.8.8,2,4.8.4,5.8l-4.4.8c-9.4,1.6-11.2,2-11.2,22.8Z"/><path d="M1148.09,425.37c-.6,11.6,2.4,17.6,9.6,17.6,3.4,0,6.2-2.2,6.8-2.2,1,0,2.4,2.2,1.8,4-4,5.6-13.8,8.8-20,8.8-5,0-10.6-1.4-14.4-5.6-1.4-1.4-2.2-2.4-3.2-2.4s-2.4,1-5.4,2.8a32.29,32.29,0,0,1-17,5.2c-13.6,0-20.4-9.4-20.4-19.4,0-7.2,2.8-13.8,16.6-18.6,7-2.4,14.6-5.2,22-8,4-1.4,4.6-3.2,4.6-5.2l.2-5.2c.4-10.2-2.4-19-12.2-19-5.6,0-9.8,3-10.6,8.8-.4,3.8-1.6,5.8-3.8,7.2a27.52,27.52,0,0,1-12.8,3.6c-2.6,0-3.8-1.4-3.8-3.2,0-2.4,1.2-6.6,7.8-12.8,6.2-5.8,20.6-12.6,30.8-12.6,15.8,0,25.6,7.4,24.8,25Zm-19.6-6.8c0-2.2-.6-3.4-1.6-3.4-1.6,0-5.2,1-8.8,2.4-5.6,2-10.8,4.8-10.8,13.4,0,5.2,3.6,11.6,11.2,11.6,7.2,0,9.4-4.8,9.6-9.6Z"/><path d="M1200.09,380.77c-3.6,0-3.8.4-3.8,6.8v30.8c0,12.6,1.8,23.8,14.6,23.8,4,0,6.4-1.4,9.6-3.6,1.8.2,3,1.8,2.6,4-4,5.6-13.2,11-25.4,11-19,0-22.4-11-22.4-25V388c0-7-.4-7.2-3.6-7.2h-7c-2-1-2.4-4.2-.6-5.4a64.37,64.37,0,0,0,15.8-8.4,37.37,37.37,0,0,0,11-12.4,4.26,4.26,0,0,1,5.6,1v12c0,3.2,0,3.8,3.8,3.8h19.8c1.2.6,1.6,2.2,1.6,4.2-.2,2.4-1,4.2-2.6,5.2Z"/><path d="M1256.29,427c0,14.8.8,16.8,7.6,18l3.6.6c1.4,1.4,1.2,5-.4,5.8-7.4-.4-14.2-.6-21.6-.6-6.6,0-13.4.2-21,.6-1.6-.8-1.8-4.4-.4-5.8l3.6-.6c6.8-1.2,7.6-3.2,7.6-18v-29.4c0-9,0-11.4-5-14.4l-2.4-1.4a5.34,5.34,0,0,1,.2-4.6c10.4-3,20.4-7.4,26-10.8a3.68,3.68,0,0,1,2.8,1.6c-.4,6.6-.6,16.2-.6,24.4Zm-22.8-88.2c0-6.8,5-12,12.2-12s12.2,5.2,12.2,12-5,12-12.2,12S1233.49,345.57,1233.49,338.77Z"/><path d="M1304.89,427c0,14.8.8,17.2,7.6,18.2l3,.4c1.4,1.4,1.2,5-.4,5.8-7-.4-13.8-.6-21.2-.6-6.4,0-13.2.2-21.6.6-1.6-.8-1.8-4.4-.4-5.8l4.4-.6c6.8-1,7.6-3.2,7.6-18v-29.4c0-9,0-11.4-5-14.4l-2.4-1.4a5.34,5.34,0,0,1,.2-4.6,135.48,135.48,0,0,0,26-10.8,2.78,2.78,0,0,1,2.6,1.6,90,90,0,0,0-.4,9.2c0,1.4.6,1.8,1.8,2,9.4-5.2,15-10,27.4-10,16.2,0,23.8,11.2,23.8,26.8v31c0,14.8.8,17.2,7.6,18l4.6.6c1.4,1.4,1.2,5-.4,5.8-8.4-.4-15.2-.6-22.6-.6q-9.9,0-20.4.6c-1.6-.8-1.8-4.4-.4-5.8l3-.4c6.8-1,7.6-3.4,7.6-18.2v-27.6c0-10.2-4-18.2-16-18.2-6.2,0-11.2,3.2-13.2,6.2-2.6,3.6-2.8,5.4-2.8,12.8Z"/></svg>